{"glyphs":{"0":{"ha":916,"x_min":26,"x_max":863,"o":"m 553 741 q 718 709 648 741 q 825 619 787 677 q 863 482 863 561 q 790 242 863 358 q 596 53 718 125 q 336 -20 474 -20 q 172 12 242 -20 q 64 102 102 43 q 26 239 26 160 q 99 479 26 363 q 292 668 171 595 q 553 741 414 741 m 533 715 q 399 638 457 715 q 310 441 341 561 q 279 201 279 322 q 301 55 279 104 q 355 5 322 5 q 489 83 431 5 q 578 280 547 161 q 610 519 610 400 q 588 667 610 618 q 533 715 567 715 z "},"1":{"ha":543,"x_min":56,"x_max":522,"o":"m 56 0 l 228 576 q 58 536 182 562 l 62 566 q 245 616 166 588 q 379 672 324 644 q 494 736 434 700 l 522 736 l 301 0 l 56 0 z "},"2":{"ha":772,"x_min":-37,"x_max":701,"o":"m 456 741 q 586 722 531 741 q 671 668 642 703 q 701 589 701 633 q 655 481 701 532 q 546 390 610 430 q 382 296 482 350 q 321 263 367 288 q 245 218 275 239 q 338 201 273 218 q 473 179 422 179 q 571 196 533 179 q 608 245 608 214 q 564 307 608 282 l 578 325 q 638 272 620 301 q 656 201 656 243 q 630 99 656 147 q 548 22 604 52 q 411 -8 493 -8 q 274 12 363 -8 q 186 28 221 23 q 110 34 151 34 q 37 26 67 34 q -37 0 7 18 l -31 29 q 40 83 -14 43 q 239 243 153 169 q 393 410 324 317 q 461 589 461 503 q 433 669 461 643 q 355 696 404 696 q 243 665 299 696 q 152 585 188 634 q 117 486 117 536 q 135 436 117 452 q 196 419 154 419 q 262 433 233 419 q 325 476 290 446 l 342 457 q 265 406 305 422 q 187 390 224 390 q 114 411 144 390 q 83 485 83 432 q 130 606 83 547 q 262 703 177 665 q 456 741 347 741 z "},"3":{"ha":749,"x_min":-126,"x_max":690,"o":"m 436 741 q 571 723 513 741 q 660 673 629 705 q 690 600 690 642 q 639 487 690 538 q 509 400 587 435 q 347 347 431 366 q 560 303 481 345 q 639 168 639 260 q 516 -24 639 61 q 213 -159 393 -110 q -126 -210 33 -208 l -119 -184 q 113 -131 -3 -177 q 307 0 229 -84 q 385 199 385 84 q 368 288 385 254 q 322 325 352 322 q 273 307 290 312 q 241 301 257 301 q 217 315 217 301 q 218 322 217 317 q 284 348 224 348 q 311 347 302 348 q 420 432 379 378 q 461 557 461 485 q 425 649 461 616 q 321 682 388 682 q 225 660 271 682 q 152 601 180 637 q 123 528 123 565 q 142 477 123 494 q 204 461 161 461 q 290 482 251 461 l 306 461 q 195 432 252 432 q 121 453 152 432 q 90 526 90 474 q 136 627 90 577 q 262 709 182 677 q 436 741 342 741 z "},"4":{"ha":762,"x_min":-86,"x_max":671,"o":"m 485 75 l 412 -196 l 167 -196 l 240 75 l -86 75 l -78 104 l 628 741 l 664 741 l 493 104 l 671 104 l 663 75 l 485 75 m 340 444 l -37 104 l 248 104 l 340 444 z "},"5":{"ha":667,"x_min":-129,"x_max":623,"o":"m 623 737 q 529 574 585 633 q 404 515 474 515 q 361 522 384 515 q 304 541 339 528 q 212 564 240 564 q 199 564 203 564 l 87 313 q 315 363 178 363 q 570 193 570 363 q 457 -14 570 76 q 181 -153 345 -103 q -129 -205 18 -202 l -122 -180 q 77 -134 -24 -180 q 245 -4 178 -88 q 313 191 313 81 q 285 288 313 255 q 193 321 257 321 q 68 283 134 321 l 54 290 l 236 720 q 351 703 279 722 q 414 689 389 694 q 468 685 439 685 q 549 699 517 685 q 606 747 582 712 l 623 737 z "},"6":{"ha":823,"x_min":31,"x_max":786,"o":"m 786 975 q 547 829 663 939 q 356 545 431 719 q 282 157 282 372 q 288 66 282 98 q 306 21 294 34 q 336 8 317 8 q 428 76 385 8 q 495 241 470 144 q 521 415 521 338 q 506 500 521 475 q 467 526 490 526 q 410 495 438 526 q 366 400 382 464 l 342 407 q 426 561 370 513 q 566 608 482 608 q 674 585 627 608 q 749 513 722 561 q 777 397 777 465 q 711 194 777 290 q 534 39 645 98 q 293 -20 422 -20 q 31 240 31 -20 q 153 593 31 427 q 452 869 275 760 q 778 1003 628 979 l 786 975 z "},"7":{"ha":714,"x_min":53,"x_max":806,"o":"m 806 720 q 578 458 650 547 q 459 268 507 368 q 372 17 410 168 q 354 -71 357 -47 l 350 -93 q 302 -174 340 -142 q 200 -205 264 -205 q 91 -106 91 -205 q 100 -45 91 -78 q 195 136 123 42 q 351 314 266 231 q 569 515 437 397 q 726 658 678 611 q 627 593 688 633 q 538 535 570 554 q 473 506 507 517 q 401 494 439 494 q 349 500 371 494 q 292 519 326 506 q 203 541 240 541 q 139 522 163 541 q 114 465 114 504 q 154 386 114 417 q 265 338 194 354 l 258 314 q 53 517 53 356 q 77 620 53 572 q 153 697 101 667 q 285 728 205 728 q 360 721 326 728 q 450 699 395 714 q 551 675 507 684 q 648 667 595 667 q 714 678 686 667 q 765 720 743 689 l 806 720 z "},"8":{"ha":827,"x_min":-16,"x_max":856,"o":"m 856 852 q 549 572 856 709 l 578 547 q 658 473 628 504 q 708 399 688 441 q 729 306 729 357 q 666 140 729 215 q 498 23 602 66 q 277 -20 393 -20 q 129 0 195 -20 q 23 61 62 20 q -16 164 -16 102 q 89 349 -16 264 q 349 492 193 433 q 276 565 303 534 q 230 636 248 596 q 211 724 211 675 q 265 869 211 805 q 408 968 319 932 q 600 1003 498 1003 q 785 965 713 1003 q 856 852 856 926 m 529 591 q 593 715 569 642 q 618 867 618 789 q 559 978 618 978 q 497 949 528 978 q 448 876 467 921 q 429 783 429 831 q 455 681 429 726 q 529 591 481 635 m 314 5 q 401 39 359 5 q 471 126 444 72 q 497 239 497 180 q 479 331 497 289 q 434 405 462 372 q 365 476 407 437 q 269 330 307 419 q 232 140 232 240 q 251 40 232 75 q 314 5 270 5 z "},"9":{"ha":808,"x_min":17,"x_max":762,"o":"m 500 741 q 762 481 762 741 q 642 138 762 300 q 348 -132 522 -24 q 29 -261 175 -239 l 21 -233 q 254 -91 140 -199 q 439 187 367 18 q 511 564 511 356 q 505 654 511 622 q 488 700 499 687 q 457 713 476 713 q 366 645 408 713 q 297 480 323 577 q 272 306 272 384 q 287 220 272 246 q 326 195 302 195 q 382 226 355 195 q 428 321 410 257 l 452 314 q 367 160 423 208 q 228 113 311 113 q 119 136 167 113 q 44 208 72 160 q 17 323 17 256 q 82 527 17 431 q 259 682 148 623 q 500 741 370 741 z "}," ":{"ha":357,"x_min":0,"x_max":0,"o":""},"A":{"ha":929,"x_min":-134,"x_max":836,"o":"m 768 117 q 791 50 772 71 q 836 28 811 29 l 831 0 q 596 4 749 4 q 359 0 435 4 l 366 28 q 435 38 410 30 q 473 67 460 47 q 486 127 486 88 q 485 144 486 138 l 473 372 l 200 372 l 65 182 q 33 102 33 134 q 160 28 33 37 l 154 0 q -43 4 11 4 q -134 0 -90 4 l -127 28 q -77 53 -100 35 q -27 102 -54 70 q 41 193 -1 134 l 608 990 q 662 987 631 987 q 713 990 693 987 l 768 117 m 454 732 l 220 400 l 471 400 l 454 732 z "},"Á":{"ha":929,"x_min":-134,"x_max":989,"o":"m 0 0 m 768 117 q 791 50 772 71 q 836 28 811 29 l 831 0 q 596 4 749 4 q 359 0 435 4 l 366 28 q 435 38 410 30 q 473 67 460 47 q 486 127 486 88 q 485 144 486 138 l 473 372 l 200 372 l 65 182 q 33 102 33 134 q 160 28 33 37 l 154 0 q -43 4 11 4 q -134 0 -90 4 l -127 28 q -77 53 -100 35 q -27 102 -54 70 q 41 193 -1 134 l 608 990 q 662 987 631 987 q 713 990 693 987 l 768 117 m 454 732 l 220 400 l 471 400 l 454 732 m 571 1089 q 704 1221 631 1141 q 774 1291 749 1268 q 829 1331 799 1314 q 893 1347 859 1347 q 979 1299 953 1347 q 989 1261 989 1279 q 917 1169 989 1211 q 857 1145 890 1155 q 767 1122 824 1135 q 581 1072 652 1095 l 571 1089 z "},"Ă":{"ha":929,"x_min":-134,"x_max":1025,"o":"m 0 0 m 768 117 q 791 50 772 71 q 836 28 811 29 l 831 0 q 596 4 749 4 q 359 0 435 4 l 366 28 q 435 38 410 30 q 473 67 460 47 q 486 127 486 88 q 485 144 486 138 l 473 372 l 200 372 l 65 182 q 33 102 33 134 q 160 28 33 37 l 154 0 q -43 4 11 4 q -134 0 -90 4 l -127 28 q -77 53 -100 35 q -27 102 -54 70 q 41 193 -1 134 l 608 990 q 662 987 631 987 q 713 990 693 987 l 768 117 m 454 732 l 220 400 l 471 400 l 454 732 m 685 1225 q 863 1244 785 1225 q 1008 1303 941 1263 l 1025 1291 q 930 1176 988 1229 q 800 1092 871 1124 q 656 1060 729 1060 q 503 1122 559 1060 q 428 1286 446 1185 l 449 1297 q 547 1242 493 1259 q 685 1225 602 1225 z "},"Â":{"ha":929,"x_min":-134,"x_max":970,"o":"m 0 0 m 768 117 q 791 50 772 71 q 836 28 811 29 l 831 0 q 596 4 749 4 q 359 0 435 4 l 366 28 q 435 38 410 30 q 473 67 460 47 q 486 127 486 88 q 485 144 486 138 l 473 372 l 200 372 l 65 182 q 33 102 33 134 q 160 28 33 37 l 154 0 q -43 4 11 4 q -134 0 -90 4 l -127 28 q -77 53 -100 35 q -27 102 -54 70 q 41 193 -1 134 l 608 990 q 662 987 631 987 q 713 990 693 987 l 768 117 m 454 732 l 220 400 l 471 400 l 454 732 m 661 1145 q 349 1069 526 1099 l 342 1089 q 575 1192 465 1128 q 751 1328 684 1257 l 777 1328 q 847 1187 804 1242 q 970 1089 890 1133 l 964 1069 q 794 1103 863 1086 q 661 1145 725 1120 z "},"Ä":{"ha":929,"x_min":-134,"x_max":974,"o":"m 0 0 m 768 117 q 791 50 772 71 q 836 28 811 29 l 831 0 q 596 4 749 4 q 359 0 435 4 l 366 28 q 435 38 410 30 q 473 67 460 47 q 486 127 486 88 q 485 144 486 138 l 473 372 l 200 372 l 65 182 q 33 102 33 134 q 160 28 33 37 l 154 0 q -43 4 11 4 q -134 0 -90 4 l -127 28 q -77 53 -100 35 q -27 102 -54 70 q 41 193 -1 134 l 608 990 q 662 987 631 987 q 713 990 693 987 l 768 117 m 454 732 l 220 400 l 471 400 l 454 732 m 374 1164 q 393 1240 374 1210 q 443 1285 412 1271 q 511 1300 474 1300 q 590 1271 564 1300 q 616 1192 616 1242 q 596 1116 616 1146 q 545 1073 576 1086 q 477 1059 513 1059 q 399 1086 424 1059 q 374 1164 374 1114 m 732 1164 q 751 1240 732 1210 q 801 1285 770 1271 q 869 1300 832 1300 q 948 1271 922 1300 q 974 1192 974 1242 q 954 1116 974 1146 q 903 1073 935 1086 q 835 1059 871 1059 q 757 1086 782 1059 q 732 1164 732 1114 z "},"À":{"ha":929,"x_min":-134,"x_max":836,"o":"m 0 0 m 768 117 q 791 50 772 71 q 836 28 811 29 l 831 0 q 596 4 749 4 q 359 0 435 4 l 366 28 q 435 38 410 30 q 473 67 460 47 q 486 127 486 88 q 485 144 486 138 l 473 372 l 200 372 l 65 182 q 33 102 33 134 q 160 28 33 37 l 154 0 q -43 4 11 4 q -134 0 -90 4 l -127 28 q -77 53 -100 35 q -27 102 -54 70 q 41 193 -1 134 l 608 990 q 662 987 631 987 q 713 990 693 987 l 768 117 m 454 732 l 220 400 l 471 400 l 454 732 m 739 1072 q 554 1114 659 1097 q 490 1126 513 1120 q 445 1143 466 1132 q 405 1178 420 1156 q 390 1226 390 1200 q 399 1263 390 1245 q 435 1301 411 1288 q 486 1314 459 1314 q 530 1304 510 1314 q 571 1277 553 1293 q 616 1226 589 1260 q 749 1089 684 1145 l 739 1072 z "},"Ā":{"ha":929,"x_min":-134,"x_max":964,"o":"m 0 0 m 768 117 q 791 50 772 71 q 836 28 811 29 l 831 0 q 596 4 749 4 q 359 0 435 4 l 366 28 q 435 38 410 30 q 473 67 460 47 q 486 127 486 88 q 485 144 486 138 l 473 372 l 200 372 l 65 182 q 33 102 33 134 q 160 28 33 37 l 154 0 q -43 4 11 4 q -134 0 -90 4 l -127 28 q -77 53 -100 35 q -27 102 -54 70 q 41 193 -1 134 l 608 990 q 662 987 631 987 q 713 990 693 987 l 768 117 m 454 732 l 220 400 l 471 400 l 454 732 m 355 1137 l 364 1173 l 964 1173 l 956 1137 l 355 1137 z "},"Ą":{"ha":929,"x_min":-134,"x_max":836,"o":"m 758 2 q 687 -42 716 -16 q 643 -98 657 -69 q 628 -154 628 -127 q 668 -191 628 -191 q 767 -164 710 -191 l 782 -187 q 564 -261 677 -261 q 472 -239 506 -261 q 437 -176 437 -216 q 521 -71 437 -117 q 732 3 604 -25 q 596 4 642 4 q 359 0 435 4 l 366 28 q 435 38 410 30 q 473 67 460 47 q 486 127 486 88 q 485 144 486 138 l 473 372 l 200 372 l 65 182 q 33 102 33 134 q 160 28 33 37 l 154 0 q -43 4 10 4 q -134 0 -90 4 l -127 28 q -77 53 -100 35 q -27 102 -54 70 q 41 193 -1 134 l 608 990 q 661 987 635 987 q 713 990 687 987 l 768 117 q 791 50 772 71 q 836 28 811 29 l 831 0 q 758 2 774 2 m 454 732 l 220 400 l 471 400 l 454 732 z "},"Å":{"ha":929,"x_min":-134,"x_max":852,"o":"m 0 0 m 768 117 q 791 50 772 71 q 836 28 811 29 l 831 0 q 596 4 749 4 q 359 0 435 4 l 366 28 q 435 38 410 30 q 473 67 460 47 q 486 127 486 88 q 485 144 486 138 l 473 372 l 200 372 l 65 182 q 33 102 33 134 q 160 28 33 37 l 154 0 q -43 4 11 4 q -134 0 -90 4 l -127 28 q -77 53 -100 35 q -27 102 -54 70 q 41 193 -1 134 l 608 990 q 662 987 631 987 q 713 990 693 987 l 768 117 m 454 732 l 220 400 l 471 400 l 454 732 m 705 1312 q 780 1297 746 1312 q 832 1254 813 1282 q 852 1189 852 1225 q 826 1110 852 1146 q 758 1052 800 1074 q 667 1031 715 1031 q 594 1046 627 1031 q 544 1089 562 1061 q 526 1156 526 1118 q 549 1235 526 1199 q 614 1292 573 1271 q 705 1312 655 1312 m 674 1060 q 743 1077 710 1060 q 795 1123 775 1094 q 816 1186 816 1152 q 799 1239 816 1217 q 755 1272 782 1261 q 701 1283 729 1283 q 632 1265 664 1283 q 582 1218 600 1247 q 563 1156 563 1188 q 578 1104 563 1126 q 620 1071 594 1082 q 674 1060 646 1060 z "},"Ã":{"ha":929,"x_min":-134,"x_max":1040,"o":"m 0 0 m 768 117 q 791 50 772 71 q 836 28 811 29 l 831 0 q 596 4 749 4 q 359 0 435 4 l 366 28 q 435 38 410 30 q 473 67 460 47 q 486 127 486 88 q 485 144 486 138 l 473 372 l 200 372 l 65 182 q 33 102 33 134 q 160 28 33 37 l 154 0 q -43 4 11 4 q -134 0 -90 4 l -127 28 q -77 53 -100 35 q -27 102 -54 70 q 41 193 -1 134 l 608 990 q 662 987 631 987 q 713 990 693 987 l 768 117 m 454 732 l 220 400 l 471 400 l 454 732 m 621 1317 q 709 1302 673 1317 q 784 1260 744 1288 q 843 1226 818 1238 q 901 1215 867 1215 q 961 1234 933 1215 q 1015 1296 988 1253 l 1040 1289 q 926 1119 998 1175 q 776 1063 855 1063 q 710 1070 739 1063 q 661 1089 682 1078 q 612 1119 640 1101 q 554 1153 578 1142 q 496 1164 530 1164 q 436 1145 463 1164 q 382 1083 409 1126 l 357 1090 q 471 1261 400 1204 q 621 1317 542 1317 z "},"Æ":{"ha":1264,"x_min":-125,"x_max":1339,"o":"m 1051 979 q 1339 983 1251 979 q 1295 850 1323 941 l 1286 819 q 1268 733 1274 778 l 1238 733 q 1248 831 1248 791 q 1219 924 1248 897 q 1125 951 1190 951 l 1065 951 q 993 943 1017 951 q 955 912 969 935 q 926 836 940 888 l 840 509 l 920 509 q 985 529 959 509 q 1027 581 1011 550 q 1063 664 1043 612 l 1093 664 q 1057 536 1078 617 l 1046 494 q 1010 325 1029 432 l 979 325 q 983 368 979 332 q 986 410 986 393 q 971 460 986 441 q 914 481 956 478 l 832 481 l 743 147 q 731 79 731 100 q 740 50 731 60 q 768 36 749 39 q 822 32 787 32 l 896 32 q 1006 55 963 32 q 1080 130 1049 78 q 1145 278 1112 182 l 1175 278 q 1146 178 1164 250 q 1109 0 1124 104 q 796 4 1015 4 q 313 0 473 4 l 318 28 q 393 39 368 30 q 433 71 418 47 q 461 147 448 95 l 550 481 l 331 481 l 41 131 q 2 65 2 85 q 87 28 2 35 l 87 0 q -32 4 50 4 q -125 0 -92 4 l -125 28 q -5 117 -82 30 l 655 916 q 630 945 651 937 q 562 956 609 954 l 570 983 q 708 981 613 982 l 785 1074 l 821 1074 l 744 981 q 1051 979 864 979 m 644 836 q 652 869 649 852 l 353 509 l 557 509 l 644 836 z "},"B":{"ha":986,"x_min":-66,"x_max":975,"o":"m 542 514 q 740 489 656 515 q 867 415 823 463 q 911 306 911 368 q 853 141 911 210 q 686 36 795 72 q 425 0 576 0 q 357 1 412 0 q 179 4 272 4 q -66 0 21 4 l -61 28 q 14 39 -11 30 q 54 71 39 47 q 82 147 68 95 l 265 836 q 277 903 277 882 q 257 942 277 930 q 183 956 237 954 l 191 983 q 432 979 276 979 q 564 981 494 979 q 639 982 616 982 q 975 794 975 982 q 924 657 975 720 q 775 556 873 595 q 542 514 677 518 m 625 956 q 593 947 605 956 q 571 919 581 939 q 551 857 562 898 l 463 522 l 484 522 q 603 567 553 522 q 677 684 652 612 q 703 838 703 756 q 686 925 703 894 q 625 956 670 956 m 408 32 q 514 76 467 32 q 589 189 562 119 q 616 334 616 259 q 586 452 616 406 q 484 498 555 498 l 457 498 l 364 147 q 353 84 353 106 q 408 32 353 32 z "},"C":{"ha":983,"x_min":52,"x_max":1067,"o":"m 1067 983 q 978 664 1021 863 l 947 664 q 961 784 961 744 q 937 885 961 845 q 875 946 911 929 q 785 964 838 964 q 580 873 675 964 q 428 632 485 783 q 371 310 371 481 q 419 101 371 170 q 553 33 467 33 q 649 55 600 33 q 733 114 698 76 q 797 201 770 153 q 859 334 824 250 l 889 334 q 807 0 823 93 l 777 0 q 781 47 781 30 q 763 83 781 83 q 734 71 752 83 q 457 -20 604 -20 q 151 73 250 -20 q 52 336 52 165 q 143 657 52 503 q 397 907 235 811 q 755 1003 558 1003 q 878 979 831 1003 q 961 913 925 955 q 981 901 971 901 q 1038 983 1007 901 l 1067 983 z "},"Ć":{"ha":983,"x_min":52,"x_max":1067,"o":"m 52 0 m 1067 983 q 978 664 1021 863 l 947 664 q 961 784 961 744 q 937 885 961 845 q 875 946 911 929 q 785 964 838 964 q 580 873 675 964 q 428 632 485 783 q 371 310 371 481 q 419 101 371 170 q 553 33 467 33 q 649 55 600 33 q 733 114 698 76 q 797 201 770 153 q 859 334 824 250 l 889 334 q 807 0 823 93 l 777 0 q 781 47 781 30 q 763 83 781 83 q 734 71 752 83 q 457 -20 604 -20 q 151 73 250 -20 q 52 336 52 165 q 143 657 52 503 q 397 907 235 811 q 755 1003 558 1003 q 878 979 831 1003 q 961 913 925 955 q 981 901 971 901 q 1038 983 1007 901 l 1067 983 m 619 1089 q 752 1221 679 1141 q 822 1291 797 1268 q 878 1331 847 1314 q 941 1347 907 1347 q 1027 1299 1001 1347 q 1038 1261 1038 1279 q 965 1169 1038 1211 q 905 1145 939 1155 q 815 1122 872 1135 q 629 1072 700 1095 l 619 1089 z "},"Č":{"ha":983,"x_min":52,"x_max":1139,"o":"m 52 0 m 1067 983 q 978 664 1021 863 l 947 664 q 961 784 961 744 q 937 885 961 845 q 875 946 911 929 q 785 964 838 964 q 580 873 675 964 q 428 632 485 783 q 371 310 371 481 q 419 101 371 170 q 553 33 467 33 q 649 55 600 33 q 733 114 698 76 q 797 201 770 153 q 859 334 824 250 l 889 334 q 807 0 823 93 l 777 0 q 781 47 781 30 q 763 83 781 83 q 734 71 752 83 q 457 -20 604 -20 q 151 73 250 -20 q 52 336 52 165 q 143 657 52 503 q 397 907 235 811 q 755 1003 558 1003 q 878 979 831 1003 q 961 913 925 955 q 981 901 971 901 q 1038 983 1007 901 l 1067 983 m 819 1239 q 1132 1314 956 1285 l 1139 1295 q 905 1191 1015 1255 q 729 1055 795 1126 l 704 1055 q 634 1196 677 1140 q 511 1295 591 1251 l 517 1314 q 685 1281 616 1298 q 819 1239 754 1263 z "},"Ç":{"ha":983,"x_min":52,"x_max":1067,"o":"m 1067 983 q 978 664 1021 863 l 947 664 q 961 784 961 744 q 937 885 961 845 q 875 946 911 929 q 785 964 838 964 q 580 873 675 964 q 428 632 485 783 q 371 310 371 481 q 419 101 371 170 q 553 33 467 33 q 649 55 600 33 q 733 114 698 76 q 797 201 770 153 q 859 334 824 250 l 889 334 q 807 0 823 93 l 777 0 q 781 47 781 30 q 763 83 781 83 q 734 71 752 83 q 476 -19 614 -14 l 450 -79 q 536 -62 492 -62 q 614 -81 585 -62 q 643 -136 643 -99 q 607 -208 643 -180 q 514 -248 571 -235 q 391 -261 456 -261 q 301 -253 345 -261 q 231 -236 258 -245 l 239 -214 q 289 -223 254 -218 q 351 -228 324 -228 q 465 -170 465 -228 q 427 -138 465 -138 q 383 -147 405 -138 l 439 -20 q 146 77 241 -15 q 52 336 52 168 q 143 657 52 503 q 397 907 235 811 q 755 1003 558 1003 q 878 979 831 1003 q 961 913 925 955 q 981 901 971 901 q 1038 983 1007 901 l 1067 983 z "},"Ĉ":{"ha":983,"x_min":52,"x_max":1067,"o":"m 52 0 m 1067 983 q 978 664 1021 863 l 947 664 q 961 784 961 744 q 937 885 961 845 q 875 946 911 929 q 785 964 838 964 q 580 873 675 964 q 428 632 485 783 q 371 310 371 481 q 419 101 371 170 q 553 33 467 33 q 649 55 600 33 q 733 114 698 76 q 797 201 770 153 q 859 334 824 250 l 889 334 q 807 0 823 93 l 777 0 q 781 47 781 30 q 763 83 781 83 q 734 71 752 83 q 457 -20 604 -20 q 151 73 250 -20 q 52 336 52 165 q 143 657 52 503 q 397 907 235 811 q 755 1003 558 1003 q 878 979 831 1003 q 961 913 925 955 q 981 901 971 901 q 1038 983 1007 901 l 1067 983 m 709 1145 q 397 1069 574 1099 l 390 1089 q 623 1192 513 1128 q 800 1328 732 1257 l 825 1328 q 896 1187 852 1242 q 1018 1089 939 1133 l 1013 1069 q 842 1103 911 1086 q 709 1145 773 1120 z "},"Ċ":{"ha":983,"x_min":52,"x_max":1067,"o":"m 52 0 m 1067 983 q 978 664 1021 863 l 947 664 q 961 784 961 744 q 937 885 961 845 q 875 946 911 929 q 785 964 838 964 q 580 873 675 964 q 428 632 485 783 q 371 310 371 481 q 419 101 371 170 q 553 33 467 33 q 649 55 600 33 q 733 114 698 76 q 797 201 770 153 q 859 334 824 250 l 889 334 q 807 0 823 93 l 777 0 q 781 47 781 30 q 763 83 781 83 q 734 71 752 83 q 457 -20 604 -20 q 151 73 250 -20 q 52 336 52 165 q 143 657 52 503 q 397 907 235 811 q 755 1003 558 1003 q 878 979 831 1003 q 961 913 925 955 q 981 901 971 901 q 1038 983 1007 901 l 1067 983 m 633 1147 q 680 1257 633 1219 q 802 1295 726 1295 q 926 1200 926 1295 q 904 1124 926 1157 q 842 1073 881 1091 q 755 1055 803 1055 q 664 1079 695 1055 q 633 1147 633 1103 z "},"D":{"ha":1114,"x_min":-60,"x_max":1099,"o":"m 1099 635 q 1026 339 1099 484 q 796 97 954 193 q 396 0 638 0 q 333 1 383 0 q 176 4 256 4 q -60 0 24 4 l -56 28 q 16 39 -8 30 q 55 72 40 47 q 83 147 70 96 l 265 836 q 274 890 274 869 q 254 937 274 920 q 184 956 234 953 l 189 983 q 405 979 300 979 l 456 979 q 661 983 572 983 q 984 895 869 983 q 1099 635 1099 807 m 407 25 q 622 126 529 25 q 763 381 714 228 q 812 685 812 535 q 636 958 812 958 q 593 951 606 958 q 572 926 580 945 q 552 857 565 907 l 547 839 l 366 144 q 349 62 349 81 q 361 33 349 41 q 407 25 374 25 z "},"Ð":{"ha":1114,"x_min":-60,"x_max":1099,"o":"m 661 983 q 984 895 869 983 q 1099 635 1099 807 q 1026 339 1099 484 q 796 97 954 193 q 396 0 638 0 q 333 1 383 0 q 176 4 256 4 q -60 0 24 4 l -56 28 q 16 39 -8 30 q 55 72 40 47 q 83 147 70 96 l 171 479 l 76 479 l 85 514 l 180 514 l 265 836 q 274 890 274 869 q 254 937 274 920 q 184 956 234 953 l 189 983 q 405 979 300 979 l 456 979 q 661 983 572 983 m 407 25 q 622 126 529 25 q 763 381 714 228 q 812 685 812 535 q 636 958 812 958 q 593 951 606 958 q 572 926 580 945 q 552 857 565 907 l 547 839 l 463 514 l 684 514 l 676 479 l 453 479 l 366 144 q 349 62 349 81 q 361 33 349 41 q 407 25 374 25 z "},"Ď":{"ha":1114,"x_min":-60,"x_max":1099,"o":"m 0 0 m 1099 635 q 1026 339 1099 484 q 796 97 954 193 q 396 0 638 0 q 333 1 383 0 q 176 4 256 4 q -60 0 24 4 l -56 28 q 16 39 -8 30 q 55 72 40 47 q 83 147 70 96 l 265 836 q 274 890 274 869 q 254 937 274 920 q 184 956 234 953 l 189 983 q 405 979 300 979 l 456 979 q 661 983 572 983 q 984 895 869 983 q 1099 635 1099 807 m 407 25 q 622 126 529 25 q 763 381 714 228 q 812 685 812 535 q 636 958 812 958 q 593 951 606 958 q 572 926 580 945 q 552 857 565 907 l 547 839 l 366 144 q 349 62 349 81 q 361 33 349 41 q 407 25 374 25 m 764 1239 q 1076 1314 901 1285 l 1083 1295 q 849 1191 959 1255 q 673 1055 740 1126 l 648 1055 q 578 1196 621 1140 q 456 1295 535 1251 l 461 1314 q 630 1281 561 1298 q 764 1239 699 1263 z "},"Đ":{"ha":1114,"x_min":-60,"x_max":1099,"o":"m 0 0 m 661 983 q 984 895 869 983 q 1099 635 1099 807 q 1026 339 1099 484 q 796 97 954 193 q 396 0 638 0 q 333 1 383 0 q 176 4 256 4 q -60 0 24 4 l -56 28 q 16 39 -8 30 q 55 72 40 47 q 83 147 70 96 l 171 479 l 76 479 l 85 514 l 180 514 l 265 836 q 274 890 274 869 q 254 937 274 920 q 184 956 234 953 l 189 983 q 405 979 300 979 l 456 979 q 661 983 572 983 m 407 25 q 622 126 529 25 q 763 381 714 228 q 812 685 812 535 q 636 958 812 958 q 593 951 606 958 q 572 926 580 945 q 552 857 565 907 l 547 839 l 463 514 l 684 514 l 676 479 l 453 479 l 366 144 q 349 62 349 81 q 361 33 349 41 q 407 25 374 25 z "},"E":{"ha":885,"x_min":-66,"x_max":960,"o":"m 672 979 q 960 983 872 979 q 907 819 926 896 q 889 733 899 788 l 859 733 q 841 862 859 814 q 785 931 822 910 q 690 951 748 951 l 686 951 q 614 943 638 951 q 575 912 590 935 q 547 836 561 888 l 460 509 l 485 509 q 568 530 528 509 q 638 587 608 551 q 684 664 668 623 l 714 664 q 677 536 699 617 l 667 494 q 631 325 648 425 l 600 325 q 587 397 600 361 q 544 457 574 433 q 465 481 514 481 l 453 481 l 364 147 q 352 79 352 100 q 361 50 352 60 q 389 36 370 39 q 443 32 408 32 l 461 32 q 580 55 529 32 q 675 132 631 79 q 765 278 720 185 l 796 278 q 766 178 787 254 q 730 0 745 98 q 416 4 636 4 q -66 0 94 4 l -61 28 q 14 39 -11 30 q 54 71 39 47 q 82 147 68 95 l 265 836 q 277 903 277 880 q 268 935 277 924 q 239 950 258 945 q 183 956 219 954 l 191 983 q 672 979 350 979 z "},"É":{"ha":885,"x_min":-66,"x_max":960,"o":"m 0 0 m 672 979 q 960 983 872 979 q 907 819 926 896 q 889 733 899 788 l 859 733 q 841 862 859 814 q 785 931 822 910 q 690 951 748 951 l 686 951 q 614 943 638 951 q 575 912 590 935 q 547 836 561 888 l 460 509 l 485 509 q 568 530 528 509 q 638 587 608 551 q 684 664 668 623 l 714 664 q 677 536 699 617 l 667 494 q 631 325 648 425 l 600 325 q 587 397 600 361 q 544 457 574 433 q 465 481 514 481 l 453 481 l 364 147 q 352 79 352 100 q 361 50 352 60 q 389 36 370 39 q 443 32 408 32 l 461 32 q 580 55 529 32 q 675 132 631 79 q 765 278 720 185 l 796 278 q 766 178 787 254 q 730 0 745 98 q 416 4 636 4 q -66 0 94 4 l -61 28 q 14 39 -11 30 q 54 71 39 47 q 82 147 68 95 l 265 836 q 277 903 277 880 q 268 935 277 924 q 239 950 258 945 q 183 956 219 954 l 191 983 q 672 979 350 979 m 510 1089 q 643 1221 570 1141 q 713 1291 688 1268 q 768 1331 738 1314 q 832 1347 798 1347 q 918 1299 892 1347 q 928 1261 928 1279 q 856 1169 928 1211 q 796 1145 829 1155 q 706 1122 763 1135 q 519 1072 591 1095 l 510 1089 z "},"Ĕ":{"ha":885,"x_min":-66,"x_max":964,"o":"m 0 0 m 672 979 q 960 983 872 979 q 907 819 926 896 q 889 733 899 788 l 859 733 q 841 862 859 814 q 785 931 822 910 q 690 951 748 951 l 686 951 q 614 943 638 951 q 575 912 590 935 q 547 836 561 888 l 460 509 l 485 509 q 568 530 528 509 q 638 587 608 551 q 684 664 668 623 l 714 664 q 677 536 699 617 l 667 494 q 631 325 648 425 l 600 325 q 587 397 600 361 q 544 457 574 433 q 465 481 514 481 l 453 481 l 364 147 q 352 79 352 100 q 361 50 352 60 q 389 36 370 39 q 443 32 408 32 l 461 32 q 580 55 529 32 q 675 132 631 79 q 765 278 720 185 l 796 278 q 766 178 787 254 q 730 0 745 98 q 416 4 636 4 q -66 0 94 4 l -61 28 q 14 39 -11 30 q 54 71 39 47 q 82 147 68 95 l 265 836 q 277 903 277 880 q 268 935 277 924 q 239 950 258 945 q 183 956 219 954 l 191 983 q 672 979 350 979 m 624 1225 q 802 1244 724 1225 q 947 1303 880 1263 l 964 1291 q 869 1176 927 1229 q 739 1092 810 1124 q 595 1060 668 1060 q 442 1122 498 1060 q 367 1286 385 1185 l 388 1297 q 486 1242 432 1259 q 624 1225 541 1225 z "},"Ě":{"ha":885,"x_min":-66,"x_max":1029,"o":"m 0 0 m 672 979 q 960 983 872 979 q 907 819 926 896 q 889 733 899 788 l 859 733 q 841 862 859 814 q 785 931 822 910 q 690 951 748 951 l 686 951 q 614 943 638 951 q 575 912 590 935 q 547 836 561 888 l 460 509 l 485 509 q 568 530 528 509 q 638 587 608 551 q 684 664 668 623 l 714 664 q 677 536 699 617 l 667 494 q 631 325 648 425 l 600 325 q 587 397 600 361 q 544 457 574 433 q 465 481 514 481 l 453 481 l 364 147 q 352 79 352 100 q 361 50 352 60 q 389 36 370 39 q 443 32 408 32 l 461 32 q 580 55 529 32 q 675 132 631 79 q 765 278 720 185 l 796 278 q 766 178 787 254 q 730 0 745 98 q 416 4 636 4 q -66 0 94 4 l -61 28 q 14 39 -11 30 q 54 71 39 47 q 82 147 68 95 l 265 836 q 277 903 277 880 q 268 935 277 924 q 239 950 258 945 q 183 956 219 954 l 191 983 q 672 979 350 979 m 710 1239 q 1023 1314 847 1285 l 1029 1295 q 796 1191 905 1255 q 620 1055 686 1126 l 595 1055 q 525 1196 568 1140 q 402 1295 481 1251 l 408 1314 q 576 1281 507 1298 q 710 1239 645 1263 z "},"Ê":{"ha":885,"x_min":-66,"x_max":960,"o":"m 0 0 m 672 979 q 960 983 872 979 q 907 819 926 896 q 889 733 899 788 l 859 733 q 841 862 859 814 q 785 931 822 910 q 690 951 748 951 l 686 951 q 614 943 638 951 q 575 912 590 935 q 547 836 561 888 l 460 509 l 485 509 q 568 530 528 509 q 638 587 608 551 q 684 664 668 623 l 714 664 q 677 536 699 617 l 667 494 q 631 325 648 425 l 600 325 q 587 397 600 361 q 544 457 574 433 q 465 481 514 481 l 453 481 l 364 147 q 352 79 352 100 q 361 50 352 60 q 389 36 370 39 q 443 32 408 32 l 461 32 q 580 55 529 32 q 675 132 631 79 q 765 278 720 185 l 796 278 q 766 178 787 254 q 730 0 745 98 q 416 4 636 4 q -66 0 94 4 l -61 28 q 14 39 -11 30 q 54 71 39 47 q 82 147 68 95 l 265 836 q 277 903 277 880 q 268 935 277 924 q 239 950 258 945 q 183 956 219 954 l 191 983 q 672 979 350 979 m 600 1145 q 288 1069 465 1099 l 281 1089 q 514 1192 404 1128 q 690 1328 623 1257 l 715 1328 q 786 1187 743 1242 q 909 1089 829 1133 l 903 1069 q 733 1103 802 1086 q 600 1145 664 1120 z "},"Ë":{"ha":885,"x_min":-66,"x_max":960,"o":"m 0 0 m 672 979 q 960 983 872 979 q 907 819 926 896 q 889 733 899 788 l 859 733 q 841 862 859 814 q 785 931 822 910 q 690 951 748 951 l 686 951 q 614 943 638 951 q 575 912 590 935 q 547 836 561 888 l 460 509 l 485 509 q 568 530 528 509 q 638 587 608 551 q 684 664 668 623 l 714 664 q 677 536 699 617 l 667 494 q 631 325 648 425 l 600 325 q 587 397 600 361 q 544 457 574 433 q 465 481 514 481 l 453 481 l 364 147 q 352 79 352 100 q 361 50 352 60 q 389 36 370 39 q 443 32 408 32 l 461 32 q 580 55 529 32 q 675 132 631 79 q 765 278 720 185 l 796 278 q 766 178 787 254 q 730 0 745 98 q 416 4 636 4 q -66 0 94 4 l -61 28 q 14 39 -11 30 q 54 71 39 47 q 82 147 68 95 l 265 836 q 277 903 277 880 q 268 935 277 924 q 239 950 258 945 q 183 956 219 954 l 191 983 q 672 979 350 979 m 313 1164 q 332 1240 313 1210 q 382 1285 351 1271 q 450 1300 413 1300 q 529 1271 503 1300 q 555 1192 555 1242 q 535 1116 555 1146 q 484 1073 515 1086 q 416 1059 452 1059 q 338 1086 363 1059 q 313 1164 313 1114 m 671 1164 q 690 1240 671 1210 q 740 1285 709 1271 q 808 1300 771 1300 q 887 1271 861 1300 q 913 1192 913 1242 q 893 1116 913 1146 q 842 1073 873 1086 q 774 1059 810 1059 q 696 1086 721 1059 q 671 1164 671 1114 z "},"Ė":{"ha":885,"x_min":-66,"x_max":960,"o":"m 0 0 m 672 979 q 960 983 872 979 q 907 819 926 896 q 889 733 899 788 l 859 733 q 841 862 859 814 q 785 931 822 910 q 690 951 748 951 l 686 951 q 614 943 638 951 q 575 912 590 935 q 547 836 561 888 l 460 509 l 485 509 q 568 530 528 509 q 638 587 608 551 q 684 664 668 623 l 714 664 q 677 536 699 617 l 667 494 q 631 325 648 425 l 600 325 q 587 397 600 361 q 544 457 574 433 q 465 481 514 481 l 453 481 l 364 147 q 352 79 352 100 q 361 50 352 60 q 389 36 370 39 q 443 32 408 32 l 461 32 q 580 55 529 32 q 675 132 631 79 q 765 278 720 185 l 796 278 q 766 178 787 254 q 730 0 745 98 q 416 4 636 4 q -66 0 94 4 l -61 28 q 14 39 -11 30 q 54 71 39 47 q 82 147 68 95 l 265 836 q 277 903 277 880 q 268 935 277 924 q 239 950 258 945 q 183 956 219 954 l 191 983 q 672 979 350 979 m 469 1147 q 515 1257 469 1219 q 637 1295 562 1295 q 762 1200 762 1295 q 739 1124 762 1157 q 677 1073 716 1091 q 591 1055 638 1055 q 499 1079 530 1055 q 469 1147 469 1103 z "},"È":{"ha":885,"x_min":-66,"x_max":960,"o":"m 0 0 m 672 979 q 960 983 872 979 q 907 819 926 896 q 889 733 899 788 l 859 733 q 841 862 859 814 q 785 931 822 910 q 690 951 748 951 l 686 951 q 614 943 638 951 q 575 912 590 935 q 547 836 561 888 l 460 509 l 485 509 q 568 530 528 509 q 638 587 608 551 q 684 664 668 623 l 714 664 q 677 536 699 617 l 667 494 q 631 325 648 425 l 600 325 q 587 397 600 361 q 544 457 574 433 q 465 481 514 481 l 453 481 l 364 147 q 352 79 352 100 q 361 50 352 60 q 389 36 370 39 q 443 32 408 32 l 461 32 q 580 55 529 32 q 675 132 631 79 q 765 278 720 185 l 796 278 q 766 178 787 254 q 730 0 745 98 q 416 4 636 4 q -66 0 94 4 l -61 28 q 14 39 -11 30 q 54 71 39 47 q 82 147 68 95 l 265 836 q 277 903 277 880 q 268 935 277 924 q 239 950 258 945 q 183 956 219 954 l 191 983 q 672 979 350 979 m 678 1072 q 493 1114 597 1097 q 429 1126 452 1120 q 384 1143 405 1132 q 344 1178 359 1156 q 329 1226 329 1200 q 338 1263 329 1245 q 374 1301 350 1288 q 425 1314 398 1314 q 469 1304 449 1314 q 510 1277 492 1293 q 555 1226 528 1260 q 688 1089 623 1145 l 678 1072 z "},"Ē":{"ha":885,"x_min":-66,"x_max":960,"o":"m 0 0 m 672 979 q 960 983 872 979 q 907 819 926 896 q 889 733 899 788 l 859 733 q 841 862 859 814 q 785 931 822 910 q 690 951 748 951 l 686 951 q 614 943 638 951 q 575 912 590 935 q 547 836 561 888 l 460 509 l 485 509 q 568 530 528 509 q 638 587 608 551 q 684 664 668 623 l 714 664 q 677 536 699 617 l 667 494 q 631 325 648 425 l 600 325 q 587 397 600 361 q 544 457 574 433 q 465 481 514 481 l 453 481 l 364 147 q 352 79 352 100 q 361 50 352 60 q 389 36 370 39 q 443 32 408 32 l 461 32 q 580 55 529 32 q 675 132 631 79 q 765 278 720 185 l 796 278 q 766 178 787 254 q 730 0 745 98 q 416 4 636 4 q -66 0 94 4 l -61 28 q 14 39 -11 30 q 54 71 39 47 q 82 147 68 95 l 265 836 q 277 903 277 880 q 268 935 277 924 q 239 950 258 945 q 183 956 219 954 l 191 983 q 672 979 350 979 m 294 1137 l 303 1173 l 903 1173 l 895 1137 l 294 1137 z "},"Ę":{"ha":885,"x_min":-66,"x_max":960,"o":"m 672 979 q 960 983 872 979 q 907 819 926 896 q 889 733 899 788 l 859 733 q 841 862 859 814 q 785 931 822 910 q 690 951 748 951 l 686 951 q 614 943 638 951 q 575 912 590 935 q 547 836 561 888 l 460 509 l 485 509 q 568 530 528 509 q 638 587 608 551 q 684 664 668 623 l 714 664 q 677 536 699 617 l 667 494 q 631 325 648 425 l 600 325 q 587 397 600 361 q 544 457 574 433 q 465 481 514 481 l 453 481 l 364 147 q 352 79 352 100 q 361 50 352 60 q 389 36 370 39 q 443 32 408 32 l 461 32 q 580 55 529 32 q 675 132 631 79 q 765 278 720 185 l 796 278 q 766 178 787 254 q 730 0 745 98 l 719 1 q 650 -44 678 -18 q 607 -99 621 -71 q 593 -154 593 -128 q 633 -191 593 -191 q 732 -164 675 -191 l 747 -187 q 530 -261 642 -261 q 437 -239 471 -261 q 403 -176 403 -216 q 484 -72 403 -117 q 691 1 565 -27 q 416 4 603 4 q -66 0 94 4 l -61 28 q 14 39 -11 30 q 54 71 39 47 q 82 147 68 95 l 265 836 q 277 903 277 880 q 268 935 277 924 q 239 950 258 945 q 183 956 219 954 l 191 983 q 672 979 350 979 z "},"F":{"ha":838,"x_min":-66,"x_max":960,"o":"m 672 979 q 960 983 872 979 q 907 819 932 910 q 875 692 882 731 l 844 692 q 846 741 846 718 q 802 903 846 854 q 676 951 757 951 l 672 951 q 607 943 629 951 q 572 912 585 935 q 547 836 559 888 l 460 509 l 498 509 q 613 550 561 509 q 697 664 665 592 l 728 664 q 681 494 702 586 q 637 283 664 427 l 607 283 q 574 430 607 379 q 479 481 541 481 l 453 481 l 364 147 q 354 85 354 109 q 366 51 354 62 q 402 34 377 39 q 473 28 427 29 l 468 0 q 192 4 374 4 q -66 0 17 4 l -61 28 q 14 39 -11 30 q 54 71 39 47 q 82 147 68 95 l 265 836 q 277 903 277 880 q 268 935 277 924 q 239 950 258 945 q 183 956 219 954 l 191 983 q 672 979 350 979 z "},"G":{"ha":1057,"x_min":41,"x_max":1084,"o":"m 494 8 q 567 28 541 8 q 595 63 586 41 q 619 139 605 85 l 652 261 q 664 333 664 307 q 652 370 664 357 q 617 388 641 382 q 547 395 593 393 l 554 422 q 818 418 642 418 q 1047 422 977 418 l 1040 395 q 991 384 1007 392 q 963 352 975 375 q 937 275 951 329 l 864 0 l 836 0 q 823 61 837 42 q 782 79 810 79 q 728 69 755 79 q 659 38 700 58 q 623 21 634 26 q 444 -20 535 -20 q 229 18 319 -20 q 90 126 138 55 q 41 298 41 198 q 133 624 41 459 q 386 896 224 788 q 747 1003 547 1003 q 846 991 804 1003 q 916 961 887 980 q 975 913 945 942 q 999 900 988 900 q 1054 983 1025 900 l 1084 983 q 996 664 1039 861 l 965 664 q 972 768 972 720 q 968 824 972 801 q 953 869 964 846 q 872 950 926 922 q 739 978 818 978 q 518 857 613 978 q 374 565 424 736 q 323 253 323 394 q 366 68 323 129 q 494 8 408 8 z "},"Ǵ":{"ha":1057,"x_min":41,"x_max":1084,"o":"m 41 0 m 494 8 q 567 28 541 8 q 595 63 586 41 q 619 139 605 85 l 652 261 q 664 333 664 307 q 652 370 664 357 q 617 388 641 382 q 547 395 593 393 l 554 422 q 818 418 642 418 q 1047 422 977 418 l 1040 395 q 991 384 1007 392 q 963 352 975 375 q 937 275 951 329 l 864 0 l 836 0 q 823 61 837 42 q 782 79 810 79 q 728 69 755 79 q 659 38 700 58 q 623 21 634 26 q 444 -20 535 -20 q 229 18 319 -20 q 90 126 138 55 q 41 298 41 198 q 133 624 41 459 q 386 896 224 788 q 747 1003 547 1003 q 846 991 804 1003 q 916 961 887 980 q 975 913 945 942 q 999 900 988 900 q 1054 983 1025 900 l 1084 983 q 996 664 1039 861 l 965 664 q 972 768 972 720 q 968 824 972 801 q 953 869 964 846 q 872 950 926 922 q 739 978 818 978 q 518 857 613 978 q 374 565 424 736 q 323 253 323 394 q 366 68 323 129 q 494 8 408 8 m 648 1089 q 781 1221 708 1141 q 851 1291 826 1268 q 907 1331 876 1314 q 970 1347 936 1347 q 1057 1299 1030 1347 q 1067 1261 1067 1279 q 994 1169 1067 1211 q 935 1145 968 1155 q 844 1122 901 1135 q 658 1072 729 1095 l 648 1089 z "},"Ğ":{"ha":1057,"x_min":41,"x_max":1103,"o":"m 41 0 m 494 8 q 567 28 541 8 q 595 63 586 41 q 619 139 605 85 l 652 261 q 664 333 664 307 q 652 370 664 357 q 617 388 641 382 q 547 395 593 393 l 554 422 q 818 418 642 418 q 1047 422 977 418 l 1040 395 q 991 384 1007 392 q 963 352 975 375 q 937 275 951 329 l 864 0 l 836 0 q 823 61 837 42 q 782 79 810 79 q 728 69 755 79 q 659 38 700 58 q 623 21 634 26 q 444 -20 535 -20 q 229 18 319 -20 q 90 126 138 55 q 41 298 41 198 q 133 624 41 459 q 386 896 224 788 q 747 1003 547 1003 q 846 991 804 1003 q 916 961 887 980 q 975 913 945 942 q 999 900 988 900 q 1054 983 1025 900 l 1084 983 q 996 664 1039 861 l 965 664 q 972 768 972 720 q 968 824 972 801 q 953 869 964 846 q 872 950 926 922 q 739 978 818 978 q 518 857 613 978 q 374 565 424 736 q 323 253 323 394 q 366 68 323 129 q 494 8 408 8 m 762 1225 q 940 1244 862 1225 q 1086 1303 1019 1263 l 1103 1291 q 1007 1176 1065 1229 q 878 1092 949 1124 q 733 1060 806 1060 q 580 1122 637 1060 q 505 1286 524 1185 l 526 1297 q 625 1242 570 1259 q 762 1225 679 1225 z "},"Ĝ":{"ha":1057,"x_min":41,"x_max":1084,"o":"m 41 0 m 494 8 q 567 28 541 8 q 595 63 586 41 q 619 139 605 85 l 652 261 q 664 333 664 307 q 652 370 664 357 q 617 388 641 382 q 547 395 593 393 l 554 422 q 818 418 642 418 q 1047 422 977 418 l 1040 395 q 991 384 1007 392 q 963 352 975 375 q 937 275 951 329 l 864 0 l 836 0 q 823 61 837 42 q 782 79 810 79 q 728 69 755 79 q 659 38 700 58 q 623 21 634 26 q 444 -20 535 -20 q 229 18 319 -20 q 90 126 138 55 q 41 298 41 198 q 133 624 41 459 q 386 896 224 788 q 747 1003 547 1003 q 846 991 804 1003 q 916 961 887 980 q 975 913 945 942 q 999 900 988 900 q 1054 983 1025 900 l 1084 983 q 996 664 1039 861 l 965 664 q 972 768 972 720 q 968 824 972 801 q 953 869 964 846 q 872 950 926 922 q 739 978 818 978 q 518 857 613 978 q 374 565 424 736 q 323 253 323 394 q 366 68 323 129 q 494 8 408 8 m 739 1145 q 427 1069 603 1099 l 419 1089 q 652 1192 543 1128 q 829 1328 762 1257 l 854 1328 q 925 1187 882 1242 q 1047 1089 968 1133 l 1042 1069 q 871 1103 940 1086 q 739 1145 802 1120 z "},"Ģ":{"ha":1057,"x_min":41,"x_max":1084,"o":"m 41 0 m 494 8 q 567 28 541 8 q 595 63 586 41 q 619 139 605 85 l 652 261 q 664 333 664 307 q 652 370 664 357 q 617 388 641 382 q 547 395 593 393 l 554 422 q 818 418 642 418 q 1047 422 977 418 l 1040 395 q 991 384 1007 392 q 963 352 975 375 q 937 275 951 329 l 864 0 l 836 0 q 823 61 837 42 q 782 79 810 79 q 728 69 755 79 q 659 38 700 58 q 623 21 634 26 q 444 -20 535 -20 q 229 18 319 -20 q 90 126 138 55 q 41 298 41 198 q 133 624 41 459 q 386 896 224 788 q 747 1003 547 1003 q 846 991 804 1003 q 916 961 887 980 q 975 913 945 942 q 999 900 988 900 q 1054 983 1025 900 l 1084 983 q 996 664 1039 861 l 965 664 q 972 768 972 720 q 968 824 972 801 q 953 869 964 846 q 872 950 926 922 q 739 978 818 978 q 518 857 613 978 q 374 565 424 736 q 323 253 323 394 q 366 68 323 129 q 494 8 408 8 m 338 -182 q 358 -117 338 -145 q 412 -74 378 -90 q 486 -58 446 -58 q 562 -80 530 -58 q 593 -147 593 -102 q 564 -244 593 -202 q 483 -310 535 -286 q 366 -335 431 -334 l 366 -306 q 474 -285 431 -305 q 528 -231 517 -264 q 435 -256 489 -256 q 338 -182 338 -256 z "},"Ġ":{"ha":1057,"x_min":41,"x_max":1084,"o":"m 41 0 m 494 8 q 567 28 541 8 q 595 63 586 41 q 619 139 605 85 l 652 261 q 664 333 664 307 q 652 370 664 357 q 617 388 641 382 q 547 395 593 393 l 554 422 q 818 418 642 418 q 1047 422 977 418 l 1040 395 q 991 384 1007 392 q 963 352 975 375 q 937 275 951 329 l 864 0 l 836 0 q 823 61 837 42 q 782 79 810 79 q 728 69 755 79 q 659 38 700 58 q 623 21 634 26 q 444 -20 535 -20 q 229 18 319 -20 q 90 126 138 55 q 41 298 41 198 q 133 624 41 459 q 386 896 224 788 q 747 1003 547 1003 q 846 991 804 1003 q 916 961 887 980 q 975 913 945 942 q 999 900 988 900 q 1054 983 1025 900 l 1084 983 q 996 664 1039 861 l 965 664 q 972 768 972 720 q 968 824 972 801 q 953 869 964 846 q 872 950 926 922 q 739 978 818 978 q 518 857 613 978 q 374 565 424 736 q 323 253 323 394 q 366 68 323 129 q 494 8 408 8 m 632 1147 q 679 1257 632 1219 q 801 1295 725 1295 q 925 1200 925 1295 q 902 1124 925 1157 q 841 1073 880 1091 q 754 1055 802 1055 q 663 1079 694 1055 q 632 1147 632 1103 z "},"H":{"ha":1175,"x_min":-65,"x_max":1286,"o":"m 1023 979 q 1286 983 1200 979 l 1279 956 q 1203 945 1228 954 q 1164 912 1179 936 q 1136 836 1149 888 l 953 147 q 941 79 941 100 q 950 48 941 59 q 979 34 959 38 q 1035 28 998 29 l 1029 0 q 768 4 946 4 q 522 0 608 4 l 528 28 q 603 39 578 30 q 643 71 628 47 q 671 147 657 95 l 760 481 l 453 481 l 364 147 q 352 79 352 100 q 361 48 352 59 q 390 34 370 38 q 446 28 410 29 l 440 0 q 195 4 355 4 q -65 0 20 4 l -58 28 q 14 39 -10 30 q 54 72 39 47 q 82 147 68 96 l 265 836 q 277 903 277 880 q 268 935 277 924 q 239 950 258 945 q 183 956 219 954 l 191 983 q 450 979 271 979 q 697 983 600 979 l 690 956 q 615 945 640 954 q 575 912 590 936 q 547 836 561 888 l 460 509 l 767 509 l 854 836 q 866 903 866 880 q 857 935 866 924 q 828 950 847 945 q 772 956 808 954 l 779 983 q 1023 979 863 979 z "},"Ħ":{"ha":1175,"x_min":-64,"x_max":1287,"o":"m 1280 956 q 1205 945 1230 954 q 1165 912 1180 936 q 1137 836 1151 888 l 1112 741 l 1234 741 l 1226 713 l 1105 713 l 954 147 q 942 79 942 100 q 951 48 942 59 q 980 34 960 38 q 1036 28 1000 29 l 1031 0 q 770 4 947 4 q 524 0 609 4 l 529 28 q 604 39 579 30 q 644 71 629 47 q 672 147 659 95 l 761 481 l 454 481 l 366 147 q 353 79 353 100 q 362 48 353 59 q 391 34 372 38 q 447 28 411 29 l 441 0 q 196 4 356 4 q -64 0 22 4 l -57 28 q 16 39 -9 30 q 55 72 40 47 q 83 147 70 96 l 234 713 l 111 713 l 118 741 l 241 741 l 267 836 q 278 903 278 880 q 269 935 278 924 q 240 950 260 945 q 184 956 220 954 l 192 983 q 452 979 273 979 q 699 983 601 979 l 692 956 q 616 945 641 954 q 577 912 591 936 q 549 836 562 888 l 524 741 l 830 741 l 856 836 q 867 903 867 880 q 858 935 867 924 q 829 950 848 945 q 774 956 810 954 l 781 983 q 1025 979 864 979 q 1287 983 1202 979 l 1280 956 m 516 713 l 462 509 l 768 509 l 823 713 l 516 713 z "},"Ĥ":{"ha":1175,"x_min":-65,"x_max":1286,"o":"m 0 0 m 1023 979 q 1286 983 1200 979 l 1279 956 q 1203 945 1228 954 q 1164 912 1179 936 q 1136 836 1149 888 l 953 147 q 941 79 941 100 q 950 48 941 59 q 979 34 959 38 q 1035 28 998 29 l 1029 0 q 768 4 946 4 q 522 0 608 4 l 528 28 q 603 39 578 30 q 643 71 628 47 q 671 147 657 95 l 760 481 l 453 481 l 364 147 q 352 79 352 100 q 361 48 352 59 q 390 34 370 38 q 446 28 410 29 l 440 0 q 195 4 355 4 q -65 0 20 4 l -58 28 q 14 39 -10 30 q 54 72 39 47 q 82 147 68 96 l 265 836 q 277 903 277 880 q 268 935 277 924 q 239 950 258 945 q 183 956 219 954 l 191 983 q 450 979 271 979 q 697 983 600 979 l 690 956 q 615 945 640 954 q 575 912 590 936 q 547 836 561 888 l 460 509 l 767 509 l 854 836 q 866 903 866 880 q 857 935 866 924 q 828 950 847 945 q 772 956 808 954 l 779 983 q 1023 979 863 979 m 746 1145 q 434 1069 610 1099 l 427 1089 q 660 1192 550 1128 q 836 1328 769 1257 l 861 1328 q 932 1187 889 1242 q 1055 1089 975 1133 l 1049 1069 q 879 1103 947 1086 q 746 1145 810 1120 z "},"I":{"ha":586,"x_min":-65,"x_max":697,"o":"m 364 147 q 352 79 352 100 q 361 48 352 59 q 390 34 370 38 q 446 28 410 29 l 440 0 q 180 4 351 4 q -65 0 16 4 l -58 28 q 14 39 -10 30 q 54 72 39 47 q 82 147 68 96 l 265 836 q 277 903 277 880 q 268 935 277 924 q 239 950 258 945 q 183 956 219 954 l 191 983 q 436 979 267 979 q 697 983 593 979 l 690 956 q 615 945 640 954 q 575 912 590 936 q 547 836 561 888 l 364 147 z "},"Ĳ":{"ha":1221,"x_min":0,"x_max":1362,"o":"m 1353 1014 q 1362 997 1362 1006 q 1260 925 1362 963 q 1141 759 1189 861 q 1053 509 1094 658 l 1192 509 l 1187 481 l 1045 481 l 1031 427 l 945 90 q 791 -165 904 -68 q 476 -261 679 -261 q 310 -232 372 -261 q 248 -138 248 -203 q 285 -50 248 -83 q 392 -17 323 -17 q 492 -43 453 -17 q 532 -118 532 -69 q 441 -235 532 -197 q 473 -237 456 -237 q 542 -211 514 -237 q 591 -130 569 -184 q 642 28 612 -75 l 737 364 q 779 481 755 425 l 589 481 l 593 509 l 792 509 q 895 663 835 595 q 1026 783 954 730 q 1206 903 1099 837 q 1103 870 1148 888 q 1000 825 1058 852 q 911 787 947 801 q 830 763 875 772 q 732 754 785 754 q 644 762 686 754 q 541 787 601 770 q 440 810 480 802 q 358 818 401 818 q 258 747 258 818 q 306 670 258 699 q 450 642 353 642 q 577 653 530 642 q 681 690 625 665 l 690 665 q 578 624 625 635 l 429 147 q 415 79 415 104 q 436 40 415 51 q 511 28 458 30 l 505 0 q 245 4 416 4 q 0 0 81 4 l 7 28 q 78 39 54 30 q 116 72 101 48 q 147 147 130 95 l 298 630 q 176 705 220 654 q 132 832 132 755 q 162 934 132 890 q 252 1002 192 978 q 399 1026 311 1026 q 507 1017 458 1026 q 595 993 557 1007 q 686 957 634 979 q 772 922 736 935 q 852 901 807 909 q 950 892 897 892 q 1103 903 1021 892 q 1247 940 1185 915 q 1334 1021 1299 1021 q 1353 1014 1343 1021 z "},"Í":{"ha":586,"x_min":-65,"x_max":812,"o":"m 0 0 m 364 147 q 352 79 352 100 q 361 48 352 59 q 390 34 370 38 q 446 28 410 29 l 440 0 q 180 4 351 4 q -65 0 16 4 l -58 28 q 14 39 -10 30 q 54 72 39 47 q 82 147 68 96 l 265 836 q 277 903 277 880 q 268 935 277 924 q 239 950 258 945 q 183 956 219 954 l 191 983 q 436 979 267 979 q 697 983 593 979 l 690 956 q 615 945 640 954 q 575 912 590 936 q 547 836 561 888 l 364 147 m 393 1089 q 526 1221 453 1141 q 596 1291 571 1268 q 652 1331 621 1314 q 715 1347 681 1347 q 802 1299 775 1347 q 812 1261 812 1279 q 739 1169 812 1211 q 680 1145 713 1155 q 589 1122 646 1135 q 403 1072 474 1095 l 393 1089 z "},"Ĭ":{"ha":586,"x_min":-65,"x_max":848,"o":"m 0 0 m 364 147 q 352 79 352 100 q 361 48 352 59 q 390 34 370 38 q 446 28 410 29 l 440 0 q 180 4 351 4 q -65 0 16 4 l -58 28 q 14 39 -10 30 q 54 72 39 47 q 82 147 68 96 l 265 836 q 277 903 277 880 q 268 935 277 924 q 239 950 258 945 q 183 956 219 954 l 191 983 q 436 979 267 979 q 697 983 593 979 l 690 956 q 615 945 640 954 q 575 912 590 936 q 547 836 561 888 l 364 147 m 507 1225 q 685 1244 607 1225 q 831 1303 764 1263 l 848 1291 q 752 1176 810 1229 q 623 1092 694 1124 q 478 1060 551 1060 q 325 1122 382 1060 q 250 1286 269 1185 l 271 1297 q 370 1242 315 1259 q 507 1225 424 1225 z "},"Î":{"ha":586,"x_min":-65,"x_max":792,"o":"m 0 0 m 364 147 q 352 79 352 100 q 361 48 352 59 q 390 34 370 38 q 446 28 410 29 l 440 0 q 180 4 351 4 q -65 0 16 4 l -58 28 q 14 39 -10 30 q 54 72 39 47 q 82 147 68 96 l 265 836 q 277 903 277 880 q 268 935 277 924 q 239 950 258 945 q 183 956 219 954 l 191 983 q 436 979 267 979 q 697 983 593 979 l 690 956 q 615 945 640 954 q 575 912 590 936 q 547 836 561 888 l 364 147 m 484 1145 q 172 1069 348 1099 l 164 1089 q 397 1192 288 1128 q 574 1328 507 1257 l 599 1328 q 670 1187 627 1242 q 792 1089 713 1133 l 787 1069 q 616 1103 685 1086 q 484 1145 547 1120 z "},"Ï":{"ha":586,"x_min":-65,"x_max":796,"o":"m 0 0 m 364 147 q 352 79 352 100 q 361 48 352 59 q 390 34 370 38 q 446 28 410 29 l 440 0 q 180 4 351 4 q -65 0 16 4 l -58 28 q 14 39 -10 30 q 54 72 39 47 q 82 147 68 96 l 265 836 q 277 903 277 880 q 268 935 277 924 q 239 950 258 945 q 183 956 219 954 l 191 983 q 436 979 267 979 q 697 983 593 979 l 690 956 q 615 945 640 954 q 575 912 590 936 q 547 836 561 888 l 364 147 m 196 1164 q 215 1240 196 1210 q 265 1285 234 1271 q 334 1300 296 1300 q 412 1271 387 1300 q 438 1192 438 1242 q 418 1116 438 1146 q 367 1073 399 1086 q 299 1059 335 1059 q 221 1086 246 1059 q 196 1164 196 1114 m 555 1164 q 574 1240 555 1210 q 624 1285 593 1271 q 692 1300 654 1300 q 770 1271 745 1300 q 796 1192 796 1242 q 777 1116 796 1146 q 725 1073 757 1086 q 657 1059 694 1059 q 579 1086 604 1059 q 555 1164 555 1114 z "},"İ":{"ha":586,"x_min":-65,"x_max":697,"o":"m 0 0 m 364 147 q 352 79 352 100 q 361 48 352 59 q 390 34 370 38 q 446 28 410 29 l 440 0 q 180 4 351 4 q -65 0 16 4 l -58 28 q 14 39 -10 30 q 54 72 39 47 q 82 147 68 96 l 265 836 q 277 903 277 880 q 268 935 277 924 q 239 950 258 945 q 183 956 219 954 l 191 983 q 436 979 267 979 q 697 983 593 979 l 690 956 q 615 945 640 954 q 575 912 590 936 q 547 836 561 888 l 364 147 m 352 1147 q 398 1257 352 1219 q 521 1295 445 1295 q 645 1200 645 1295 q 622 1124 645 1157 q 561 1073 600 1091 q 474 1055 522 1055 q 383 1079 414 1055 q 352 1147 352 1103 z "},"Ì":{"ha":586,"x_min":-65,"x_max":697,"o":"m 0 0 m 364 147 q 352 79 352 100 q 361 48 352 59 q 390 34 370 38 q 446 28 410 29 l 440 0 q 180 4 351 4 q -65 0 16 4 l -58 28 q 14 39 -10 30 q 54 72 39 47 q 82 147 68 96 l 265 836 q 277 903 277 880 q 268 935 277 924 q 239 950 258 945 q 183 956 219 954 l 191 983 q 436 979 267 979 q 697 983 593 979 l 690 956 q 615 945 640 954 q 575 912 590 936 q 547 836 561 888 l 364 147 m 562 1072 q 376 1114 481 1097 q 312 1126 336 1120 q 267 1143 288 1132 q 227 1178 242 1156 q 212 1226 212 1200 q 221 1263 212 1245 q 257 1301 233 1288 q 309 1314 281 1314 q 352 1304 332 1314 q 393 1277 376 1293 q 439 1226 411 1260 q 571 1089 506 1145 l 562 1072 z "},"Ī":{"ha":586,"x_min":-65,"x_max":786,"o":"m 0 0 m 364 147 q 352 79 352 100 q 361 48 352 59 q 390 34 370 38 q 446 28 410 29 l 440 0 q 180 4 351 4 q -65 0 16 4 l -58 28 q 14 39 -10 30 q 54 72 39 47 q 82 147 68 96 l 265 836 q 277 903 277 880 q 268 935 277 924 q 239 950 258 945 q 183 956 219 954 l 191 983 q 436 979 267 979 q 697 983 593 979 l 690 956 q 615 945 640 954 q 575 912 590 936 q 547 836 561 888 l 364 147 m 178 1137 l 186 1173 l 786 1173 l 778 1137 l 178 1137 z "},"Į":{"ha":586,"x_min":-65,"x_max":697,"o":"m 436 979 q 697 983 593 979 l 690 956 q 615 945 640 954 q 575 912 590 936 q 547 836 561 888 l 364 147 q 352 79 352 100 q 361 48 352 59 q 390 34 370 38 q 446 28 410 29 l 440 0 l 416 1 q 346 -44 374 -18 q 303 -99 317 -71 q 289 -154 289 -128 q 329 -191 289 -191 q 428 -164 371 -191 l 443 -187 q 225 -261 338 -261 q 133 -239 167 -261 q 98 -176 98 -216 q 180 -72 98 -117 q 388 2 262 -26 q 180 4 300 4 q -65 0 16 4 l -58 28 q 14 39 -10 30 q 54 72 39 47 q 82 147 68 96 l 265 836 q 277 903 277 880 q 268 935 277 924 q 239 950 258 945 q 183 956 219 954 l 191 983 q 436 979 267 979 z "},"Ĩ":{"ha":586,"x_min":-65,"x_max":862,"o":"m 0 0 m 364 147 q 352 79 352 100 q 361 48 352 59 q 390 34 370 38 q 446 28 410 29 l 440 0 q 180 4 351 4 q -65 0 16 4 l -58 28 q 14 39 -10 30 q 54 72 39 47 q 82 147 68 96 l 265 836 q 277 903 277 880 q 268 935 277 924 q 239 950 258 945 q 183 956 219 954 l 191 983 q 436 979 267 979 q 697 983 593 979 l 690 956 q 615 945 640 954 q 575 912 590 936 q 547 836 561 888 l 364 147 m 444 1317 q 531 1302 496 1317 q 606 1260 566 1288 q 665 1226 640 1238 q 723 1215 690 1215 q 783 1234 755 1215 q 837 1296 810 1253 l 862 1289 q 749 1119 820 1175 q 598 1063 677 1063 q 533 1070 562 1063 q 483 1089 504 1078 q 435 1119 462 1101 q 376 1153 400 1142 q 319 1164 352 1164 q 258 1145 286 1164 q 205 1083 231 1126 l 180 1090 q 293 1261 222 1204 q 444 1317 364 1317 z "},"J":{"ha":993,"x_min":21,"x_max":1135,"o":"m 1126 1014 q 1135 997 1135 1006 q 1034 925 1135 963 q 915 759 962 861 q 826 509 867 658 l 965 509 l 961 481 l 819 481 l 804 427 l 718 90 q 565 -165 677 -68 q 250 -261 453 -261 q 83 -232 146 -261 q 21 -138 21 -203 q 59 -50 21 -83 q 165 -17 96 -17 q 266 -43 227 -17 q 306 -118 306 -69 q 215 -235 306 -197 q 248 -237 229 -237 q 316 -211 288 -237 q 365 -129 343 -184 q 415 28 387 -75 l 511 364 q 553 481 530 429 l 363 481 l 367 509 l 566 509 q 668 663 608 595 q 800 783 728 730 q 979 903 872 837 q 891 871 930 888 q 801 825 853 853 q 726 786 756 800 q 659 763 696 772 q 575 754 621 754 q 499 764 535 754 q 414 791 463 773 q 352 811 376 804 q 306 818 328 818 q 249 801 271 818 q 227 747 227 783 q 418 636 227 648 l 415 611 q 195 676 275 620 q 114 832 114 733 q 170 974 114 922 q 335 1026 226 1026 q 419 1017 380 1026 q 488 995 458 1008 q 560 960 517 982 q 634 924 604 937 q 705 901 665 910 q 793 892 745 892 q 910 904 847 892 q 1021 940 973 916 q 1107 1021 1074 1021 q 1126 1014 1117 1021 z "},"Ĵ":{"ha":993,"x_min":21,"x_max":1135,"o":"m 21 0 m 1126 1014 q 1135 997 1135 1006 q 1034 925 1135 963 q 915 759 962 861 q 826 509 867 658 l 965 509 l 961 481 l 819 481 l 804 427 l 718 90 q 565 -165 677 -68 q 250 -261 453 -261 q 83 -232 146 -261 q 21 -138 21 -203 q 59 -50 21 -83 q 165 -17 96 -17 q 266 -43 227 -17 q 306 -118 306 -69 q 215 -235 306 -197 q 248 -237 229 -237 q 316 -211 288 -237 q 365 -129 343 -184 q 415 28 387 -75 l 511 364 q 553 481 530 429 l 363 481 l 367 509 l 566 509 q 668 663 608 595 q 800 783 728 730 q 979 903 872 837 q 891 871 930 888 q 801 825 853 853 q 726 786 756 800 q 659 763 696 772 q 575 754 621 754 q 499 764 535 754 q 414 791 463 773 q 352 811 376 804 q 306 818 328 818 q 249 801 271 818 q 227 747 227 783 q 418 636 227 648 l 415 611 q 195 676 275 620 q 114 832 114 733 q 170 974 114 922 q 335 1026 226 1026 q 419 1017 380 1026 q 488 995 458 1008 q 560 960 517 982 q 634 924 604 937 q 705 901 665 910 q 793 892 745 892 q 910 904 847 892 q 1021 940 973 916 q 1107 1021 1074 1021 q 1126 1014 1117 1021 m 775 1145 q 463 1069 640 1099 l 456 1089 q 689 1192 579 1128 q 865 1328 798 1257 l 890 1328 q 961 1187 918 1242 q 1084 1089 1004 1133 l 1078 1069 q 908 1103 977 1086 q 775 1145 839 1120 z "},"K":{"ha":1088,"x_min":-65,"x_max":1140,"o":"m 865 796 q 904 900 865 851 q 1008 972 943 949 q 972 979 995 979 q 924 969 943 979 q 888 940 904 960 q 851 874 865 913 q 817 769 836 836 q 779 651 796 696 q 730 569 761 606 q 653 519 700 532 q 796 490 743 513 q 872 431 849 468 q 895 338 895 393 q 889 275 895 311 l 867 136 q 866 129 866 134 q 875 107 866 115 q 897 98 884 98 q 957 165 935 98 l 981 236 l 1008 236 l 972 129 q 895 17 947 54 q 775 -20 842 -20 q 672 -1 715 -20 q 607 52 629 18 q 585 131 585 86 q 589 165 585 145 l 628 385 q 633 437 633 418 q 608 498 633 479 q 526 483 557 485 l 521 483 q 489 503 489 483 q 490 513 489 506 q 503 534 494 527 q 530 541 511 541 q 608 526 555 541 q 700 571 665 535 q 753 654 735 607 q 792 777 772 701 q 826 887 810 845 q 867 957 842 928 q 977 1003 907 1003 q 1061 984 1023 1003 q 1119 929 1098 964 q 1140 847 1140 894 q 1121 767 1140 806 q 1067 705 1103 729 q 983 681 1031 681 q 925 694 952 681 q 882 733 899 707 q 865 796 865 759 m 364 147 q 352 79 352 100 q 361 48 352 59 q 390 34 370 38 q 446 28 410 29 l 440 0 q 195 4 355 4 q -65 0 20 4 l -58 28 q 14 39 -10 30 q 54 72 39 47 q 82 147 68 96 l 265 836 q 277 903 277 880 q 268 935 277 924 q 239 950 258 945 q 183 956 219 954 l 191 983 q 450 979 271 979 q 697 983 600 979 l 690 956 q 615 945 640 954 q 575 912 590 936 q 547 836 561 888 l 364 147 z "},"Ķ":{"ha":1088,"x_min":-65,"x_max":1140,"o":"m 0 0 m 865 796 q 904 900 865 851 q 1008 972 943 949 q 972 979 995 979 q 924 969 943 979 q 888 940 904 960 q 851 874 865 913 q 817 769 836 836 q 779 651 796 696 q 730 569 761 606 q 653 519 700 532 q 796 490 743 513 q 872 431 849 468 q 895 338 895 393 q 889 275 895 311 l 867 136 q 866 129 866 134 q 875 107 866 115 q 897 98 884 98 q 957 165 935 98 l 981 236 l 1008 236 l 972 129 q 895 17 947 54 q 775 -20 842 -20 q 672 -1 715 -20 q 607 52 629 18 q 585 131 585 86 q 589 165 585 145 l 628 385 q 633 437 633 418 q 608 498 633 479 q 526 483 557 485 l 521 483 q 489 503 489 483 q 490 513 489 506 q 503 534 494 527 q 530 541 511 541 q 608 526 555 541 q 700 571 665 535 q 753 654 735 607 q 792 777 772 701 q 826 887 810 845 q 867 957 842 928 q 977 1003 907 1003 q 1061 984 1023 1003 q 1119 929 1098 964 q 1140 847 1140 894 q 1121 767 1140 806 q 1067 705 1103 729 q 983 681 1031 681 q 925 694 952 681 q 882 733 899 707 q 865 796 865 759 m 364 147 q 352 79 352 100 q 361 48 352 59 q 390 34 370 38 q 446 28 410 29 l 440 0 q 195 4 355 4 q -65 0 20 4 l -58 28 q 14 39 -10 30 q 54 72 39 47 q 82 147 68 96 l 265 836 q 277 903 277 880 q 268 935 277 924 q 239 950 258 945 q 183 956 219 954 l 191 983 q 450 979 271 979 q 697 983 600 979 l 690 956 q 615 945 640 954 q 575 912 590 936 q 547 836 561 888 l 364 147 m 292 -182 q 312 -117 292 -145 q 366 -74 332 -90 q 440 -58 399 -58 q 515 -80 484 -58 q 547 -147 547 -102 q 518 -244 547 -202 q 437 -310 489 -286 q 319 -335 385 -334 l 319 -306 q 428 -285 385 -305 q 481 -231 471 -264 q 389 -256 443 -256 q 292 -182 292 -256 z "},"L":{"ha":857,"x_min":-66,"x_max":806,"o":"m 806 292 q 772 178 791 255 q 736 0 751 104 q 422 4 642 4 q -66 0 94 4 l -61 28 q 14 39 -11 30 q 54 71 39 47 q 82 147 68 95 l 265 836 q 277 903 277 880 q 268 935 277 924 q 239 950 258 945 q 183 956 219 954 l 191 983 q 453 979 271 979 q 696 983 598 979 l 689 956 q 613 945 638 954 q 574 912 589 936 q 546 836 559 888 l 363 147 q 351 79 351 100 q 360 50 351 60 q 388 36 369 39 q 441 32 407 32 l 467 32 q 574 58 517 32 q 684 142 631 84 q 775 292 738 201 l 806 292 z "},"Ĺ":{"ha":857,"x_min":-66,"x_max":806,"o":"m 0 0 m 806 292 q 772 178 791 255 q 736 0 751 104 q 422 4 642 4 q -66 0 94 4 l -61 28 q 14 39 -11 30 q 54 71 39 47 q 82 147 68 95 l 265 836 q 277 903 277 880 q 268 935 277 924 q 239 950 258 945 q 183 956 219 954 l 191 983 q 453 979 271 979 q 696 983 598 979 l 689 956 q 613 945 638 954 q 574 912 589 936 q 546 836 559 888 l 363 147 q 351 79 351 100 q 360 50 351 60 q 388 36 369 39 q 441 32 407 32 l 467 32 q 574 58 517 32 q 684 142 631 84 q 775 292 738 201 l 806 292 m 368 1089 q 501 1221 428 1141 q 571 1291 546 1268 q 627 1331 596 1314 q 690 1347 656 1347 q 777 1299 750 1347 q 787 1261 787 1279 q 714 1169 787 1211 q 654 1145 688 1155 q 564 1122 621 1135 q 378 1072 449 1095 l 368 1089 z "},"Ľ":{"ha":857,"x_min":-66,"x_max":960,"o":"m 0 0 m 806 292 q 772 178 791 255 q 736 0 751 104 q 422 4 642 4 q -66 0 94 4 l -61 28 q 14 39 -11 30 q 54 71 39 47 q 82 147 68 95 l 265 836 q 277 903 277 880 q 268 935 277 924 q 239 950 258 945 q 183 956 219 954 l 191 983 q 453 979 271 979 q 696 983 598 979 l 689 956 q 613 945 638 954 q 574 912 589 936 q 546 836 559 888 l 363 147 q 351 79 351 100 q 360 50 351 60 q 388 36 369 39 q 441 32 407 32 l 467 32 q 574 58 517 32 q 684 142 631 84 q 775 292 738 201 l 806 292 m 701 673 q 754 829 737 762 q 772 928 772 897 q 765 948 772 941 q 740 954 758 954 l 744 983 l 777 983 q 802 982 785 982 q 958 999 882 982 q 960 982 960 996 q 896 848 960 932 q 720 668 831 764 l 701 673 z "},"Ļ":{"ha":857,"x_min":-66,"x_max":806,"o":"m 0 0 m 806 292 q 772 178 791 255 q 736 0 751 104 q 422 4 642 4 q -66 0 94 4 l -61 28 q 14 39 -11 30 q 54 71 39 47 q 82 147 68 95 l 265 836 q 277 903 277 880 q 268 935 277 924 q 239 950 258 945 q 183 956 219 954 l 191 983 q 453 979 271 979 q 696 983 598 979 l 689 956 q 613 945 638 954 q 574 912 589 936 q 546 836 559 888 l 363 147 q 351 79 351 100 q 360 50 351 60 q 388 36 369 39 q 441 32 407 32 l 467 32 q 574 58 517 32 q 684 142 631 84 q 775 292 738 201 l 806 292 m 273 -182 q 293 -117 273 -145 q 347 -74 313 -90 q 421 -58 380 -58 q 496 -80 465 -58 q 528 -147 528 -102 q 499 -244 528 -202 q 418 -310 470 -286 q 300 -335 366 -334 l 300 -306 q 409 -285 366 -305 q 463 -231 452 -264 q 370 -256 424 -256 q 273 -182 273 -256 z "},"Ŀ":{"ha":885,"x_min":-66,"x_max":897,"o":"m 0 0 m 806 292 q 772 178 791 255 q 736 0 751 104 q 422 4 642 4 q -66 0 94 4 l -61 28 q 14 39 -11 30 q 54 71 39 47 q 82 147 68 95 l 265 836 q 277 903 277 880 q 268 935 277 924 q 239 950 258 945 q 183 956 219 954 l 191 983 q 453 979 271 979 q 696 983 598 979 l 689 956 q 613 945 638 954 q 574 912 589 936 q 546 836 559 888 l 363 147 q 351 79 351 100 q 360 50 351 60 q 388 36 369 39 q 441 32 407 32 l 467 32 q 574 58 517 32 q 684 142 631 84 q 775 292 738 201 l 806 292 m 632 496 q 652 572 632 538 q 708 625 673 606 q 787 644 743 644 q 869 620 841 644 q 897 549 897 595 q 876 479 897 512 q 819 425 855 446 q 741 404 783 404 q 660 428 687 404 q 632 496 632 451 z "},"Ł":{"ha":859,"x_min":-65,"x_max":807,"o":"m 807 292 q 774 178 793 255 q 737 0 752 104 q 424 4 643 4 q -65 0 96 4 l -60 28 q 15 39 -9 30 q 55 71 40 47 q 83 147 70 95 l 137 349 l 24 292 l 32 323 l 145 380 l 267 836 q 278 903 278 880 q 269 935 278 924 q 240 950 260 945 q 184 956 220 954 l 192 983 q 454 979 273 979 q 697 983 600 979 l 690 956 q 615 945 640 954 q 575 912 590 936 q 547 836 561 888 l 466 530 l 720 657 l 711 625 l 457 498 l 364 147 q 352 79 352 100 q 361 50 352 60 q 389 36 370 39 q 443 32 408 32 l 468 32 q 575 58 519 32 q 686 142 632 84 q 777 292 739 201 l 807 292 z "},"M":{"ha":1318,"x_min":-65,"x_max":1429,"o":"m 1173 979 q 1429 983 1325 979 l 1422 956 q 1347 945 1371 954 q 1307 912 1322 936 q 1279 836 1293 888 l 1096 147 q 1084 81 1084 103 q 1094 49 1084 60 q 1122 34 1103 38 q 1178 28 1142 29 l 1173 0 q 917 4 1070 4 q 667 0 746 4 l 672 28 q 748 39 723 30 q 787 71 772 47 q 815 147 802 95 l 1017 896 l 440 -7 l 410 -7 l 286 804 l 125 191 q 115 124 115 153 q 237 28 115 31 l 232 0 q 66 4 182 4 q -65 0 -19 4 l -60 28 q 41 75 5 31 q 94 191 76 119 l 267 836 q 278 903 278 880 q 269 935 278 924 q 240 950 260 945 q 184 956 220 954 l 192 983 q 427 979 268 979 q 554 983 500 979 l 635 350 l 1036 979 l 1173 979 z "},"N":{"ha":1196,"x_min":-118,"x_max":1352,"o":"m 1189 1047 q 1274 1027 1237 1047 q 1331 974 1311 1008 q 1352 899 1352 940 q 1331 822 1352 855 q 1275 771 1310 789 q 1196 753 1239 753 q 1105 780 1139 753 q 1072 856 1072 807 q 1091 930 1072 897 q 1142 984 1109 963 q 1217 1013 1175 1006 q 1182 1023 1206 1023 q 1118 1003 1148 1023 q 1064 947 1088 982 q 936 624 1002 855 q 785 -7 869 393 l 754 -7 l 391 654 q 193 -16 273 90 q 129 -80 163 -56 q 45 -103 94 -103 q -40 -83 -3 -103 q -98 -30 -77 -64 q -118 46 -118 4 q -97 123 -118 90 q -41 174 -77 156 q 37 192 -6 192 q 128 164 94 192 q 161 89 161 137 q 142 15 161 48 q 91 -40 123 -18 q 17 -68 58 -61 q 52 -79 27 -79 q 171 -1 121 -79 q 278 290 223 80 q 399 833 334 500 l 399 836 q 407 898 407 875 q 397 933 407 921 q 365 949 387 945 q 300 956 342 954 l 307 983 q 431 979 351 979 q 543 983 495 979 l 846 393 q 1039 958 954 836 q 1189 1047 1100 1047 z "},"Ń":{"ha":1196,"x_min":-118,"x_max":1352,"o":"m 0 0 m 1189 1047 q 1274 1027 1237 1047 q 1331 974 1311 1008 q 1352 899 1352 940 q 1331 822 1352 855 q 1275 771 1310 789 q 1196 753 1239 753 q 1105 780 1139 753 q 1072 856 1072 807 q 1091 930 1072 897 q 1142 984 1109 963 q 1217 1013 1175 1006 q 1182 1023 1206 1023 q 1118 1003 1148 1023 q 1064 947 1088 982 q 936 624 1002 855 q 785 -7 869 393 l 754 -7 l 391 654 q 193 -16 273 90 q 129 -80 163 -56 q 45 -103 94 -103 q -40 -83 -3 -103 q -98 -30 -77 -64 q -118 46 -118 4 q -97 123 -118 90 q -41 174 -77 156 q 37 192 -6 192 q 128 164 94 192 q 161 89 161 137 q 142 15 161 48 q 91 -40 123 -18 q 17 -68 58 -61 q 52 -79 27 -79 q 171 -1 121 -79 q 278 290 223 80 q 399 833 334 500 l 399 836 q 407 898 407 875 q 397 933 407 921 q 365 949 387 945 q 300 956 342 954 l 307 983 q 431 979 351 979 q 543 983 495 979 l 846 393 q 1039 958 954 836 q 1189 1047 1100 1047 m 696 1089 q 829 1221 755 1141 q 899 1291 873 1268 q 954 1331 924 1314 q 1018 1347 983 1347 q 1104 1299 1078 1347 q 1114 1261 1114 1279 q 1042 1169 1114 1211 q 982 1145 1015 1155 q 892 1122 949 1135 q 705 1072 777 1095 l 696 1089 z "},"Ň":{"ha":1196,"x_min":-118,"x_max":1352,"o":"m 0 0 m 1189 1047 q 1274 1027 1237 1047 q 1331 974 1311 1008 q 1352 899 1352 940 q 1331 822 1352 855 q 1275 771 1310 789 q 1196 753 1239 753 q 1105 780 1139 753 q 1072 856 1072 807 q 1091 930 1072 897 q 1142 984 1109 963 q 1217 1013 1175 1006 q 1182 1023 1206 1023 q 1118 1003 1148 1023 q 1064 947 1088 982 q 936 624 1002 855 q 785 -7 869 393 l 754 -7 l 391 654 q 193 -16 273 90 q 129 -80 163 -56 q 45 -103 94 -103 q -40 -83 -3 -103 q -98 -30 -77 -64 q -118 46 -118 4 q -97 123 -118 90 q -41 174 -77 156 q 37 192 -6 192 q 128 164 94 192 q 161 89 161 137 q 142 15 161 48 q 91 -40 123 -18 q 17 -68 58 -61 q 52 -79 27 -79 q 171 -1 121 -79 q 278 290 223 80 q 399 833 334 500 l 399 836 q 407 898 407 875 q 397 933 407 921 q 365 949 387 945 q 300 956 342 954 l 307 983 q 431 979 351 979 q 543 983 495 979 l 846 393 q 1039 958 954 836 q 1189 1047 1100 1047 m 896 1239 q 1208 1314 1033 1285 l 1215 1295 q 982 1191 1091 1255 q 806 1055 872 1126 l 781 1055 q 710 1196 753 1140 q 588 1295 667 1251 l 593 1314 q 762 1281 693 1298 q 896 1239 831 1263 z "},"Ņ":{"ha":1196,"x_min":-118,"x_max":1352,"o":"m 0 0 m 1189 1047 q 1274 1027 1237 1047 q 1331 974 1311 1008 q 1352 899 1352 940 q 1331 822 1352 855 q 1275 771 1310 789 q 1196 753 1239 753 q 1105 780 1139 753 q 1072 856 1072 807 q 1091 930 1072 897 q 1142 984 1109 963 q 1217 1013 1175 1006 q 1182 1023 1206 1023 q 1118 1003 1148 1023 q 1064 947 1088 982 q 936 624 1002 855 q 785 -7 869 393 l 754 -7 l 391 654 q 193 -16 273 90 q 129 -80 163 -56 q 45 -103 94 -103 q -40 -83 -3 -103 q -98 -30 -77 -64 q -118 46 -118 4 q -97 123 -118 90 q -41 174 -77 156 q 37 192 -6 192 q 128 164 94 192 q 161 89 161 137 q 142 15 161 48 q 91 -40 123 -18 q 17 -68 58 -61 q 52 -79 27 -79 q 171 -1 121 -79 q 278 290 223 80 q 399 833 334 500 l 399 836 q 407 898 407 875 q 397 933 407 921 q 365 949 387 945 q 300 956 342 954 l 307 983 q 431 979 351 979 q 543 983 495 979 l 846 393 q 1039 958 954 836 q 1189 1047 1100 1047 m 332 -182 q 352 -117 332 -145 q 406 -74 372 -90 q 481 -58 440 -58 q 556 -80 524 -58 q 588 -147 588 -102 q 559 -244 588 -202 q 478 -310 530 -286 q 360 -335 426 -334 l 360 -306 q 469 -285 425 -305 q 522 -231 512 -264 q 429 -256 484 -256 q 332 -182 332 -256 z "},"Ŋ":{"ha":1021,"x_min":-62,"x_max":1143,"o":"m 1017 979 q 1143 983 1095 979 l 1136 956 q 1060 945 1085 954 q 1021 912 1036 936 q 993 836 1006 888 l 771 -7 q 730 -141 754 -87 q 663 -229 706 -196 q 550 -261 619 -261 q 413 -231 471 -261 q 355 -138 355 -201 q 393 -50 355 -83 q 500 -17 431 -17 q 601 -43 562 -17 q 640 -118 640 -69 q 547 -235 640 -195 q 566 -237 558 -237 q 655 -203 620 -237 q 708 -120 690 -170 q 741 -7 727 -71 l 254 659 l 117 147 q 104 81 104 104 q 114 49 104 60 q 143 34 123 38 q 199 28 163 29 l 193 0 q 69 4 144 4 q -62 0 -17 4 l -57 28 q 19 39 -6 30 q 58 71 43 47 q 86 147 73 95 l 269 836 q 280 900 280 878 q 270 933 280 922 q 236 949 259 945 q 171 956 213 954 l 178 983 q 301 979 221 979 q 414 983 366 979 l 843 382 l 962 836 q 974 903 974 880 q 965 935 974 924 q 936 950 956 945 q 880 956 916 954 l 888 983 q 1017 979 935 979 z "},"Ñ":{"ha":1196,"x_min":-118,"x_max":1352,"o":"m 0 0 m 1189 1047 q 1274 1027 1237 1047 q 1331 974 1311 1008 q 1352 899 1352 940 q 1331 822 1352 855 q 1275 771 1310 789 q 1196 753 1239 753 q 1105 780 1139 753 q 1072 856 1072 807 q 1091 930 1072 897 q 1142 984 1109 963 q 1217 1013 1175 1006 q 1182 1023 1206 1023 q 1118 1003 1148 1023 q 1064 947 1088 982 q 936 624 1002 855 q 785 -7 869 393 l 754 -7 l 391 654 q 193 -16 273 90 q 129 -80 163 -56 q 45 -103 94 -103 q -40 -83 -3 -103 q -98 -30 -77 -64 q -118 46 -118 4 q -97 123 -118 90 q -41 174 -77 156 q 37 192 -6 192 q 128 164 94 192 q 161 89 161 137 q 142 15 161 48 q 91 -40 123 -18 q 17 -68 58 -61 q 52 -79 27 -79 q 171 -1 121 -79 q 278 290 223 80 q 399 833 334 500 l 399 836 q 407 898 407 875 q 397 933 407 921 q 365 949 387 945 q 300 956 342 954 l 307 983 q 431 979 351 979 q 543 983 495 979 l 846 393 q 1039 958 954 836 q 1189 1047 1100 1047 m 746 1317 q 833 1302 798 1317 q 909 1260 869 1288 q 967 1226 943 1238 q 1025 1215 992 1215 q 1085 1234 1058 1215 q 1139 1296 1113 1253 l 1164 1289 q 1051 1119 1122 1175 q 901 1063 980 1063 q 835 1070 864 1063 q 785 1089 806 1078 q 737 1119 764 1101 q 679 1153 703 1142 q 621 1164 654 1164 q 561 1145 588 1164 q 507 1083 534 1126 l 482 1090 q 596 1261 525 1204 q 746 1317 667 1317 z "},"O":{"ha":1124,"x_min":47,"x_max":1121,"o":"m 47 314 q 132 632 47 471 q 368 898 216 793 q 710 1003 520 1003 q 930 964 838 1003 q 1072 849 1022 924 q 1121 668 1121 774 q 1036 351 1121 511 q 799 85 951 191 q 457 -20 646 -20 q 237 20 330 -20 q 96 134 145 59 q 47 314 47 209 m 697 978 q 528 878 610 978 q 397 619 447 778 q 347 296 347 460 q 363 141 347 207 q 406 40 378 75 q 469 5 434 5 q 638 105 557 5 q 769 364 720 205 q 819 688 819 523 q 804 842 819 777 q 761 943 788 908 q 697 978 733 978 z "},"Ó":{"ha":1124,"x_min":47,"x_max":1121,"o":"m 47 0 m 47 314 q 132 632 47 471 q 368 898 216 793 q 710 1003 520 1003 q 930 964 838 1003 q 1072 849 1022 924 q 1121 668 1121 774 q 1036 351 1121 511 q 799 85 951 191 q 457 -20 646 -20 q 237 20 330 -20 q 96 134 145 59 q 47 314 47 209 m 697 978 q 528 878 610 978 q 397 619 447 778 q 347 296 347 460 q 363 141 347 207 q 406 40 378 75 q 469 5 434 5 q 638 105 557 5 q 769 364 720 205 q 819 688 819 523 q 804 842 819 777 q 761 943 788 908 q 697 978 733 978 m 659 1089 q 791 1221 718 1141 q 861 1291 836 1268 q 917 1331 886 1314 q 981 1347 946 1347 q 1067 1299 1040 1347 q 1077 1261 1077 1279 q 1004 1169 1077 1211 q 945 1145 978 1155 q 854 1122 911 1135 q 668 1072 739 1095 l 659 1089 z "},"Ŏ":{"ha":1124,"x_min":47,"x_max":1121,"o":"m 47 0 m 47 314 q 132 632 47 471 q 368 898 216 793 q 710 1003 520 1003 q 930 964 838 1003 q 1072 849 1022 924 q 1121 668 1121 774 q 1036 351 1121 511 q 799 85 951 191 q 457 -20 646 -20 q 237 20 330 -20 q 96 134 145 59 q 47 314 47 209 m 697 978 q 528 878 610 978 q 397 619 447 778 q 347 296 347 460 q 363 141 347 207 q 406 40 378 75 q 469 5 434 5 q 638 105 557 5 q 769 364 720 205 q 819 688 819 523 q 804 842 819 777 q 761 943 788 908 q 697 978 733 978 m 772 1225 q 950 1244 872 1225 q 1096 1303 1029 1263 l 1113 1291 q 1017 1176 1076 1229 q 888 1092 959 1124 q 743 1060 817 1060 q 590 1122 647 1060 q 515 1286 534 1185 l 536 1297 q 635 1242 581 1259 q 772 1225 689 1225 z "},"Ô":{"ha":1124,"x_min":47,"x_max":1121,"o":"m 47 0 m 47 314 q 132 632 47 471 q 368 898 216 793 q 710 1003 520 1003 q 930 964 838 1003 q 1072 849 1022 924 q 1121 668 1121 774 q 1036 351 1121 511 q 799 85 951 191 q 457 -20 646 -20 q 237 20 330 -20 q 96 134 145 59 q 47 314 47 209 m 697 978 q 528 878 610 978 q 397 619 447 778 q 347 296 347 460 q 363 141 347 207 q 406 40 378 75 q 469 5 434 5 q 638 105 557 5 q 769 364 720 205 q 819 688 819 523 q 804 842 819 777 q 761 943 788 908 q 697 978 733 978 m 749 1145 q 437 1069 613 1099 l 429 1089 q 662 1192 553 1128 q 839 1328 772 1257 l 864 1328 q 935 1187 892 1242 q 1057 1089 978 1133 l 1052 1069 q 881 1103 950 1086 q 749 1145 812 1120 z "},"Ö":{"ha":1124,"x_min":47,"x_max":1121,"o":"m 47 0 m 47 314 q 132 632 47 471 q 368 898 216 793 q 710 1003 520 1003 q 930 964 838 1003 q 1072 849 1022 924 q 1121 668 1121 774 q 1036 351 1121 511 q 799 85 951 191 q 457 -20 646 -20 q 237 20 330 -20 q 96 134 145 59 q 47 314 47 209 m 697 978 q 528 878 610 978 q 397 619 447 778 q 347 296 347 460 q 363 141 347 207 q 406 40 378 75 q 469 5 434 5 q 638 105 557 5 q 769 364 720 205 q 819 688 819 523 q 804 842 819 777 q 761 943 788 908 q 697 978 733 978 m 461 1164 q 480 1240 461 1210 q 530 1285 499 1271 q 599 1300 562 1300 q 677 1271 652 1300 q 703 1192 703 1242 q 684 1116 703 1146 q 632 1073 664 1086 q 564 1059 600 1059 q 486 1086 511 1059 q 461 1164 461 1114 m 820 1164 q 839 1240 820 1210 q 889 1285 858 1271 q 957 1300 920 1300 q 1036 1271 1010 1300 q 1061 1192 1061 1242 q 1042 1116 1061 1146 q 990 1073 1022 1086 q 922 1059 959 1059 q 845 1086 869 1059 q 820 1164 820 1114 z "},"Ò":{"ha":1124,"x_min":47,"x_max":1121,"o":"m 47 0 m 47 314 q 132 632 47 471 q 368 898 216 793 q 710 1003 520 1003 q 930 964 838 1003 q 1072 849 1022 924 q 1121 668 1121 774 q 1036 351 1121 511 q 799 85 951 191 q 457 -20 646 -20 q 237 20 330 -20 q 96 134 145 59 q 47 314 47 209 m 697 978 q 528 878 610 978 q 397 619 447 778 q 347 296 347 460 q 363 141 347 207 q 406 40 378 75 q 469 5 434 5 q 638 105 557 5 q 769 364 720 205 q 819 688 819 523 q 804 842 819 777 q 761 943 788 908 q 697 978 733 978 m 827 1072 q 642 1114 746 1097 q 577 1126 601 1120 q 532 1143 553 1132 q 492 1178 507 1156 q 477 1226 477 1200 q 486 1263 477 1245 q 523 1301 498 1288 q 574 1314 547 1314 q 617 1304 597 1314 q 659 1277 641 1293 q 704 1226 676 1260 q 836 1089 771 1145 l 827 1072 z "},"Ő":{"ha":1124,"x_min":47,"x_max":1126,"o":"m 47 0 m 47 314 q 132 632 47 471 q 368 898 216 793 q 710 1003 520 1003 q 930 964 838 1003 q 1072 849 1022 924 q 1121 668 1121 774 q 1036 351 1121 511 q 799 85 951 191 q 457 -20 646 -20 q 237 20 330 -20 q 96 134 145 59 q 47 314 47 209 m 697 978 q 528 878 610 978 q 397 619 447 778 q 347 296 347 460 q 363 141 347 207 q 406 40 378 75 q 469 5 434 5 q 638 105 557 5 q 769 364 720 205 q 819 688 819 523 q 804 842 819 777 q 761 943 788 908 q 697 978 733 978 m 500 1086 q 593 1220 545 1141 q 632 1278 618 1259 q 663 1310 646 1297 q 715 1326 686 1326 q 760 1315 739 1326 q 796 1282 782 1303 q 810 1236 810 1261 q 799 1194 810 1215 q 766 1160 787 1174 q 725 1140 748 1147 q 659 1120 702 1132 q 513 1072 575 1096 l 500 1086 m 816 1086 q 908 1220 860 1141 q 947 1278 933 1259 q 978 1310 961 1297 q 1031 1326 1002 1326 q 1076 1315 1055 1326 q 1112 1282 1098 1303 q 1126 1236 1126 1261 q 1115 1194 1126 1215 q 1081 1160 1103 1174 q 1040 1140 1063 1147 q 975 1120 1017 1132 q 828 1072 890 1096 l 816 1086 z "},"Ō":{"ha":1124,"x_min":47,"x_max":1121,"o":"m 47 0 m 47 314 q 132 632 47 471 q 368 898 216 793 q 710 1003 520 1003 q 930 964 838 1003 q 1072 849 1022 924 q 1121 668 1121 774 q 1036 351 1121 511 q 799 85 951 191 q 457 -20 646 -20 q 237 20 330 -20 q 96 134 145 59 q 47 314 47 209 m 697 978 q 528 878 610 978 q 397 619 447 778 q 347 296 347 460 q 363 141 347 207 q 406 40 378 75 q 469 5 434 5 q 638 105 557 5 q 769 364 720 205 q 819 688 819 523 q 804 842 819 777 q 761 943 788 908 q 697 978 733 978 m 443 1137 l 452 1173 l 1051 1173 l 1043 1137 l 443 1137 z "},"Ø":{"ha":1124,"x_min":12,"x_max":1133,"o":"m 1005 920 q 1121 668 1121 831 q 1036 351 1121 511 q 799 85 951 191 q 457 -20 646 -20 q 182 49 288 -20 l 36 -102 l 12 -82 l 158 66 q 47 314 47 155 q 132 632 47 471 q 368 898 216 793 q 710 1003 520 1003 q 981 937 876 1003 l 1112 1074 l 1133 1055 l 1005 920 m 697 978 q 528 878 610 978 q 397 619 447 778 q 347 296 347 460 q 351 221 347 260 l 815 774 q 773 924 804 871 q 697 978 742 978 m 469 5 q 638 105 557 5 q 769 364 720 205 q 819 688 819 523 q 818 734 819 704 l 355 181 q 398 52 368 98 q 469 5 429 5 z "},"Õ":{"ha":1124,"x_min":47,"x_max":1127,"o":"m 47 0 m 47 314 q 132 632 47 471 q 368 898 216 793 q 710 1003 520 1003 q 930 964 838 1003 q 1072 849 1022 924 q 1121 668 1121 774 q 1036 351 1121 511 q 799 85 951 191 q 457 -20 646 -20 q 237 20 330 -20 q 96 134 145 59 q 47 314 47 209 m 697 978 q 528 878 610 978 q 397 619 447 778 q 347 296 347 460 q 363 141 347 207 q 406 40 378 75 q 469 5 434 5 q 638 105 557 5 q 769 364 720 205 q 819 688 819 523 q 804 842 819 777 q 761 943 788 908 q 697 978 733 978 m 709 1317 q 796 1302 761 1317 q 871 1260 831 1288 q 930 1226 905 1238 q 988 1215 955 1215 q 1048 1234 1021 1215 q 1102 1296 1076 1253 l 1127 1289 q 1014 1119 1085 1175 q 863 1063 943 1063 q 798 1070 827 1063 q 748 1089 769 1078 q 700 1119 727 1101 q 641 1153 665 1142 q 584 1164 617 1164 q 524 1145 551 1164 q 470 1083 496 1126 l 445 1090 q 558 1261 488 1204 q 709 1317 629 1317 z "},"Œ":{"ha":1417,"x_min":47,"x_max":1492,"o":"m 1204 979 q 1492 983 1404 979 q 1439 819 1456 890 q 1421 733 1431 787 l 1390 733 q 1400 831 1400 791 q 1372 924 1400 897 q 1278 951 1343 951 l 1218 951 q 1146 943 1170 951 q 1107 912 1122 935 q 1079 836 1093 888 l 992 509 l 1072 509 q 1138 529 1112 509 q 1180 581 1164 550 q 1215 664 1196 612 l 1246 664 q 1209 536 1230 617 l 1198 494 q 1162 325 1184 441 l 1132 325 q 1135 368 1132 332 q 1139 410 1139 393 q 1123 460 1139 441 q 1067 481 1108 478 l 985 481 l 896 147 q 884 80 884 102 q 893 50 884 60 q 922 36 903 39 q 975 32 941 32 l 1048 32 q 1159 55 1116 32 q 1233 130 1202 78 q 1297 278 1265 182 l 1328 278 q 1299 178 1315 244 q 1263 0 1275 92 q 949 4 1168 4 q 606 3 718 4 q 457 -20 528 -20 q 237 20 330 -20 q 96 134 145 59 q 47 314 47 209 q 132 632 47 471 q 368 898 216 793 q 710 1003 520 1003 q 832 979 769 1003 q 967 979 872 979 l 1204 979 m 798 836 q 809 909 809 878 q 787 962 809 947 q 715 978 765 978 q 534 878 619 978 q 398 620 449 779 q 347 296 347 462 q 385 82 347 159 q 492 5 422 5 q 559 21 532 5 q 596 77 585 37 l 798 836 z "},"P":{"ha":943,"x_min":-66,"x_max":1007,"o":"m 363 147 q 353 92 353 113 q 374 46 353 61 q 444 28 395 31 l 439 0 q 197 4 343 4 q -66 0 17 4 l -61 28 q 14 39 -11 30 q 54 71 39 47 q 82 147 68 95 l 265 836 q 275 900 275 889 q 255 940 275 928 q 183 956 235 953 l 191 983 q 444 979 271 979 q 544 981 477 979 q 647 982 612 982 q 919 930 830 982 q 1007 772 1007 879 q 935 583 1007 667 q 730 449 862 498 q 429 395 599 399 l 363 147 m 436 423 q 595 491 533 430 q 686 638 658 552 q 714 810 714 724 q 688 919 714 882 q 607 956 663 956 q 583 949 591 956 q 570 930 575 943 q 558 884 566 916 l 546 836 l 436 423 z "},"Þ":{"ha":970,"x_min":-65,"x_max":975,"o":"m 364 147 q 352 79 352 100 q 361 48 352 59 q 390 34 370 38 q 446 28 410 29 l 440 0 q 180 4 351 4 q -65 0 16 4 l -58 28 q 14 39 -10 30 q 54 72 39 47 q 82 147 68 96 l 265 836 q 277 903 277 880 q 268 935 277 924 q 239 950 258 945 q 183 956 219 954 l 191 983 q 436 979 267 979 q 697 983 593 979 l 690 956 q 615 945 640 954 q 575 912 590 936 q 547 836 561 888 l 530 770 q 615 771 587 771 q 815 745 735 771 q 936 672 896 720 q 975 561 975 625 q 899 368 975 454 q 687 233 823 282 q 374 183 550 184 l 364 147 m 523 745 l 381 211 l 382 211 q 546 264 478 211 q 648 402 614 317 q 682 583 682 488 q 666 666 682 629 q 620 724 650 703 q 547 745 589 745 l 523 745 z "},"Q":{"ha":1202,"x_min":-47,"x_max":1192,"o":"m 949 192 q 1053 156 1013 192 q 1093 52 1093 120 q 1043 -97 1093 -24 q 899 -215 992 -170 q 685 -261 806 -261 q 520 -235 594 -261 q 392 -173 446 -210 q 273 -81 338 -136 q 97 -114 172 -114 q -9 -85 30 -114 q -47 4 -47 -56 q -20 95 -47 54 q 56 159 7 136 q 164 182 104 182 q 272 163 217 182 q 380 116 328 145 q 500 43 432 87 q 708 203 620 109 q 846 421 797 298 q 895 689 895 545 q 846 903 895 828 q 704 978 797 978 q 546 913 615 978 q 439 746 477 848 q 401 538 401 644 q 412 455 401 488 q 452 402 423 421 q 533 383 481 383 q 632 402 586 383 q 712 454 679 421 q 764 530 746 488 q 781 604 779 565 q 727 530 766 553 q 644 507 688 507 q 580 524 608 507 q 537 570 552 541 q 522 636 522 600 q 543 716 522 680 q 600 772 564 752 q 677 793 635 793 q 777 748 741 793 q 812 628 812 703 q 765 475 812 541 q 634 374 718 410 q 441 338 549 338 q 270 367 346 338 q 151 452 194 395 q 107 587 107 508 q 195 798 107 702 q 428 948 283 893 q 737 1003 573 1003 q 971 968 867 1003 q 1133 870 1074 933 q 1192 725 1192 807 q 1095 491 1192 619 q 845 241 999 363 q 524 28 692 119 q 656 -54 603 -23 q 768 -105 709 -84 q 884 -126 827 -126 q 992 -96 954 -126 q 1047 -25 1031 -66 q 929 -71 1000 -71 q 861 -56 892 -71 q 812 -14 830 -42 q 794 53 794 14 q 814 125 794 94 q 869 174 833 157 q 949 192 904 192 m 106 -90 q 251 -62 161 -90 q 146 15 189 -10 q 54 40 102 40 q 2 26 20 40 q -16 -12 -16 13 q 16 -69 -16 -47 q 106 -90 48 -90 z "},"R":{"ha":1031,"x_min":-66,"x_max":1007,"o":"m 1000 168 l 994 150 q 909 21 967 62 q 751 -20 851 -20 q 601 18 651 -20 q 551 126 551 56 q 554 161 551 145 l 581 319 q 585 366 585 344 q 554 444 585 416 q 450 474 524 471 l 364 147 q 351 79 351 96 q 371 42 351 54 q 444 28 391 31 l 439 0 q 192 4 343 4 q -66 0 17 4 l -61 28 q 14 39 -11 30 q 54 71 39 47 q 82 147 68 95 l 264 836 q 276 901 276 885 q 256 940 276 928 q 183 956 235 952 l 191 983 q 427 979 271 979 q 559 981 486 979 q 639 982 616 982 q 848 963 767 982 q 968 902 928 944 q 1007 790 1007 860 q 953 641 1007 706 q 800 536 899 576 q 568 484 701 496 q 722 463 659 478 q 822 415 785 448 q 860 323 860 381 q 857 290 860 306 l 833 146 q 830 113 830 125 q 875 60 830 60 q 924 82 903 60 q 961 149 945 104 l 968 168 l 1000 168 m 631 956 q 586 940 602 956 q 558 884 570 925 l 457 498 q 586 538 524 502 q 688 646 648 574 q 728 819 728 717 q 631 956 728 956 z "},"Ŕ":{"ha":1031,"x_min":-66,"x_max":1007,"o":"m 0 0 m 1000 168 l 994 150 q 909 21 967 62 q 751 -20 851 -20 q 601 18 651 -20 q 551 126 551 56 q 554 161 551 145 l 581 319 q 585 366 585 344 q 554 444 585 416 q 450 474 524 471 l 364 147 q 351 79 351 96 q 371 42 351 54 q 444 28 391 31 l 439 0 q 192 4 343 4 q -66 0 17 4 l -61 28 q 14 39 -11 30 q 54 71 39 47 q 82 147 68 95 l 264 836 q 276 901 276 885 q 256 940 276 928 q 183 956 235 952 l 191 983 q 427 979 271 979 q 559 981 486 979 q 639 982 616 982 q 848 963 767 982 q 968 902 928 944 q 1007 790 1007 860 q 953 641 1007 706 q 800 536 899 576 q 568 484 701 496 q 722 463 659 478 q 822 415 785 448 q 860 323 860 381 q 857 290 860 306 l 833 146 q 830 113 830 125 q 875 60 830 60 q 924 82 903 60 q 961 149 945 104 l 968 168 l 1000 168 m 631 956 q 586 940 602 956 q 558 884 570 925 l 457 498 q 586 538 524 502 q 688 646 648 574 q 728 819 728 717 q 631 956 728 956 m 511 1089 q 644 1221 571 1141 q 714 1291 689 1268 q 770 1331 739 1314 q 833 1347 799 1347 q 920 1299 893 1347 q 930 1261 930 1279 q 857 1169 930 1211 q 798 1145 831 1155 q 707 1122 764 1135 q 521 1072 592 1095 l 511 1089 z "},"Ř":{"ha":1031,"x_min":-66,"x_max":1031,"o":"m 0 0 m 1000 168 l 994 150 q 909 21 967 62 q 751 -20 851 -20 q 601 18 651 -20 q 551 126 551 56 q 554 161 551 145 l 581 319 q 585 366 585 344 q 554 444 585 416 q 450 474 524 471 l 364 147 q 351 79 351 96 q 371 42 351 54 q 444 28 391 31 l 439 0 q 192 4 343 4 q -66 0 17 4 l -61 28 q 14 39 -11 30 q 54 71 39 47 q 82 147 68 95 l 264 836 q 276 901 276 885 q 256 940 276 928 q 183 956 235 952 l 191 983 q 427 979 271 979 q 559 981 486 979 q 639 982 616 982 q 848 963 767 982 q 968 902 928 944 q 1007 790 1007 860 q 953 641 1007 706 q 800 536 899 576 q 568 484 701 496 q 722 463 659 478 q 822 415 785 448 q 860 323 860 381 q 857 290 860 306 l 833 146 q 830 113 830 125 q 875 60 830 60 q 924 82 903 60 q 961 149 945 104 l 968 168 l 1000 168 m 631 956 q 586 940 602 956 q 558 884 570 925 l 457 498 q 586 538 524 502 q 688 646 648 574 q 728 819 728 717 q 631 956 728 956 m 711 1239 q 1024 1314 848 1285 l 1031 1295 q 797 1191 907 1255 q 621 1055 688 1126 l 596 1055 q 526 1196 569 1140 q 404 1295 483 1251 l 409 1314 q 577 1281 509 1298 q 711 1239 646 1263 z "},"Ŗ":{"ha":1031,"x_min":-66,"x_max":1007,"o":"m 0 0 m 1000 168 l 994 150 q 909 21 967 62 q 751 -20 851 -20 q 601 18 651 -20 q 551 126 551 56 q 554 161 551 145 l 581 319 q 585 366 585 344 q 554 444 585 416 q 450 474 524 471 l 364 147 q 351 79 351 96 q 371 42 351 54 q 444 28 391 31 l 439 0 q 192 4 343 4 q -66 0 17 4 l -61 28 q 14 39 -11 30 q 54 71 39 47 q 82 147 68 95 l 264 836 q 276 901 276 885 q 256 940 276 928 q 183 956 235 952 l 191 983 q 427 979 271 979 q 559 981 486 979 q 639 982 616 982 q 848 963 767 982 q 968 902 928 944 q 1007 790 1007 860 q 953 641 1007 706 q 800 536 899 576 q 568 484 701 496 q 722 463 659 478 q 822 415 785 448 q 860 323 860 381 q 857 290 860 306 l 833 146 q 830 113 830 125 q 875 60 830 60 q 924 82 903 60 q 961 149 945 104 l 968 168 l 1000 168 m 631 956 q 586 940 602 956 q 558 884 570 925 l 457 498 q 586 538 524 502 q 688 646 648 574 q 728 819 728 717 q 631 956 728 956 m 321 -182 q 341 -117 321 -145 q 395 -74 361 -90 q 469 -58 429 -58 q 545 -80 513 -58 q 576 -147 576 -102 q 547 -244 576 -202 q 466 -310 518 -286 q 349 -335 414 -334 l 349 -306 q 457 -285 414 -305 q 511 -231 500 -264 q 418 -256 472 -256 q 321 -182 321 -256 z "},"S":{"ha":846,"x_min":-49,"x_max":901,"o":"m 901 993 q 819 710 848 864 l 791 710 q 800 786 800 747 q 747 918 800 870 q 600 965 694 965 q 492 932 534 965 q 450 831 450 900 q 470 745 450 788 q 518 665 489 703 q 595 571 547 627 q 682 464 649 508 q 737 369 714 420 q 760 261 760 317 q 695 103 760 167 q 537 10 631 40 q 355 -20 444 -20 q 240 -13 285 -20 q 162 7 195 -6 q 86 45 130 20 q 39 65 50 65 q 17 59 26 65 q 1 38 9 53 q -21 -9 -7 22 l -49 -9 q 46 323 -3 100 l 74 323 q 61 228 61 288 q 120 67 61 121 q 288 12 179 12 q 414 46 378 12 q 450 140 450 80 q 431 246 450 196 q 384 337 412 296 q 309 437 355 378 q 235 534 262 494 q 190 621 208 574 q 171 721 171 669 q 227 876 171 812 q 367 971 283 940 q 536 1003 452 1003 q 643 992 595 1003 q 713 971 690 981 q 782 939 736 961 q 797 932 804 929 q 828 920 821 920 q 849 937 839 920 q 873 993 860 954 l 901 993 z "},"Ś":{"ha":846,"x_min":-49,"x_max":901,"o":"m 0 0 m 901 993 q 819 710 848 864 l 791 710 q 800 786 800 747 q 747 918 800 870 q 600 965 694 965 q 492 932 534 965 q 450 831 450 900 q 470 745 450 788 q 518 665 489 703 q 595 571 547 627 q 682 464 649 508 q 737 369 714 420 q 760 261 760 317 q 695 103 760 167 q 537 10 631 40 q 355 -20 444 -20 q 240 -13 285 -20 q 162 7 195 -6 q 86 45 130 20 q 39 65 50 65 q 17 59 26 65 q 1 38 9 53 q -21 -9 -7 22 l -49 -9 q 46 323 -3 100 l 74 323 q 61 228 61 288 q 120 67 61 121 q 288 12 179 12 q 414 46 378 12 q 450 140 450 80 q 431 246 450 196 q 384 337 412 296 q 309 437 355 378 q 235 534 262 494 q 190 621 208 574 q 171 721 171 669 q 227 876 171 812 q 367 971 283 940 q 536 1003 452 1003 q 643 992 595 1003 q 713 971 690 981 q 782 939 736 961 q 797 932 804 929 q 828 920 821 920 q 849 937 839 920 q 873 993 860 954 l 901 993 m 481 1089 q 614 1221 541 1141 q 684 1291 659 1268 q 739 1331 709 1314 q 803 1347 768 1347 q 889 1299 863 1347 q 899 1261 899 1279 q 827 1169 899 1211 q 767 1145 800 1155 q 677 1122 734 1135 q 490 1072 562 1095 l 481 1089 z "},"Š":{"ha":846,"x_min":-49,"x_max":1000,"o":"m 0 0 m 901 993 q 819 710 848 864 l 791 710 q 800 786 800 747 q 747 918 800 870 q 600 965 694 965 q 492 932 534 965 q 450 831 450 900 q 470 745 450 788 q 518 665 489 703 q 595 571 547 627 q 682 464 649 508 q 737 369 714 420 q 760 261 760 317 q 695 103 760 167 q 537 10 631 40 q 355 -20 444 -20 q 240 -13 285 -20 q 162 7 195 -6 q 86 45 130 20 q 39 65 50 65 q 17 59 26 65 q 1 38 9 53 q -21 -9 -7 22 l -49 -9 q 46 323 -3 100 l 74 323 q 61 228 61 288 q 120 67 61 121 q 288 12 179 12 q 414 46 378 12 q 450 140 450 80 q 431 246 450 196 q 384 337 412 296 q 309 437 355 378 q 235 534 262 494 q 190 621 208 574 q 171 721 171 669 q 227 876 171 812 q 367 971 283 940 q 536 1003 452 1003 q 643 992 595 1003 q 713 971 690 981 q 782 939 736 961 q 797 932 804 929 q 828 920 821 920 q 849 937 839 920 q 873 993 860 954 l 901 993 m 681 1239 q 994 1314 818 1285 l 1000 1295 q 767 1191 876 1255 q 591 1055 657 1126 l 566 1055 q 495 1196 538 1140 q 373 1295 452 1251 l 378 1314 q 547 1281 478 1298 q 681 1239 616 1263 z "},"Ş":{"ha":846,"x_min":-49,"x_max":901,"o":"m 901 993 q 819 710 848 864 l 791 710 q 800 786 800 747 q 747 918 800 870 q 600 965 694 965 q 492 932 534 965 q 450 831 450 900 q 470 745 450 788 q 518 665 489 703 q 595 571 547 627 q 682 464 649 508 q 737 369 714 420 q 760 261 760 317 q 695 103 760 167 q 537 10 631 40 q 355 -20 444 -20 l 340 -20 l 313 -79 q 399 -62 355 -62 q 478 -81 449 -62 q 507 -136 507 -99 q 471 -208 507 -180 q 377 -248 435 -235 q 255 -261 320 -261 q 165 -253 208 -261 q 94 -236 122 -245 l 102 -214 q 153 -223 118 -218 q 215 -228 188 -228 q 329 -170 329 -228 q 290 -138 329 -138 q 247 -147 269 -138 l 302 -18 q 216 -9 252 -16 q 152 11 180 -1 q 86 45 124 23 q 39 65 50 65 q 17 59 26 65 q 1 38 9 53 q -21 -9 -7 22 l -49 -9 q 46 323 -3 100 l 74 323 q 61 228 61 288 q 120 67 61 121 q 288 12 179 12 q 414 46 378 12 q 450 140 450 80 q 431 246 450 196 q 384 337 412 296 q 309 437 355 378 q 235 534 262 494 q 190 621 208 574 q 171 721 171 669 q 227 876 171 812 q 367 971 283 940 q 536 1003 452 1003 q 643 992 595 1003 q 713 971 690 981 q 782 939 736 961 q 797 932 804 929 q 828 920 821 920 q 849 937 839 920 q 873 993 860 954 l 901 993 z "},"Ŝ":{"ha":846,"x_min":-49,"x_max":901,"o":"m 0 0 m 901 993 q 819 710 848 864 l 791 710 q 800 786 800 747 q 747 918 800 870 q 600 965 694 965 q 492 932 534 965 q 450 831 450 900 q 470 745 450 788 q 518 665 489 703 q 595 571 547 627 q 682 464 649 508 q 737 369 714 420 q 760 261 760 317 q 695 103 760 167 q 537 10 631 40 q 355 -20 444 -20 q 240 -13 285 -20 q 162 7 195 -6 q 86 45 130 20 q 39 65 50 65 q 17 59 26 65 q 1 38 9 53 q -21 -9 -7 22 l -49 -9 q 46 323 -3 100 l 74 323 q 61 228 61 288 q 120 67 61 121 q 288 12 179 12 q 414 46 378 12 q 450 140 450 80 q 431 246 450 196 q 384 337 412 296 q 309 437 355 378 q 235 534 262 494 q 190 621 208 574 q 171 721 171 669 q 227 876 171 812 q 367 971 283 940 q 536 1003 452 1003 q 643 992 595 1003 q 713 971 690 981 q 782 939 736 961 q 797 932 804 929 q 828 920 821 920 q 849 937 839 920 q 873 993 860 954 l 901 993 m 571 1145 q 259 1069 435 1099 l 252 1089 q 485 1192 375 1128 q 661 1328 594 1257 l 686 1328 q 757 1187 714 1242 q 880 1089 800 1133 l 874 1069 q 704 1103 772 1086 q 571 1145 635 1120 z "},"Ș":{"ha":846,"x_min":-49,"x_max":901,"o":"m 0 0 m 901 993 q 819 710 848 864 l 791 710 q 800 786 800 747 q 747 918 800 870 q 600 965 694 965 q 492 932 534 965 q 450 831 450 900 q 470 745 450 788 q 518 665 489 703 q 595 571 547 627 q 682 464 649 508 q 737 369 714 420 q 760 261 760 317 q 695 103 760 167 q 537 10 631 40 q 355 -20 444 -20 q 240 -13 285 -20 q 162 7 195 -6 q 86 45 130 20 q 39 65 50 65 q 17 59 26 65 q 1 38 9 53 q -21 -9 -7 22 l -49 -9 q 46 323 -3 100 l 74 323 q 61 228 61 288 q 120 67 61 121 q 288 12 179 12 q 414 46 378 12 q 450 140 450 80 q 431 246 450 196 q 384 337 412 296 q 309 437 355 378 q 235 534 262 494 q 190 621 208 574 q 171 721 171 669 q 227 876 171 812 q 367 971 283 940 q 536 1003 452 1003 q 643 992 595 1003 q 713 971 690 981 q 782 939 736 961 q 797 932 804 929 q 828 920 821 920 q 849 937 839 920 q 873 993 860 954 l 901 993 m 182 -182 q 202 -117 182 -145 q 256 -74 222 -90 q 330 -58 290 -58 q 406 -80 374 -58 q 437 -147 437 -102 q 408 -244 437 -202 q 327 -310 379 -286 q 210 -335 275 -334 l 210 -306 q 318 -285 275 -305 q 372 -231 361 -264 q 279 -256 333 -256 q 182 -182 182 -256 z "},"ẞ":{"ha":987,"x_min":-93,"x_max":960,"o":"m 187 -239 q -93 -261 54 -240 l 146 635 q 668 1003 243 1003 q 884 957 808 1003 q 960 812 960 910 q 906 686 960 745 q 763 586 852 628 q 567 519 673 543 q 777 472 696 510 q 891 384 857 435 q 925 281 925 334 q 868 120 925 188 q 709 16 810 52 q 478 -20 608 -20 q 319 103 319 -20 q 336 180 319 143 q 386 240 353 217 q 461 264 418 264 q 537 236 508 264 q 567 164 567 209 q 548 94 567 127 q 498 36 530 60 q 429 5 467 12 q 464 3 448 3 q 553 39 513 3 q 616 142 593 75 q 639 296 639 208 q 627 391 639 342 q 591 474 614 441 q 539 507 568 507 q 467 490 488 490 q 439 507 439 490 q 451 527 439 519 q 476 534 463 534 q 547 522 497 534 q 610 619 581 556 q 656 755 639 682 q 673 888 673 827 q 670 944 673 925 q 655 973 666 964 q 624 982 645 982 q 538 942 575 982 q 478 822 500 903 l 187 -239 z "},"T":{"ha":965,"x_min":109,"x_max":1234,"o":"m 1097 1231 q 1168 1214 1137 1231 q 1217 1170 1200 1197 q 1234 1111 1234 1142 q 1117 960 1234 1009 q 876 922 1025 922 q 836 923 850 922 l 635 161 q 625 101 625 125 q 651 48 625 64 q 739 28 677 32 l 733 0 q 443 4 635 4 q 171 0 258 4 l 176 28 q 269 42 236 30 q 320 81 302 54 q 353 161 339 109 l 561 943 q 403 950 455 950 q 244 926 294 950 q 334 883 299 919 q 368 791 368 848 q 350 721 368 752 q 301 671 332 689 q 233 653 271 653 q 166 671 195 653 q 123 721 138 690 q 109 787 109 751 q 132 873 109 831 q 210 942 155 915 q 396 975 278 975 q 673 962 494 975 q 890 950 821 950 q 1015 960 961 950 q 975 1017 991 983 q 960 1092 960 1050 q 977 1165 960 1134 q 1026 1214 995 1196 q 1097 1231 1057 1231 z "},"Ŧ":{"ha":985,"x_min":109,"x_max":1234,"o":"m 1097 1231 q 1168 1214 1137 1231 q 1217 1170 1200 1197 q 1234 1111 1234 1142 q 1117 960 1234 1009 q 876 922 1025 922 q 836 923 850 922 l 726 509 l 908 509 l 901 481 l 719 481 l 635 161 q 625 101 625 125 q 651 48 625 64 q 739 28 677 32 l 733 0 q 443 4 635 4 q 171 0 258 4 l 176 28 q 269 42 236 30 q 320 81 302 54 q 353 161 339 109 l 437 481 l 257 481 l 264 509 l 445 509 l 561 943 q 403 950 455 950 q 244 926 294 950 q 334 883 299 919 q 368 791 368 848 q 350 721 368 752 q 301 671 332 689 q 233 653 271 653 q 166 671 195 653 q 123 721 138 690 q 109 787 109 751 q 132 873 109 831 q 210 942 155 915 q 396 975 278 975 q 673 962 494 975 q 890 950 821 950 q 1015 960 961 950 q 975 1017 991 983 q 960 1092 960 1050 q 977 1165 960 1134 q 1026 1214 995 1196 q 1097 1231 1057 1231 z "},"Ť":{"ha":965,"x_min":109,"x_max":1234,"o":"m 109 0 m 1097 1231 q 1168 1214 1137 1231 q 1217 1170 1200 1197 q 1234 1111 1234 1142 q 1117 960 1234 1009 q 876 922 1025 922 q 836 923 850 922 l 635 161 q 625 101 625 125 q 651 48 625 64 q 739 28 677 32 l 733 0 q 443 4 635 4 q 171 0 258 4 l 176 28 q 269 42 236 30 q 320 81 302 54 q 353 161 339 109 l 561 943 q 403 950 455 950 q 244 926 294 950 q 334 883 299 919 q 368 791 368 848 q 350 721 368 752 q 301 671 332 689 q 233 653 271 653 q 166 671 195 653 q 123 721 138 690 q 109 787 109 751 q 132 873 109 831 q 210 942 155 915 q 396 975 278 975 q 673 962 494 975 q 890 950 821 950 q 1015 960 961 950 q 975 1017 991 983 q 960 1092 960 1050 q 977 1165 960 1134 q 1026 1214 995 1196 q 1097 1231 1057 1231 m 790 1239 q 1103 1314 927 1285 l 1109 1295 q 876 1191 985 1255 q 700 1055 766 1126 l 675 1055 q 605 1196 648 1140 q 482 1295 562 1251 l 488 1314 q 656 1281 587 1298 q 790 1239 725 1263 z "},"Ţ":{"ha":965,"x_min":109,"x_max":1234,"o":"m 1097 1231 q 1168 1214 1137 1231 q 1217 1170 1200 1197 q 1234 1111 1234 1142 q 1117 960 1234 1009 q 876 922 1025 922 q 836 923 850 922 l 635 161 q 625 101 625 125 q 651 48 625 64 q 739 28 677 32 l 733 0 q 464 4 642 4 l 427 -79 q 513 -62 469 -62 q 592 -81 563 -62 q 621 -136 621 -99 q 585 -208 621 -180 q 491 -248 549 -235 q 369 -261 434 -261 q 279 -253 322 -261 q 208 -236 236 -245 l 216 -214 q 267 -223 232 -218 q 329 -228 302 -228 q 443 -170 443 -228 q 404 -138 443 -138 q 361 -147 382 -138 l 427 4 q 171 0 254 4 l 176 28 q 269 42 236 30 q 320 81 302 54 q 353 161 339 109 l 561 943 q 403 950 455 950 q 244 926 294 950 q 334 883 299 919 q 368 791 368 848 q 350 721 368 752 q 301 671 332 689 q 233 653 271 653 q 166 671 195 653 q 123 721 138 690 q 109 787 109 751 q 132 873 109 831 q 210 942 155 915 q 396 975 278 975 q 673 962 494 975 q 890 950 821 950 q 1015 960 961 950 q 975 1017 991 983 q 960 1092 960 1050 q 977 1165 960 1134 q 1026 1214 995 1196 q 1097 1231 1057 1231 z "},"Ț":{"ha":965,"x_min":109,"x_max":1234,"o":"m 109 0 m 1097 1231 q 1168 1214 1137 1231 q 1217 1170 1200 1197 q 1234 1111 1234 1142 q 1117 960 1234 1009 q 876 922 1025 922 q 836 923 850 922 l 635 161 q 625 101 625 125 q 651 48 625 64 q 739 28 677 32 l 733 0 q 443 4 635 4 q 171 0 258 4 l 176 28 q 269 42 236 30 q 320 81 302 54 q 353 161 339 109 l 561 943 q 403 950 455 950 q 244 926 294 950 q 334 883 299 919 q 368 791 368 848 q 350 721 368 752 q 301 671 332 689 q 233 653 271 653 q 166 671 195 653 q 123 721 138 690 q 109 787 109 751 q 132 873 109 831 q 210 942 155 915 q 396 975 278 975 q 673 962 494 975 q 890 950 821 950 q 1015 960 961 950 q 975 1017 991 983 q 960 1092 960 1050 q 977 1165 960 1134 q 1026 1214 995 1196 q 1097 1231 1057 1231 m 296 -182 q 316 -117 296 -145 q 370 -74 336 -90 q 444 -58 404 -58 q 519 -80 488 -58 q 551 -147 551 -102 q 522 -244 551 -202 q 441 -310 493 -286 q 323 -335 389 -334 l 323 -306 q 432 -285 389 -305 q 486 -231 475 -264 q 393 -256 447 -256 q 296 -182 296 -256 z "},"U":{"ha":975,"x_min":98,"x_max":1105,"o":"m 904 711 q 935 869 935 827 q 924 913 935 897 q 890 940 913 930 q 827 956 867 949 l 835 983 q 989 979 889 979 q 1105 983 1062 979 l 1097 956 q 1026 926 1052 946 q 982 864 1000 905 q 942 739 964 822 l 856 404 q 720 110 805 211 q 594 15 669 50 q 435 -20 519 -20 q 236 16 313 -20 q 126 113 159 52 q 98 237 98 165 q 123 400 98 303 l 239 836 q 250 903 250 880 q 241 935 250 924 q 212 950 232 945 q 157 956 193 954 l 165 983 q 428 979 247 979 q 671 983 573 979 l 663 956 q 587 945 612 954 q 548 912 562 936 q 519 836 533 888 l 397 376 q 363 167 363 247 q 461 29 363 29 q 691 124 607 29 q 819 389 774 218 l 904 711 z "},"Ú":{"ha":975,"x_min":98,"x_max":1105,"o":"m 98 0 m 904 711 q 935 869 935 827 q 924 913 935 897 q 890 940 913 930 q 827 956 867 949 l 835 983 q 989 979 889 979 q 1105 983 1062 979 l 1097 956 q 1026 926 1052 946 q 982 864 1000 905 q 942 739 964 822 l 856 404 q 720 110 805 211 q 594 15 669 50 q 435 -20 519 -20 q 236 16 313 -20 q 126 113 159 52 q 98 237 98 165 q 123 400 98 303 l 239 836 q 250 903 250 880 q 241 935 250 924 q 212 950 232 945 q 157 956 193 954 l 165 983 q 428 979 247 979 q 671 983 573 979 l 663 956 q 587 945 612 954 q 548 912 562 936 q 519 836 533 888 l 397 376 q 363 167 363 247 q 461 29 363 29 q 691 124 607 29 q 819 389 774 218 l 904 711 m 603 1089 q 736 1221 663 1141 q 806 1291 781 1268 q 861 1331 831 1314 q 925 1347 890 1347 q 1011 1299 985 1347 q 1021 1261 1021 1279 q 949 1169 1021 1211 q 889 1145 922 1155 q 799 1122 856 1135 q 612 1072 684 1095 l 603 1089 z "},"Ŭ":{"ha":975,"x_min":98,"x_max":1105,"o":"m 98 0 m 904 711 q 935 869 935 827 q 924 913 935 897 q 890 940 913 930 q 827 956 867 949 l 835 983 q 989 979 889 979 q 1105 983 1062 979 l 1097 956 q 1026 926 1052 946 q 982 864 1000 905 q 942 739 964 822 l 856 404 q 720 110 805 211 q 594 15 669 50 q 435 -20 519 -20 q 236 16 313 -20 q 126 113 159 52 q 98 237 98 165 q 123 400 98 303 l 239 836 q 250 903 250 880 q 241 935 250 924 q 212 950 232 945 q 157 956 193 954 l 165 983 q 428 979 247 979 q 671 983 573 979 l 663 956 q 587 945 612 954 q 548 912 562 936 q 519 836 533 888 l 397 376 q 363 167 363 247 q 461 29 363 29 q 691 124 607 29 q 819 389 774 218 l 904 711 m 717 1225 q 895 1244 817 1225 q 1040 1303 973 1263 l 1057 1291 q 962 1176 1020 1229 q 832 1092 903 1124 q 688 1060 761 1060 q 535 1122 591 1060 q 460 1286 478 1185 l 481 1297 q 579 1242 525 1259 q 717 1225 633 1225 z "},"Û":{"ha":975,"x_min":98,"x_max":1105,"o":"m 98 0 m 904 711 q 935 869 935 827 q 924 913 935 897 q 890 940 913 930 q 827 956 867 949 l 835 983 q 989 979 889 979 q 1105 983 1062 979 l 1097 956 q 1026 926 1052 946 q 982 864 1000 905 q 942 739 964 822 l 856 404 q 720 110 805 211 q 594 15 669 50 q 435 -20 519 -20 q 236 16 313 -20 q 126 113 159 52 q 98 237 98 165 q 123 400 98 303 l 239 836 q 250 903 250 880 q 241 935 250 924 q 212 950 232 945 q 157 956 193 954 l 165 983 q 428 979 247 979 q 671 983 573 979 l 663 956 q 587 945 612 954 q 548 912 562 936 q 519 836 533 888 l 397 376 q 363 167 363 247 q 461 29 363 29 q 691 124 607 29 q 819 389 774 218 l 904 711 m 693 1145 q 381 1069 557 1099 l 374 1089 q 607 1192 497 1128 q 783 1328 716 1257 l 808 1328 q 879 1187 836 1242 q 1002 1089 922 1133 l 996 1069 q 826 1103 895 1086 q 693 1145 757 1120 z "},"Ü":{"ha":975,"x_min":98,"x_max":1105,"o":"m 98 0 m 904 711 q 935 869 935 827 q 924 913 935 897 q 890 940 913 930 q 827 956 867 949 l 835 983 q 989 979 889 979 q 1105 983 1062 979 l 1097 956 q 1026 926 1052 946 q 982 864 1000 905 q 942 739 964 822 l 856 404 q 720 110 805 211 q 594 15 669 50 q 435 -20 519 -20 q 236 16 313 -20 q 126 113 159 52 q 98 237 98 165 q 123 400 98 303 l 239 836 q 250 903 250 880 q 241 935 250 924 q 212 950 232 945 q 157 956 193 954 l 165 983 q 428 979 247 979 q 671 983 573 979 l 663 956 q 587 945 612 954 q 548 912 562 936 q 519 836 533 888 l 397 376 q 363 167 363 247 q 461 29 363 29 q 691 124 607 29 q 819 389 774 218 l 904 711 m 406 1164 q 425 1240 406 1210 q 475 1285 444 1271 q 543 1300 506 1300 q 622 1271 596 1300 q 648 1192 648 1242 q 628 1116 648 1146 q 576 1073 608 1086 q 509 1059 545 1059 q 431 1086 456 1059 q 406 1164 406 1114 m 764 1164 q 783 1240 764 1210 q 833 1285 802 1271 q 901 1300 864 1300 q 980 1271 954 1300 q 1006 1192 1006 1242 q 986 1116 1006 1146 q 935 1073 966 1086 q 867 1059 903 1059 q 789 1086 814 1059 q 764 1164 764 1114 z "},"Ù":{"ha":975,"x_min":98,"x_max":1105,"o":"m 98 0 m 904 711 q 935 869 935 827 q 924 913 935 897 q 890 940 913 930 q 827 956 867 949 l 835 983 q 989 979 889 979 q 1105 983 1062 979 l 1097 956 q 1026 926 1052 946 q 982 864 1000 905 q 942 739 964 822 l 856 404 q 720 110 805 211 q 594 15 669 50 q 435 -20 519 -20 q 236 16 313 -20 q 126 113 159 52 q 98 237 98 165 q 123 400 98 303 l 239 836 q 250 903 250 880 q 241 935 250 924 q 212 950 232 945 q 157 956 193 954 l 165 983 q 428 979 247 979 q 671 983 573 979 l 663 956 q 587 945 612 954 q 548 912 562 936 q 519 836 533 888 l 397 376 q 363 167 363 247 q 461 29 363 29 q 691 124 607 29 q 819 389 774 218 l 904 711 m 771 1072 q 586 1114 690 1097 q 522 1126 545 1120 q 477 1143 498 1132 q 437 1178 452 1156 q 422 1226 422 1200 q 431 1263 422 1245 q 467 1301 443 1288 q 518 1314 491 1314 q 562 1304 542 1314 q 603 1277 585 1293 q 648 1226 621 1260 q 781 1089 715 1145 l 771 1072 z "},"Ű":{"ha":975,"x_min":98,"x_max":1105,"o":"m 98 0 m 904 711 q 935 869 935 827 q 924 913 935 897 q 890 940 913 930 q 827 956 867 949 l 835 983 q 989 979 889 979 q 1105 983 1062 979 l 1097 956 q 1026 926 1052 946 q 982 864 1000 905 q 942 739 964 822 l 856 404 q 720 110 805 211 q 594 15 669 50 q 435 -20 519 -20 q 236 16 313 -20 q 126 113 159 52 q 98 237 98 165 q 123 400 98 303 l 239 836 q 250 903 250 880 q 241 935 250 924 q 212 950 232 945 q 157 956 193 954 l 165 983 q 428 979 247 979 q 671 983 573 979 l 663 956 q 587 945 612 954 q 548 912 562 936 q 519 836 533 888 l 397 376 q 363 167 363 247 q 461 29 363 29 q 691 124 607 29 q 819 389 774 218 l 904 711 m 445 1086 q 537 1220 489 1141 q 576 1278 562 1259 q 607 1310 590 1297 q 659 1326 631 1326 q 705 1315 683 1326 q 741 1282 726 1303 q 755 1236 755 1261 q 743 1194 755 1215 q 710 1160 731 1174 q 669 1140 692 1147 q 604 1120 646 1132 q 457 1072 519 1096 l 445 1086 m 760 1086 q 852 1220 804 1141 q 891 1278 878 1259 q 922 1310 905 1297 q 975 1326 946 1326 q 1021 1315 999 1326 q 1056 1282 1042 1303 q 1071 1236 1071 1261 q 1059 1194 1071 1215 q 1025 1160 1047 1174 q 985 1140 1008 1147 q 919 1120 962 1132 q 772 1072 835 1096 l 760 1086 z "},"Ū":{"ha":975,"x_min":98,"x_max":1105,"o":"m 98 0 m 904 711 q 935 869 935 827 q 924 913 935 897 q 890 940 913 930 q 827 956 867 949 l 835 983 q 989 979 889 979 q 1105 983 1062 979 l 1097 956 q 1026 926 1052 946 q 982 864 1000 905 q 942 739 964 822 l 856 404 q 720 110 805 211 q 594 15 669 50 q 435 -20 519 -20 q 236 16 313 -20 q 126 113 159 52 q 98 237 98 165 q 123 400 98 303 l 239 836 q 250 903 250 880 q 241 935 250 924 q 212 950 232 945 q 157 956 193 954 l 165 983 q 428 979 247 979 q 671 983 573 979 l 663 956 q 587 945 612 954 q 548 912 562 936 q 519 836 533 888 l 397 376 q 363 167 363 247 q 461 29 363 29 q 691 124 607 29 q 819 389 774 218 l 904 711 m 387 1137 l 396 1173 l 996 1173 l 987 1137 l 387 1137 z "},"Ų":{"ha":975,"x_min":98,"x_max":1105,"o":"m 989 979 q 1105 983 1061 979 l 1097 956 q 1026 926 1052 946 q 982 864 1000 905 q 942 739 964 822 l 856 404 q 720 110 805 211 q 555 -1 654 33 q 486 -45 514 -19 q 445 -100 458 -71 q 431 -154 431 -128 q 471 -191 431 -191 q 570 -164 513 -191 l 585 -187 q 367 -261 479 -261 q 274 -239 309 -261 q 240 -176 240 -216 q 297 -88 240 -127 q 448 -20 354 -48 l 435 -20 q 236 16 313 -20 q 126 113 159 52 q 98 237 98 165 q 123 400 98 303 l 239 836 q 250 903 250 880 q 241 935 250 924 q 212 950 232 945 q 157 956 193 954 l 165 983 q 428 979 247 979 q 671 983 573 979 l 663 956 q 587 945 612 954 q 548 912 562 936 q 519 836 533 888 l 397 376 q 363 167 363 247 q 461 29 363 29 q 691 124 607 29 q 819 389 774 218 l 904 711 q 935 869 935 827 q 924 913 935 897 q 890 940 913 930 q 827 956 867 949 l 835 983 q 989 979 889 979 z "},"Ů":{"ha":975,"x_min":98,"x_max":1105,"o":"m 98 0 m 904 711 q 935 869 935 827 q 924 913 935 897 q 890 940 913 930 q 827 956 867 949 l 835 983 q 989 979 889 979 q 1105 983 1062 979 l 1097 956 q 1026 926 1052 946 q 982 864 1000 905 q 942 739 964 822 l 856 404 q 720 110 805 211 q 594 15 669 50 q 435 -20 519 -20 q 236 16 313 -20 q 126 113 159 52 q 98 237 98 165 q 123 400 98 303 l 239 836 q 250 903 250 880 q 241 935 250 924 q 212 950 232 945 q 157 956 193 954 l 165 983 q 428 979 247 979 q 671 983 573 979 l 663 956 q 587 945 612 954 q 548 912 562 936 q 519 836 533 888 l 397 376 q 363 167 363 247 q 461 29 363 29 q 691 124 607 29 q 819 389 774 218 l 904 711 m 736 1312 q 811 1297 778 1312 q 864 1254 845 1282 q 884 1189 884 1225 q 858 1110 884 1146 q 790 1052 832 1074 q 699 1031 747 1031 q 626 1046 659 1031 q 576 1089 594 1061 q 557 1156 557 1118 q 581 1235 557 1199 q 646 1292 605 1271 q 736 1312 687 1312 m 706 1060 q 774 1077 742 1060 q 827 1123 807 1094 q 848 1186 848 1152 q 831 1239 848 1217 q 787 1272 814 1261 q 732 1283 761 1283 q 664 1265 696 1283 q 613 1218 632 1247 q 595 1156 595 1188 q 610 1104 595 1126 q 652 1071 626 1082 q 706 1060 677 1060 z "},"Ũ":{"ha":975,"x_min":98,"x_max":1105,"o":"m 98 0 m 904 711 q 935 869 935 827 q 924 913 935 897 q 890 940 913 930 q 827 956 867 949 l 835 983 q 989 979 889 979 q 1105 983 1062 979 l 1097 956 q 1026 926 1052 946 q 982 864 1000 905 q 942 739 964 822 l 856 404 q 720 110 805 211 q 594 15 669 50 q 435 -20 519 -20 q 236 16 313 -20 q 126 113 159 52 q 98 237 98 165 q 123 400 98 303 l 239 836 q 250 903 250 880 q 241 935 250 924 q 212 950 232 945 q 157 956 193 954 l 165 983 q 428 979 247 979 q 671 983 573 979 l 663 956 q 587 945 612 954 q 548 912 562 936 q 519 836 533 888 l 397 376 q 363 167 363 247 q 461 29 363 29 q 691 124 607 29 q 819 389 774 218 l 904 711 m 653 1317 q 741 1302 705 1317 q 816 1260 776 1288 q 874 1226 850 1238 q 932 1215 899 1215 q 992 1234 965 1215 q 1046 1296 1020 1253 l 1072 1289 q 958 1119 1029 1175 q 808 1063 887 1063 q 742 1070 771 1063 q 692 1089 713 1078 q 644 1119 671 1101 q 586 1153 610 1142 q 528 1164 562 1164 q 468 1145 495 1164 q 414 1083 441 1126 l 389 1090 q 503 1261 432 1204 q 653 1317 574 1317 z "},"V":{"ha":945,"x_min":125,"x_max":1120,"o":"m 1015 979 q 1120 983 1076 979 l 1112 956 q 1050 928 1076 945 q 995 880 1023 912 q 929 790 966 848 l 411 -7 q 359 -5 386 -5 q 307 -7 334 -5 l 197 867 q 171 933 192 911 q 125 956 149 954 l 132 983 q 366 979 211 979 q 607 983 526 979 l 600 956 q 534 946 558 954 q 499 921 511 939 q 488 868 488 903 q 489 839 488 850 l 552 258 l 905 802 q 937 882 937 849 q 811 956 937 947 l 818 983 q 1015 979 857 979 z "},"W":{"ha":1438,"x_min":119,"x_max":1604,"o":"m 1500 979 q 1604 983 1560 979 l 1597 956 q 1532 929 1558 944 q 1476 882 1505 914 q 1414 790 1447 849 l 960 -7 l 856 -7 l 779 605 l 406 -7 l 301 -7 l 192 867 q 165 933 186 912 q 119 956 144 954 l 126 983 q 359 979 205 979 q 559 983 491 979 l 553 956 q 512 946 526 954 q 490 920 497 939 q 483 867 483 902 q 484 839 483 849 l 545 275 l 774 646 l 746 867 q 724 933 741 911 q 688 956 707 954 l 694 983 q 914 979 770 979 q 1156 983 1074 979 l 1149 956 q 1083 946 1107 954 q 1048 921 1059 939 q 1036 868 1036 903 q 1038 839 1036 850 l 1097 290 l 1390 802 q 1419 884 1419 852 q 1388 935 1419 919 q 1296 956 1356 951 l 1303 983 q 1500 979 1343 979 z "},"Ẃ":{"ha":1438,"x_min":119,"x_max":1604,"o":"m 119 0 m 1500 979 q 1604 983 1560 979 l 1597 956 q 1532 929 1558 944 q 1476 882 1505 914 q 1414 790 1447 849 l 960 -7 l 856 -7 l 779 605 l 406 -7 l 301 -7 l 192 867 q 165 933 186 912 q 119 956 144 954 l 126 983 q 359 979 205 979 q 559 983 491 979 l 553 956 q 512 946 526 954 q 490 920 497 939 q 483 867 483 902 q 484 839 483 849 l 545 275 l 774 646 l 746 867 q 724 933 741 911 q 688 956 707 954 l 694 983 q 914 979 770 979 q 1156 983 1074 979 l 1149 956 q 1083 946 1107 954 q 1048 921 1059 939 q 1036 868 1036 903 q 1038 839 1036 850 l 1097 290 l 1390 802 q 1419 884 1419 852 q 1388 935 1419 919 q 1296 956 1356 951 l 1303 983 q 1500 979 1343 979 m 829 1085 q 962 1217 889 1137 q 1032 1287 1007 1264 q 1088 1326 1057 1310 q 1152 1343 1117 1343 q 1238 1295 1211 1343 q 1248 1257 1248 1275 q 1175 1165 1248 1206 q 1116 1141 1149 1151 q 1025 1118 1082 1131 q 839 1068 910 1091 l 829 1085 z "},"Ŵ":{"ha":1438,"x_min":119,"x_max":1604,"o":"m 119 0 m 1500 979 q 1604 983 1560 979 l 1597 956 q 1532 929 1558 944 q 1476 882 1505 914 q 1414 790 1447 849 l 960 -7 l 856 -7 l 779 605 l 406 -7 l 301 -7 l 192 867 q 165 933 186 912 q 119 956 144 954 l 126 983 q 359 979 205 979 q 559 983 491 979 l 553 956 q 512 946 526 954 q 490 920 497 939 q 483 867 483 902 q 484 839 483 849 l 545 275 l 774 646 l 746 867 q 724 933 741 911 q 688 956 707 954 l 694 983 q 914 979 770 979 q 1156 983 1074 979 l 1149 956 q 1083 946 1107 954 q 1048 921 1059 939 q 1036 868 1036 903 q 1038 839 1036 850 l 1097 290 l 1390 802 q 1419 884 1419 852 q 1388 935 1419 919 q 1296 956 1356 951 l 1303 983 q 1500 979 1343 979 m 920 1141 q 608 1065 784 1095 l 600 1085 q 833 1188 724 1124 q 1010 1324 943 1253 l 1035 1324 q 1106 1183 1063 1238 q 1228 1085 1149 1128 l 1223 1065 q 1052 1099 1121 1082 q 920 1141 983 1116 z "},"Ẅ":{"ha":1438,"x_min":119,"x_max":1604,"o":"m 119 0 m 1500 979 q 1604 983 1560 979 l 1597 956 q 1532 929 1558 944 q 1476 882 1505 914 q 1414 790 1447 849 l 960 -7 l 856 -7 l 779 605 l 406 -7 l 301 -7 l 192 867 q 165 933 186 912 q 119 956 144 954 l 126 983 q 359 979 205 979 q 559 983 491 979 l 553 956 q 512 946 526 954 q 490 920 497 939 q 483 867 483 902 q 484 839 483 849 l 545 275 l 774 646 l 746 867 q 724 933 741 911 q 688 956 707 954 l 694 983 q 914 979 770 979 q 1156 983 1074 979 l 1149 956 q 1083 946 1107 954 q 1048 921 1059 939 q 1036 868 1036 903 q 1038 839 1036 850 l 1097 290 l 1390 802 q 1419 884 1419 852 q 1388 935 1419 919 q 1296 956 1356 951 l 1303 983 q 1500 979 1343 979 m 632 1160 q 651 1236 632 1206 q 701 1281 670 1267 q 770 1296 732 1296 q 848 1267 823 1296 q 874 1187 874 1238 q 854 1112 874 1142 q 803 1068 835 1082 q 735 1055 771 1055 q 657 1082 682 1055 q 632 1160 632 1110 m 991 1160 q 1010 1236 991 1206 q 1060 1281 1029 1267 q 1128 1296 1090 1296 q 1206 1267 1181 1296 q 1232 1187 1232 1238 q 1213 1112 1232 1142 q 1161 1068 1193 1082 q 1093 1055 1130 1055 q 1016 1082 1040 1055 q 991 1160 991 1110 z "},"Ẁ":{"ha":1438,"x_min":119,"x_max":1604,"o":"m 119 0 m 1500 979 q 1604 983 1560 979 l 1597 956 q 1532 929 1558 944 q 1476 882 1505 914 q 1414 790 1447 849 l 960 -7 l 856 -7 l 779 605 l 406 -7 l 301 -7 l 192 867 q 165 933 186 912 q 119 956 144 954 l 126 983 q 359 979 205 979 q 559 983 491 979 l 553 956 q 512 946 526 954 q 490 920 497 939 q 483 867 483 902 q 484 839 483 849 l 545 275 l 774 646 l 746 867 q 724 933 741 911 q 688 956 707 954 l 694 983 q 914 979 770 979 q 1156 983 1074 979 l 1149 956 q 1083 946 1107 954 q 1048 921 1059 939 q 1036 868 1036 903 q 1038 839 1036 850 l 1097 290 l 1390 802 q 1419 884 1419 852 q 1388 935 1419 919 q 1296 956 1356 951 l 1303 983 q 1500 979 1343 979 m 998 1068 q 812 1110 917 1093 q 748 1122 772 1116 q 703 1139 724 1128 q 663 1174 678 1152 q 648 1222 648 1196 q 657 1259 648 1241 q 693 1297 669 1284 q 745 1310 718 1310 q 788 1300 768 1310 q 829 1273 812 1289 q 875 1222 847 1256 q 1007 1085 942 1141 l 998 1068 z "},"X":{"ha":1068,"x_min":-62,"x_max":1169,"o":"m 1019 1003 q 1098 982 1064 1003 q 1151 924 1132 960 q 1169 842 1169 887 q 1149 757 1169 793 q 1095 701 1129 721 q 1018 681 1060 681 q 935 712 966 681 q 904 798 904 743 q 922 874 904 838 q 974 934 941 909 q 1048 968 1006 958 q 1013 979 1038 979 q 921 945 970 979 q 813 813 873 904 q 695 595 753 723 l 750 146 q 808 93 758 93 q 890 165 865 93 l 914 236 l 942 236 l 905 129 q 825 15 876 50 q 697 -20 774 -20 q 567 5 616 -20 q 494 77 518 30 q 460 197 469 123 l 444 321 q 335 152 395 231 q 218 26 275 73 q 87 -20 155 -20 q 9 2 43 -20 q -44 60 -25 23 q -62 142 -62 96 q -42 226 -62 190 q 12 282 -22 262 q 89 302 47 302 q 172 272 141 302 q 203 186 203 241 q 184 110 203 145 q 133 50 166 74 q 58 16 100 25 q 94 4 68 4 q 189 39 134 4 q 308 161 241 76 q 439 365 376 246 l 379 844 q 362 887 375 874 q 323 900 349 900 q 239 818 267 900 l 215 747 l 187 747 l 224 854 q 310 968 253 933 q 450 1003 366 1003 q 568 980 523 1003 q 638 909 614 957 q 672 786 663 862 l 690 642 q 790 824 735 740 q 893 953 845 908 q 1019 1003 956 1003 z "},"Y":{"ha":1078,"x_min":102,"x_max":1186,"o":"m 1023 1003 q 1108 983 1072 1003 q 1166 930 1145 964 q 1186 854 1186 896 q 1165 778 1186 811 q 1109 726 1145 744 q 1031 708 1074 708 q 940 735 974 708 q 907 811 907 763 q 926 885 907 852 q 978 940 945 918 q 1051 968 1010 961 q 1017 979 1041 979 q 974 972 994 979 q 928 946 953 964 q 842 847 892 920 q 741 662 792 774 q 653 413 690 550 l 586 147 q 578 98 578 116 q 591 55 578 70 q 629 35 604 41 q 696 28 654 30 l 689 0 q 406 4 602 4 q 154 0 235 4 l 161 28 q 237 39 212 30 q 277 72 262 47 q 304 147 292 96 l 376 431 q 315 749 356 614 q 218 884 275 884 q 180 865 194 884 q 155 818 165 847 l 132 747 l 102 747 l 131 836 q 222 964 160 926 q 366 1003 284 1003 q 524 949 469 1003 q 606 794 580 895 q 653 513 632 694 q 859 920 740 781 q 1023 1003 930 1003 z "},"Ý":{"ha":1078,"x_min":102,"x_max":1186,"o":"m 102 0 m 1023 1003 q 1108 983 1072 1003 q 1166 930 1145 964 q 1186 854 1186 896 q 1165 778 1186 811 q 1109 726 1145 744 q 1031 708 1074 708 q 940 735 974 708 q 907 811 907 763 q 926 885 907 852 q 978 940 945 918 q 1051 968 1010 961 q 1017 979 1041 979 q 974 972 994 979 q 928 946 953 964 q 842 847 892 920 q 741 662 792 774 q 653 413 690 550 l 586 147 q 578 98 578 116 q 591 55 578 70 q 629 35 604 41 q 696 28 654 30 l 689 0 q 406 4 602 4 q 154 0 235 4 l 161 28 q 237 39 212 30 q 277 72 262 47 q 304 147 292 96 l 376 431 q 315 749 356 614 q 218 884 275 884 q 180 865 194 884 q 155 818 165 847 l 132 747 l 102 747 l 131 836 q 222 964 160 926 q 366 1003 284 1003 q 524 949 469 1003 q 606 794 580 895 q 653 513 632 694 q 859 920 740 781 q 1023 1003 930 1003 m 589 1089 q 722 1221 648 1141 q 791 1291 766 1268 q 847 1331 817 1314 q 911 1347 876 1347 q 997 1299 970 1347 q 1007 1261 1007 1279 q 935 1169 1007 1211 q 875 1145 908 1155 q 785 1122 842 1135 q 598 1072 669 1095 l 589 1089 z "},"Ŷ":{"ha":1078,"x_min":102,"x_max":1186,"o":"m 102 0 m 1023 1003 q 1108 983 1072 1003 q 1166 930 1145 964 q 1186 854 1186 896 q 1165 778 1186 811 q 1109 726 1145 744 q 1031 708 1074 708 q 940 735 974 708 q 907 811 907 763 q 926 885 907 852 q 978 940 945 918 q 1051 968 1010 961 q 1017 979 1041 979 q 974 972 994 979 q 928 946 953 964 q 842 847 892 920 q 741 662 792 774 q 653 413 690 550 l 586 147 q 578 98 578 116 q 591 55 578 70 q 629 35 604 41 q 696 28 654 30 l 689 0 q 406 4 602 4 q 154 0 235 4 l 161 28 q 237 39 212 30 q 277 72 262 47 q 304 147 292 96 l 376 431 q 315 749 356 614 q 218 884 275 884 q 180 865 194 884 q 155 818 165 847 l 132 747 l 102 747 l 131 836 q 222 964 160 926 q 366 1003 284 1003 q 524 949 469 1003 q 606 794 580 895 q 653 513 632 694 q 859 920 740 781 q 1023 1003 930 1003 m 679 1145 q 367 1069 543 1099 l 359 1089 q 592 1192 483 1128 q 769 1328 702 1257 l 794 1328 q 865 1187 822 1242 q 987 1089 908 1133 l 982 1069 q 811 1103 880 1086 q 679 1145 743 1120 z "},"Ÿ":{"ha":1078,"x_min":102,"x_max":1186,"o":"m 102 0 m 1023 1003 q 1108 983 1072 1003 q 1166 930 1145 964 q 1186 854 1186 896 q 1165 778 1186 811 q 1109 726 1145 744 q 1031 708 1074 708 q 940 735 974 708 q 907 811 907 763 q 926 885 907 852 q 978 940 945 918 q 1051 968 1010 961 q 1017 979 1041 979 q 974 972 994 979 q 928 946 953 964 q 842 847 892 920 q 741 662 792 774 q 653 413 690 550 l 586 147 q 578 98 578 116 q 591 55 578 70 q 629 35 604 41 q 696 28 654 30 l 689 0 q 406 4 602 4 q 154 0 235 4 l 161 28 q 237 39 212 30 q 277 72 262 47 q 304 147 292 96 l 376 431 q 315 749 356 614 q 218 884 275 884 q 180 865 194 884 q 155 818 165 847 l 132 747 l 102 747 l 131 836 q 222 964 160 926 q 366 1003 284 1003 q 524 949 469 1003 q 606 794 580 895 q 653 513 632 694 q 859 920 740 781 q 1023 1003 930 1003 m 391 1164 q 410 1240 391 1210 q 460 1285 429 1271 q 529 1300 492 1300 q 608 1271 582 1300 q 633 1192 633 1242 q 614 1116 633 1146 q 562 1073 594 1086 q 494 1059 530 1059 q 416 1086 441 1059 q 391 1164 391 1114 m 750 1164 q 769 1240 750 1210 q 819 1285 788 1271 q 887 1300 850 1300 q 966 1271 940 1300 q 991 1192 991 1242 q 972 1116 991 1146 q 921 1073 952 1086 q 852 1059 889 1059 q 775 1086 800 1059 q 750 1164 750 1114 z "},"Ỳ":{"ha":1078,"x_min":102,"x_max":1186,"o":"m 102 0 m 1023 1003 q 1108 983 1072 1003 q 1166 930 1145 964 q 1186 854 1186 896 q 1165 778 1186 811 q 1109 726 1145 744 q 1031 708 1074 708 q 940 735 974 708 q 907 811 907 763 q 926 885 907 852 q 978 940 945 918 q 1051 968 1010 961 q 1017 979 1041 979 q 974 972 994 979 q 928 946 953 964 q 842 847 892 920 q 741 662 792 774 q 653 413 690 550 l 586 147 q 578 98 578 116 q 591 55 578 70 q 629 35 604 41 q 696 28 654 30 l 689 0 q 406 4 602 4 q 154 0 235 4 l 161 28 q 237 39 212 30 q 277 72 262 47 q 304 147 292 96 l 376 431 q 315 749 356 614 q 218 884 275 884 q 180 865 194 884 q 155 818 165 847 l 132 747 l 102 747 l 131 836 q 222 964 160 926 q 366 1003 284 1003 q 524 949 469 1003 q 606 794 580 895 q 653 513 632 694 q 859 920 740 781 q 1023 1003 930 1003 m 757 1072 q 572 1114 676 1097 q 507 1126 531 1120 q 463 1143 484 1132 q 422 1178 437 1156 q 408 1226 408 1200 q 416 1263 408 1245 q 453 1301 429 1288 q 504 1314 477 1314 q 547 1304 528 1314 q 589 1277 571 1293 q 634 1226 606 1260 q 766 1089 701 1145 l 757 1072 z "},"Z":{"ha":920,"x_min":-41,"x_max":1005,"o":"m 997 990 q 1005 972 1005 983 q 979 929 1005 952 q 901 886 954 906 l 517 509 l 728 509 l 717 481 l 489 481 l 114 113 q 407 253 261 253 q 505 244 463 253 q 598 221 547 236 q 651 207 632 212 q 689 203 670 203 q 729 235 729 203 q 628 300 729 280 l 633 326 q 778 274 720 313 q 836 165 836 235 q 809 70 836 112 q 731 4 781 28 q 612 -20 680 -20 q 508 -6 553 -20 q 402 35 463 7 q 297 74 341 61 q 197 87 254 87 q 89 66 150 87 q 36 8 64 31 q -14 -14 7 -14 q -33 -7 -24 -14 q -41 12 -41 1 q -16 54 -41 31 q 62 97 10 77 l 453 481 l 228 481 l 237 509 l 481 509 l 846 867 q 558 730 702 730 q 460 739 503 730 q 367 762 418 747 q 277 781 307 781 q 236 749 236 781 q 338 684 236 703 l 330 657 q 186 709 244 670 q 127 818 127 749 q 155 913 127 871 q 233 979 182 956 q 351 1003 283 1003 q 455 989 410 1003 q 562 949 500 976 q 666 909 623 922 q 766 896 710 896 q 875 917 814 896 q 928 976 900 954 q 977 998 956 998 q 997 990 988 998 z "},"Ź":{"ha":920,"x_min":-41,"x_max":1005,"o":"m 0 0 m 997 990 q 1005 972 1005 983 q 979 929 1005 952 q 901 886 954 906 l 517 509 l 728 509 l 717 481 l 489 481 l 114 113 q 407 253 261 253 q 505 244 463 253 q 598 221 547 236 q 651 207 632 212 q 689 203 670 203 q 729 235 729 203 q 628 300 729 280 l 633 326 q 778 274 720 313 q 836 165 836 235 q 809 70 836 112 q 731 4 781 28 q 612 -20 680 -20 q 508 -6 553 -20 q 402 35 463 7 q 297 74 341 61 q 197 87 254 87 q 89 66 150 87 q 36 8 64 31 q -14 -14 7 -14 q -33 -7 -24 -14 q -41 12 -41 1 q -16 54 -41 31 q 62 97 10 77 l 453 481 l 228 481 l 237 509 l 481 509 l 846 867 q 558 730 702 730 q 460 739 503 730 q 367 762 418 747 q 277 781 307 781 q 236 749 236 781 q 338 684 236 703 l 330 657 q 186 709 244 670 q 127 818 127 749 q 155 913 127 871 q 233 979 182 956 q 351 1003 283 1003 q 455 989 410 1003 q 562 949 500 976 q 666 909 623 922 q 766 896 710 896 q 875 917 814 896 q 928 976 900 954 q 977 998 956 998 q 997 990 988 998 m 510 1089 q 643 1221 570 1141 q 713 1291 688 1268 q 768 1331 738 1314 q 832 1347 798 1347 q 918 1299 892 1347 q 928 1261 928 1279 q 856 1169 928 1211 q 796 1145 829 1155 q 706 1122 763 1135 q 519 1072 591 1095 l 510 1089 z "},"Ž":{"ha":920,"x_min":-41,"x_max":1029,"o":"m 0 0 m 997 990 q 1005 972 1005 983 q 979 929 1005 952 q 901 886 954 906 l 517 509 l 728 509 l 717 481 l 489 481 l 114 113 q 407 253 261 253 q 505 244 463 253 q 598 221 547 236 q 651 207 632 212 q 689 203 670 203 q 729 235 729 203 q 628 300 729 280 l 633 326 q 778 274 720 313 q 836 165 836 235 q 809 70 836 112 q 731 4 781 28 q 612 -20 680 -20 q 508 -6 553 -20 q 402 35 463 7 q 297 74 341 61 q 197 87 254 87 q 89 66 150 87 q 36 8 64 31 q -14 -14 7 -14 q -33 -7 -24 -14 q -41 12 -41 1 q -16 54 -41 31 q 62 97 10 77 l 453 481 l 228 481 l 237 509 l 481 509 l 846 867 q 558 730 702 730 q 460 739 503 730 q 367 762 418 747 q 277 781 307 781 q 236 749 236 781 q 338 684 236 703 l 330 657 q 186 709 244 670 q 127 818 127 749 q 155 913 127 871 q 233 979 182 956 q 351 1003 283 1003 q 455 989 410 1003 q 562 949 500 976 q 666 909 623 922 q 766 896 710 896 q 875 917 814 896 q 928 976 900 954 q 977 998 956 998 q 997 990 988 998 m 710 1239 q 1023 1314 847 1285 l 1029 1295 q 796 1191 905 1255 q 620 1055 686 1126 l 595 1055 q 525 1196 568 1140 q 402 1295 481 1251 l 408 1314 q 576 1281 507 1298 q 710 1239 645 1263 z "},"Ż":{"ha":920,"x_min":-41,"x_max":1005,"o":"m 0 0 m 997 990 q 1005 972 1005 983 q 979 929 1005 952 q 901 886 954 906 l 517 509 l 728 509 l 717 481 l 489 481 l 114 113 q 407 253 261 253 q 505 244 463 253 q 598 221 547 236 q 651 207 632 212 q 689 203 670 203 q 729 235 729 203 q 628 300 729 280 l 633 326 q 778 274 720 313 q 836 165 836 235 q 809 70 836 112 q 731 4 781 28 q 612 -20 680 -20 q 508 -6 553 -20 q 402 35 463 7 q 297 74 341 61 q 197 87 254 87 q 89 66 150 87 q 36 8 64 31 q -14 -14 7 -14 q -33 -7 -24 -14 q -41 12 -41 1 q -16 54 -41 31 q 62 97 10 77 l 453 481 l 228 481 l 237 509 l 481 509 l 846 867 q 558 730 702 730 q 460 739 503 730 q 367 762 418 747 q 277 781 307 781 q 236 749 236 781 q 338 684 236 703 l 330 657 q 186 709 244 670 q 127 818 127 749 q 155 913 127 871 q 233 979 182 956 q 351 1003 283 1003 q 455 989 410 1003 q 562 949 500 976 q 666 909 623 922 q 766 896 710 896 q 875 917 814 896 q 928 976 900 954 q 977 998 956 998 q 997 990 988 998 m 469 1147 q 515 1257 469 1219 q 637 1295 562 1295 q 762 1200 762 1295 q 739 1124 762 1157 q 677 1073 716 1091 q 591 1055 638 1055 q 499 1079 530 1055 q 469 1147 469 1103 z "},"a":{"ha":808,"x_min":-9,"x_max":791,"o":"m 750 225 l 715 123 q 517 -20 665 -20 q 396 29 431 -20 q 373 115 373 62 q 374 139 373 130 q 288 17 340 53 q 163 -20 235 -20 q 34 25 77 -20 q -9 154 -9 69 q 60 422 -9 285 q 235 650 130 559 q 436 741 340 741 q 523 661 515 741 l 541 720 q 791 741 678 722 l 604 118 q 598 84 598 100 q 621 60 598 60 q 694 147 662 60 l 724 225 l 750 225 m 283 75 q 338 114 311 75 q 400 254 366 153 l 509 613 q 510 633 510 628 q 484 672 510 672 q 388 592 444 672 q 292 389 332 511 q 252 149 252 267 q 258 92 252 108 q 283 75 265 75 z "},"á":{"ha":808,"x_min":-9,"x_max":810,"o":"m 0 0 m 750 225 l 715 123 q 517 -20 665 -20 q 396 29 431 -20 q 373 115 373 62 q 374 139 373 130 q 288 17 340 53 q 163 -20 235 -20 q 34 25 77 -20 q -9 154 -9 69 q 60 422 -9 285 q 235 650 130 559 q 436 741 340 741 q 523 661 515 741 l 541 720 q 791 741 678 722 l 604 118 q 598 84 598 100 q 621 60 598 60 q 694 147 662 60 l 724 225 l 750 225 m 283 75 q 338 114 311 75 q 400 254 366 153 l 509 613 q 510 633 510 628 q 484 672 510 672 q 388 592 444 672 q 292 389 332 511 q 252 149 252 267 q 258 92 252 108 q 283 75 265 75 m 456 846 q 546 1010 491 901 q 591 1095 572 1065 q 633 1150 609 1126 q 675 1179 651 1168 q 722 1190 699 1190 q 787 1162 760 1190 q 810 1110 810 1139 q 764 1022 810 1069 q 714 982 743 1000 q 633 933 686 963 q 470 832 528 873 l 456 846 z "},"ă":{"ha":808,"x_min":-9,"x_max":861,"o":"m 0 0 m 750 225 l 715 123 q 517 -20 665 -20 q 396 29 431 -20 q 373 115 373 62 q 374 139 373 130 q 288 17 340 53 q 163 -20 235 -20 q 34 25 77 -20 q -9 154 -9 69 q 60 422 -9 285 q 235 650 130 559 q 436 741 340 741 q 523 661 515 741 l 541 720 q 791 741 678 722 l 604 118 q 598 84 598 100 q 621 60 598 60 q 694 147 662 60 l 724 225 l 750 225 m 283 75 q 338 114 311 75 q 400 254 366 153 l 509 613 q 510 633 510 628 q 484 672 510 672 q 388 592 444 672 q 292 389 332 511 q 252 149 252 267 q 258 92 252 108 q 283 75 265 75 m 567 1017 q 845 1095 726 1017 l 861 1082 q 777 967 828 1020 q 662 883 726 915 q 534 851 599 851 q 418 913 460 851 q 361 1078 375 976 l 382 1089 q 457 1034 416 1050 q 567 1017 497 1017 z "},"â":{"ha":808,"x_min":-9,"x_max":795,"o":"m 0 0 m 750 225 l 715 123 q 517 -20 665 -20 q 396 29 431 -20 q 373 115 373 62 q 374 139 373 130 q 288 17 340 53 q 163 -20 235 -20 q 34 25 77 -20 q -9 154 -9 69 q 60 422 -9 285 q 235 650 130 559 q 436 741 340 741 q 523 661 515 741 l 541 720 q 791 741 678 722 l 604 118 q 598 84 598 100 q 621 60 598 60 q 694 147 662 60 l 724 225 l 750 225 m 283 75 q 338 114 311 75 q 400 254 366 153 l 509 613 q 510 633 510 628 q 484 672 510 672 q 388 592 444 672 q 292 389 332 511 q 252 149 252 267 q 258 92 252 108 q 283 75 265 75 m 514 917 q 258 842 410 873 l 250 861 q 452 987 357 908 q 605 1156 546 1067 l 629 1156 q 689 981 652 1050 q 795 861 727 913 l 789 842 q 514 917 625 871 z "},"ä":{"ha":808,"x_min":-9,"x_max":853,"o":"m 0 0 m 750 225 l 715 123 q 517 -20 665 -20 q 396 29 431 -20 q 373 115 373 62 q 374 139 373 130 q 288 17 340 53 q 163 -20 235 -20 q 34 25 77 -20 q -9 154 -9 69 q 60 422 -9 285 q 235 650 130 559 q 436 741 340 741 q 523 661 515 741 l 541 720 q 791 741 678 722 l 604 118 q 598 84 598 100 q 621 60 598 60 q 694 147 662 60 l 724 225 l 750 225 m 283 75 q 338 114 311 75 q 400 254 366 153 l 509 613 q 510 633 510 628 q 484 672 510 672 q 388 592 444 672 q 292 389 332 511 q 252 149 252 267 q 258 92 252 108 q 283 75 265 75 m 281 936 q 300 1013 281 982 q 350 1058 319 1043 q 418 1072 381 1072 q 497 1043 472 1072 q 523 964 523 1015 q 503 888 523 918 q 452 845 484 859 q 384 831 420 831 q 306 859 331 831 q 281 936 281 886 m 612 936 q 651 1038 612 1004 q 749 1072 691 1072 q 828 1043 802 1072 q 853 964 853 1015 q 833 888 853 918 q 782 845 814 859 q 714 831 751 831 q 636 859 661 831 q 612 936 612 886 z "},"à":{"ha":808,"x_min":-9,"x_max":791,"o":"m 0 0 m 750 225 l 715 123 q 517 -20 665 -20 q 396 29 431 -20 q 373 115 373 62 q 374 139 373 130 q 288 17 340 53 q 163 -20 235 -20 q 34 25 77 -20 q -9 154 -9 69 q 60 422 -9 285 q 235 650 130 559 q 436 741 340 741 q 523 661 515 741 l 541 720 q 791 741 678 722 l 604 118 q 598 84 598 100 q 621 60 598 60 q 694 147 662 60 l 724 225 l 750 225 m 283 75 q 338 114 311 75 q 400 254 366 153 l 509 613 q 510 633 510 628 q 484 672 510 672 q 388 592 444 672 q 292 389 332 511 q 252 149 252 267 q 258 92 252 108 q 283 75 265 75 m 538 832 q 401 965 476 902 q 353 1010 370 993 q 323 1047 336 1027 q 309 1100 309 1073 q 318 1141 309 1122 q 347 1173 328 1160 q 395 1186 368 1186 q 445 1173 421 1186 q 481 1140 469 1160 q 501 1095 495 1118 q 513 1027 507 1072 q 554 842 527 925 l 538 832 z "},"ā":{"ha":808,"x_min":-9,"x_max":813,"o":"m 0 0 m 750 225 l 715 123 q 517 -20 665 -20 q 396 29 431 -20 q 373 115 373 62 q 374 139 373 130 q 288 17 340 53 q 163 -20 235 -20 q 34 25 77 -20 q -9 154 -9 69 q 60 422 -9 285 q 235 650 130 559 q 436 741 340 741 q 523 661 515 741 l 541 720 q 791 741 678 722 l 604 118 q 598 84 598 100 q 621 60 598 60 q 694 147 662 60 l 724 225 l 750 225 m 283 75 q 338 114 311 75 q 400 254 366 153 l 509 613 q 510 633 510 628 q 484 672 510 672 q 388 592 444 672 q 292 389 332 511 q 252 149 252 267 q 258 92 252 108 q 283 75 265 75 m 316 954 l 324 989 l 813 989 l 804 954 l 316 954 z "},"ą":{"ha":808,"x_min":-9,"x_max":791,"o":"m 750 225 l 715 123 q 593 -8 680 22 q 513 -77 541 -36 q 485 -157 485 -118 q 517 -191 485 -191 q 558 -179 536 -191 q 599 -149 580 -167 l 619 -167 q 420 -261 541 -261 q 329 -239 363 -261 q 294 -176 294 -216 q 351 -88 294 -128 q 503 -19 408 -48 q 396 29 429 -16 q 373 115 373 62 q 374 139 373 130 q 288 17 340 53 q 163 -20 235 -20 q 34 25 77 -20 q -9 154 -9 69 q 60 422 -9 285 q 235 650 130 559 q 436 741 340 741 q 523 661 515 741 l 541 720 q 791 741 678 722 l 604 118 q 598 84 598 100 q 621 60 598 60 q 694 147 662 60 l 724 225 l 750 225 m 283 75 q 338 114 311 75 q 400 254 366 153 l 509 613 q 510 633 510 628 q 484 672 510 672 q 388 592 444 672 q 292 389 332 511 q 252 149 252 267 q 258 92 252 108 q 283 75 265 75 z "},"å":{"ha":808,"x_min":-9,"x_max":791,"o":"m 0 0 m 750 225 l 715 123 q 517 -20 665 -20 q 396 29 431 -20 q 373 115 373 62 q 374 139 373 130 q 288 17 340 53 q 163 -20 235 -20 q 34 25 77 -20 q -9 154 -9 69 q 60 422 -9 285 q 235 650 130 559 q 436 741 340 741 q 523 661 515 741 l 541 720 q 791 741 678 722 l 604 118 q 598 84 598 100 q 621 60 598 60 q 694 147 662 60 l 724 225 l 750 225 m 283 75 q 338 114 311 75 q 400 254 366 153 l 509 613 q 510 633 510 628 q 484 672 510 672 q 388 592 444 672 q 292 389 332 511 q 252 149 252 267 q 258 92 252 108 q 283 75 265 75 m 591 1112 q 666 1097 632 1112 q 719 1054 699 1082 q 738 989 738 1025 q 712 910 738 946 q 644 852 686 873 q 553 831 602 831 q 480 846 513 831 q 430 889 448 861 q 412 956 412 918 q 435 1035 412 999 q 500 1092 459 1071 q 591 1112 541 1112 m 560 860 q 629 877 596 860 q 682 923 661 894 q 702 986 702 952 q 685 1039 702 1017 q 642 1072 668 1061 q 587 1083 615 1083 q 518 1065 550 1083 q 468 1018 486 1047 q 449 956 449 988 q 465 904 449 926 q 506 871 480 882 q 560 860 532 860 z "},"ã":{"ha":808,"x_min":-9,"x_max":853,"o":"m 0 0 m 750 225 l 715 123 q 517 -20 665 -20 q 396 29 431 -20 q 373 115 373 62 q 374 139 373 130 q 288 17 340 53 q 163 -20 235 -20 q 34 25 77 -20 q -9 154 -9 69 q 60 422 -9 285 q 235 650 130 559 q 436 741 340 741 q 523 661 515 741 l 541 720 q 791 741 678 722 l 604 118 q 598 84 598 100 q 621 60 598 60 q 694 147 662 60 l 724 225 l 750 225 m 283 75 q 338 114 311 75 q 400 254 366 153 l 509 613 q 510 633 510 628 q 484 672 510 672 q 388 592 444 672 q 292 389 332 511 q 252 149 252 267 q 258 92 252 108 q 283 75 265 75 m 518 1108 q 568 1100 546 1108 q 606 1081 590 1092 q 642 1051 621 1069 q 685 1018 667 1028 q 728 1007 703 1007 q 780 1026 756 1007 q 828 1088 804 1045 l 853 1080 q 751 910 814 966 q 616 854 687 854 q 567 863 589 854 q 530 882 545 871 q 493 911 514 893 q 450 945 468 934 q 407 956 431 956 q 355 937 378 956 q 307 875 331 918 l 282 882 q 384 1052 321 996 q 518 1108 448 1108 z "},"æ":{"ha":1090,"x_min":-17,"x_max":1100,"o":"m 1100 618 q 1037 472 1100 538 q 874 359 974 406 q 662 286 774 312 q 657 215 657 243 q 686 110 657 139 q 772 81 715 81 q 862 104 807 81 q 966 178 916 128 l 989 167 q 846 34 936 87 q 637 -20 755 -20 q 499 11 559 -20 q 413 98 439 41 q 297 11 365 41 q 155 -20 229 -20 q 26 25 69 -20 q -17 154 -17 69 q 71 410 -17 279 q 296 627 159 541 q 568 713 433 713 q 673 667 645 713 q 928 741 792 741 q 1053 709 1005 741 q 1100 618 1100 678 m 897 714 q 810 654 859 714 q 721 499 762 593 q 665 310 681 405 q 790 387 750 351 q 886 518 852 444 q 920 679 920 593 q 897 714 920 714 m 397 176 q 429 355 397 266 q 517 522 460 445 q 652 652 575 600 q 603 672 635 672 q 443 598 528 672 q 301 406 359 524 q 244 163 244 288 q 264 97 244 119 q 313 75 285 75 q 359 85 338 75 q 405 121 380 95 q 397 176 397 147 z "},"b":{"ha":799,"x_min":-45,"x_max":766,"o":"m 576 741 q 719 682 671 741 q 766 514 766 624 q 711 274 766 399 q 554 65 656 149 q 318 -20 452 -20 q 209 10 253 -20 q 153 18 181 18 q -24 -22 84 18 l -45 -12 q -14 69 -29 17 l 241 926 q 248 965 248 951 q 227 1005 248 993 q 154 1018 205 1018 l 164 1047 q 362 1062 274 1048 q 536 1104 451 1076 l 387 601 q 473 707 428 673 q 576 741 519 741 m 256 26 q 374 113 315 26 q 471 328 433 200 q 509 568 509 456 q 500 630 509 614 q 475 647 492 647 q 420 612 449 647 q 363 518 391 578 l 219 33 q 256 26 235 26 z "},"c":{"ha":672,"x_min":3,"x_max":693,"o":"m 530 713 q 401 638 463 713 q 301 447 339 564 q 262 208 262 330 q 292 101 262 136 q 374 66 321 66 q 458 92 418 66 q 541 178 499 117 l 568 167 q 250 -20 448 -20 q 122 4 178 -20 q 34 78 66 28 q 3 200 3 127 q 67 450 3 323 q 248 658 131 576 q 513 741 364 741 q 609 721 568 741 q 672 668 650 701 q 693 596 693 635 q 671 510 693 552 q 611 440 648 467 q 530 414 573 414 q 484 425 505 414 q 449 458 463 436 q 436 511 436 480 q 456 593 436 555 q 508 657 475 631 q 578 696 540 684 q 530 713 559 713 z "},"ć":{"ha":672,"x_min":3,"x_max":760,"o":"m 3 0 m 530 713 q 401 638 463 713 q 301 447 339 564 q 262 208 262 330 q 292 101 262 136 q 374 66 321 66 q 458 92 418 66 q 541 178 499 117 l 568 167 q 250 -20 448 -20 q 122 4 178 -20 q 34 78 66 28 q 3 200 3 127 q 67 450 3 323 q 248 658 131 576 q 513 741 364 741 q 609 721 568 741 q 672 668 650 701 q 693 596 693 635 q 671 510 693 552 q 611 440 648 467 q 530 414 573 414 q 484 425 505 414 q 449 458 463 436 q 436 511 436 480 q 456 593 436 555 q 508 657 475 631 q 578 696 540 684 q 530 713 559 713 m 406 844 q 496 1008 441 900 q 541 1094 522 1063 q 583 1149 559 1124 q 625 1177 601 1166 q 672 1188 648 1188 q 736 1161 709 1188 q 760 1109 760 1138 q 714 1021 760 1067 q 664 980 692 999 q 583 932 635 962 q 420 831 478 871 l 406 844 z "},"č":{"ha":672,"x_min":3,"x_max":844,"o":"m 3 0 m 530 713 q 401 638 463 713 q 301 447 339 564 q 262 208 262 330 q 292 101 262 136 q 374 66 321 66 q 458 92 418 66 q 541 178 499 117 l 568 167 q 250 -20 448 -20 q 122 4 178 -20 q 34 78 66 28 q 3 200 3 127 q 67 450 3 323 q 248 658 131 576 q 513 741 364 741 q 609 721 568 741 q 672 668 650 701 q 693 596 693 635 q 671 510 693 552 q 611 440 648 467 q 530 414 573 414 q 484 425 505 414 q 449 458 463 436 q 436 511 436 480 q 456 593 436 555 q 508 657 475 631 q 578 696 540 684 q 530 713 559 713 m 580 1079 q 836 1154 684 1123 l 844 1135 q 642 1008 736 1088 q 489 840 548 929 l 465 840 q 405 1015 442 946 q 299 1135 367 1083 l 304 1154 q 580 1079 469 1125 z "},"ç":{"ha":672,"x_min":-8,"x_max":693,"o":"m 436 511 q 456 593 436 555 q 508 657 475 631 q 578 696 540 684 q 530 713 559 713 q 401 638 463 713 q 301 447 339 564 q 262 208 262 330 q 292 101 262 136 q 374 66 321 66 q 458 92 418 66 q 541 178 499 117 l 568 167 q 260 -20 452 -16 l 205 -93 q 291 -77 255 -77 q 363 -92 335 -77 q 391 -136 391 -106 q 353 -208 391 -180 q 254 -248 315 -235 q 125 -261 194 -261 q -8 -236 51 -261 l 1 -214 q 85 -228 41 -228 q 162 -216 125 -228 q 199 -170 199 -203 q 189 -146 199 -155 q 160 -138 178 -138 q 117 -147 136 -138 l 219 -18 q 61 44 120 -11 q 3 200 3 99 q 67 450 3 323 q 248 658 131 576 q 513 741 364 741 q 609 721 568 741 q 672 668 650 701 q 693 596 693 635 q 671 510 693 552 q 611 440 648 467 q 530 414 573 414 q 484 425 505 414 q 449 458 463 436 q 436 511 436 480 z "},"ĉ":{"ha":672,"x_min":3,"x_max":745,"o":"m 3 0 m 530 713 q 401 638 463 713 q 301 447 339 564 q 262 208 262 330 q 292 101 262 136 q 374 66 321 66 q 458 92 418 66 q 541 178 499 117 l 568 167 q 250 -20 448 -20 q 122 4 178 -20 q 34 78 66 28 q 3 200 3 127 q 67 450 3 323 q 248 658 131 576 q 513 741 364 741 q 609 721 568 741 q 672 668 650 701 q 693 596 693 635 q 671 510 693 552 q 611 440 648 467 q 530 414 573 414 q 484 425 505 414 q 449 458 463 436 q 436 511 436 480 q 456 593 436 555 q 508 657 475 631 q 578 696 540 684 q 530 713 559 713 m 464 916 q 208 840 359 871 l 200 860 q 401 986 307 907 q 555 1154 496 1065 l 579 1154 q 639 980 602 1048 q 745 860 677 911 l 739 840 q 464 916 575 869 z "},"ċ":{"ha":672,"x_min":3,"x_max":693,"o":"m 3 0 m 530 713 q 401 638 463 713 q 301 447 339 564 q 262 208 262 330 q 292 101 262 136 q 374 66 321 66 q 458 92 418 66 q 541 178 499 117 l 568 167 q 250 -20 448 -20 q 122 4 178 -20 q 34 78 66 28 q 3 200 3 127 q 67 450 3 323 q 248 658 131 576 q 513 741 364 741 q 609 721 568 741 q 672 668 650 701 q 693 596 693 635 q 671 510 693 552 q 611 440 648 467 q 530 414 573 414 q 484 425 505 414 q 449 458 463 436 q 436 511 436 480 q 456 593 436 555 q 508 657 475 631 q 578 696 540 684 q 530 713 559 713 m 370 937 q 416 1047 370 1010 q 539 1085 463 1085 q 631 1061 600 1085 q 663 990 663 1037 q 640 915 663 947 q 578 864 617 882 q 492 846 539 846 q 400 869 431 846 q 370 937 370 892 z "},"d":{"ha":838,"x_min":-1,"x_max":911,"o":"m 785 225 l 750 123 q 551 -20 701 -20 q 427 33 463 -20 q 406 111 406 63 q 413 173 406 140 q 314 27 369 74 q 178 -20 260 -20 q 87 2 127 -20 q 23 68 47 23 q -1 183 -1 114 q 55 425 -1 293 q 219 648 112 556 q 469 741 326 741 q 554 706 536 741 l 612 926 q 619 965 619 951 q 597 1005 619 993 q 525 1018 576 1018 l 534 1047 q 911 1104 743 1049 l 639 118 q 632 85 632 98 q 656 60 632 60 q 729 147 696 60 l 758 225 l 785 225 m 292 66 q 339 97 311 66 q 399 193 366 127 q 463 361 431 260 l 505 519 l 505 522 l 505 522 l 545 674 q 531 700 541 692 q 501 708 521 708 q 400 626 458 708 q 300 413 342 543 q 258 146 258 283 q 266 85 258 104 q 292 66 273 66 z "},"ð":{"ha":772,"x_min":8,"x_max":739,"o":"m 536 948 q 686 762 632 867 q 739 539 739 656 q 683 271 739 399 q 517 61 627 142 q 256 -20 407 -20 q 76 36 143 -20 q 8 218 8 92 q 61 450 8 330 q 210 652 113 571 q 432 733 307 733 q 470 730 456 733 q 418 894 454 823 l 193 794 l 184 819 l 405 917 q 264 1063 355 1002 l 281 1086 q 514 966 411 1046 l 717 1055 l 725 1031 l 536 948 m 293 8 q 384 100 340 8 q 454 327 428 191 q 481 585 481 463 q 474 703 481 650 q 453 705 464 705 q 352 607 394 705 q 288 367 309 509 q 267 93 267 224 q 269 38 267 56 q 277 14 271 20 q 293 8 282 8 z "},"ď":{"ha":838,"x_min":-1,"x_max":1161,"o":"m 0 0 m 785 225 l 750 123 q 551 -20 701 -20 q 427 33 463 -20 q 406 111 406 63 q 413 173 406 140 q 314 27 369 74 q 178 -20 260 -20 q 87 2 127 -20 q 23 68 47 23 q -1 183 -1 114 q 55 425 -1 293 q 219 648 112 556 q 469 741 326 741 q 554 706 536 741 l 612 926 q 619 965 619 951 q 597 1005 619 993 q 525 1018 576 1018 l 534 1047 q 911 1104 743 1049 l 639 118 q 632 85 632 98 q 656 60 632 60 q 729 147 696 60 l 758 225 l 785 225 m 292 66 q 339 97 311 66 q 399 193 366 127 q 463 361 431 260 l 505 519 l 505 522 l 505 522 l 545 674 q 531 700 541 692 q 501 708 521 708 q 400 626 458 708 q 300 413 342 543 q 258 146 258 283 q 266 85 258 104 q 292 66 273 66 m 889 750 q 953 915 932 843 q 974 1018 974 987 q 956 1044 974 1044 l 960 1074 l 984 1073 q 1004 1072 991 1072 q 1160 1089 1085 1072 q 1161 1072 1161 1086 q 1093 932 1161 1021 q 909 745 1025 844 l 889 750 z "},"đ":{"ha":838,"x_min":-1,"x_max":958,"o":"m 639 118 q 632 85 632 98 q 656 60 632 60 q 729 147 696 60 l 758 225 l 785 225 l 750 123 q 551 -20 701 -20 q 427 33 463 -20 q 406 111 406 63 q 413 173 406 140 q 314 27 369 74 q 178 -20 260 -20 q 87 2 127 -20 q 23 68 47 23 q -1 183 -1 114 q 55 425 -1 293 q 219 648 112 556 q 469 741 326 741 q 554 706 536 741 l 591 844 l 375 844 l 383 872 l 598 872 l 612 926 q 619 965 619 951 q 597 1005 619 993 q 525 1018 576 1018 l 534 1047 q 911 1104 743 1049 l 847 872 l 958 872 l 950 844 l 839 844 l 639 118 m 292 66 q 339 97 311 66 q 399 193 366 127 q 463 361 431 260 l 505 519 l 505 522 l 505 522 l 545 674 q 531 700 541 692 q 501 708 521 708 q 400 626 458 708 q 300 413 342 543 q 258 146 258 283 q 266 85 258 104 q 292 66 273 66 z "},"e":{"ha":689,"x_min":-4,"x_max":699,"o":"m 699 618 q 635 472 699 538 q 473 359 572 406 q 260 286 373 312 q 256 215 256 243 q 285 110 256 139 q 371 81 314 81 q 460 104 406 81 q 566 178 515 128 l 587 167 q 444 34 534 87 q 236 -20 354 -20 q 115 3 170 -20 q 28 70 60 26 q -4 176 -4 114 q 66 444 -4 313 q 258 657 136 574 q 526 741 380 741 q 651 709 604 741 q 699 618 699 678 m 496 714 q 409 654 457 714 q 321 500 361 594 q 264 311 281 406 q 392 406 339 353 q 518 679 518 530 q 496 714 518 714 z "},"é":{"ha":689,"x_min":-4,"x_max":781,"o":"m 0 0 m 699 618 q 635 472 699 538 q 473 359 572 406 q 260 286 373 312 q 256 215 256 243 q 285 110 256 139 q 371 81 314 81 q 460 104 406 81 q 566 178 515 128 l 587 167 q 444 34 534 87 q 236 -20 354 -20 q 115 3 170 -20 q 28 70 60 26 q -4 176 -4 114 q 66 444 -4 313 q 258 657 136 574 q 526 741 380 741 q 651 709 604 741 q 699 618 699 678 m 496 714 q 409 654 457 714 q 321 500 361 594 q 264 311 281 406 q 392 406 339 353 q 518 679 518 530 q 496 714 518 714 m 427 846 q 517 1010 462 901 q 562 1095 543 1065 q 604 1150 580 1126 q 646 1179 622 1168 q 693 1190 669 1190 q 758 1162 730 1190 q 781 1110 781 1139 q 735 1022 781 1069 q 685 982 713 1000 q 604 933 656 963 q 441 832 499 873 l 427 846 z "},"ĕ":{"ha":689,"x_min":-4,"x_max":832,"o":"m 0 0 m 699 618 q 635 472 699 538 q 473 359 572 406 q 260 286 373 312 q 256 215 256 243 q 285 110 256 139 q 371 81 314 81 q 460 104 406 81 q 566 178 515 128 l 587 167 q 444 34 534 87 q 236 -20 354 -20 q 115 3 170 -20 q 28 70 60 26 q -4 176 -4 114 q 66 444 -4 313 q 258 657 136 574 q 526 741 380 741 q 651 709 604 741 q 699 618 699 678 m 496 714 q 409 654 457 714 q 321 500 361 594 q 264 311 281 406 q 392 406 339 353 q 518 679 518 530 q 496 714 518 714 m 538 1017 q 816 1095 697 1017 l 832 1082 q 748 967 799 1020 q 633 883 696 915 q 505 851 570 851 q 389 913 431 851 q 332 1078 346 976 l 353 1089 q 428 1034 387 1050 q 538 1017 468 1017 z "},"ě":{"ha":689,"x_min":-4,"x_max":865,"o":"m 0 0 m 699 618 q 635 472 699 538 q 473 359 572 406 q 260 286 373 312 q 256 215 256 243 q 285 110 256 139 q 371 81 314 81 q 460 104 406 81 q 566 178 515 128 l 587 167 q 444 34 534 87 q 236 -20 354 -20 q 115 3 170 -20 q 28 70 60 26 q -4 176 -4 114 q 66 444 -4 313 q 258 657 136 574 q 526 741 380 741 q 651 709 604 741 q 699 618 699 678 m 496 714 q 409 654 457 714 q 321 500 361 594 q 264 311 281 406 q 392 406 339 353 q 518 679 518 530 q 496 714 518 714 m 601 1080 q 857 1156 705 1124 l 865 1136 q 663 1010 758 1089 q 510 842 569 930 l 486 842 q 426 1016 463 947 q 320 1136 388 1084 l 326 1156 q 601 1080 490 1126 z "},"ê":{"ha":689,"x_min":-4,"x_max":766,"o":"m 0 0 m 699 618 q 635 472 699 538 q 473 359 572 406 q 260 286 373 312 q 256 215 256 243 q 285 110 256 139 q 371 81 314 81 q 460 104 406 81 q 566 178 515 128 l 587 167 q 444 34 534 87 q 236 -20 354 -20 q 115 3 170 -20 q 28 70 60 26 q -4 176 -4 114 q 66 444 -4 313 q 258 657 136 574 q 526 741 380 741 q 651 709 604 741 q 699 618 699 678 m 496 714 q 409 654 457 714 q 321 500 361 594 q 264 311 281 406 q 392 406 339 353 q 518 679 518 530 q 496 714 518 714 m 485 917 q 229 842 380 873 l 221 861 q 422 987 328 908 q 576 1156 517 1067 l 600 1156 q 660 981 623 1050 q 766 861 698 913 l 760 842 q 485 917 596 871 z "},"ë":{"ha":689,"x_min":-4,"x_max":824,"o":"m 0 0 m 699 618 q 635 472 699 538 q 473 359 572 406 q 260 286 373 312 q 256 215 256 243 q 285 110 256 139 q 371 81 314 81 q 460 104 406 81 q 566 178 515 128 l 587 167 q 444 34 534 87 q 236 -20 354 -20 q 115 3 170 -20 q 28 70 60 26 q -4 176 -4 114 q 66 444 -4 313 q 258 657 136 574 q 526 741 380 741 q 651 709 604 741 q 699 618 699 678 m 496 714 q 409 654 457 714 q 321 500 361 594 q 264 311 281 406 q 392 406 339 353 q 518 679 518 530 q 496 714 518 714 m 252 936 q 271 1013 252 982 q 321 1058 290 1043 q 389 1072 352 1072 q 468 1043 443 1072 q 494 964 494 1015 q 474 888 494 918 q 422 845 454 859 q 355 831 391 831 q 277 859 302 831 q 252 936 252 886 m 583 936 q 622 1038 583 1004 q 720 1072 662 1072 q 799 1043 773 1072 q 824 964 824 1015 q 804 888 824 918 q 753 845 785 859 q 685 831 722 831 q 607 859 632 831 q 583 936 583 886 z "},"ė":{"ha":689,"x_min":-4,"x_max":699,"o":"m 0 0 m 699 618 q 635 472 699 538 q 473 359 572 406 q 260 286 373 312 q 256 215 256 243 q 285 110 256 139 q 371 81 314 81 q 460 104 406 81 q 566 178 515 128 l 587 167 q 444 34 534 87 q 236 -20 354 -20 q 115 3 170 -20 q 28 70 60 26 q -4 176 -4 114 q 66 444 -4 313 q 258 657 136 574 q 526 741 380 741 q 651 709 604 741 q 699 618 699 678 m 496 714 q 409 654 457 714 q 321 500 361 594 q 264 311 281 406 q 392 406 339 353 q 518 679 518 530 q 496 714 518 714 m 391 939 q 437 1049 391 1011 q 560 1086 484 1086 q 652 1062 621 1086 q 684 991 684 1038 q 661 916 684 949 q 599 865 638 883 q 513 847 560 847 q 421 870 452 847 q 391 939 391 894 z "},"è":{"ha":689,"x_min":-4,"x_max":699,"o":"m 0 0 m 699 618 q 635 472 699 538 q 473 359 572 406 q 260 286 373 312 q 256 215 256 243 q 285 110 256 139 q 371 81 314 81 q 460 104 406 81 q 566 178 515 128 l 587 167 q 444 34 534 87 q 236 -20 354 -20 q 115 3 170 -20 q 28 70 60 26 q -4 176 -4 114 q 66 444 -4 313 q 258 657 136 574 q 526 741 380 741 q 651 709 604 741 q 699 618 699 678 m 496 714 q 409 654 457 714 q 321 500 361 594 q 264 311 281 406 q 392 406 339 353 q 518 679 518 530 q 496 714 518 714 m 509 832 q 372 965 447 902 q 323 1010 340 993 q 294 1047 307 1027 q 279 1100 279 1073 q 289 1141 279 1122 q 318 1173 299 1160 q 366 1186 339 1186 q 416 1173 392 1186 q 452 1140 439 1160 q 472 1095 466 1118 q 484 1027 478 1072 q 525 842 498 925 l 509 832 z "},"ē":{"ha":689,"x_min":-4,"x_max":784,"o":"m 0 0 m 699 618 q 635 472 699 538 q 473 359 572 406 q 260 286 373 312 q 256 215 256 243 q 285 110 256 139 q 371 81 314 81 q 460 104 406 81 q 566 178 515 128 l 587 167 q 444 34 534 87 q 236 -20 354 -20 q 115 3 170 -20 q 28 70 60 26 q -4 176 -4 114 q 66 444 -4 313 q 258 657 136 574 q 526 741 380 741 q 651 709 604 741 q 699 618 699 678 m 496 714 q 409 654 457 714 q 321 500 361 594 q 264 311 281 406 q 392 406 339 353 q 518 679 518 530 q 496 714 518 714 m 287 954 l 295 989 l 784 989 l 775 954 l 287 954 z "},"ę":{"ha":689,"x_min":-4,"x_max":699,"o":"m 699 618 q 635 472 699 538 q 473 359 572 406 q 260 286 373 312 q 256 215 256 243 q 285 110 256 139 q 371 81 314 81 q 460 104 406 81 q 566 178 515 128 l 587 167 q 496 69 551 113 q 370 1 441 25 q 275 -70 309 -26 q 242 -157 242 -114 q 274 -191 242 -191 q 315 -179 293 -191 q 356 -149 337 -167 l 376 -167 q 178 -261 298 -261 q 86 -239 120 -261 q 52 -176 52 -216 q 109 -87 52 -127 q 261 -19 166 -47 q 236 -20 253 -20 q 115 3 170 -20 q 28 70 60 26 q -4 176 -4 114 q 66 444 -4 313 q 258 657 136 574 q 526 741 380 741 q 651 709 604 741 q 699 618 699 678 m 496 714 q 409 654 457 714 q 321 500 361 594 q 264 311 281 406 q 392 406 339 353 q 518 679 518 530 q 496 714 518 714 z "},"f":{"ha":493,"x_min":-81,"x_max":785,"o":"m 567 1086 q 683 1067 634 1086 q 759 1013 732 1048 q 785 930 785 978 q 766 865 785 897 q 712 812 747 833 q 635 791 678 791 q 553 816 583 791 q 524 886 524 841 q 556 984 524 940 q 647 1050 589 1028 q 611 1059 627 1059 q 543 1036 569 1059 q 476 899 504 1003 l 427 714 l 567 714 l 558 686 l 419 686 l 171 -241 q -81 -261 33 -243 l 174 686 l 65 686 l 74 714 l 182 714 q 357 1025 242 941 q 567 1086 439 1086 z "},"g":{"ha":676,"x_min":-149,"x_max":812,"o":"m 710 958 q 785 933 757 958 q 812 863 812 909 q 795 793 812 827 q 748 739 778 760 q 682 718 718 718 q 622 741 644 718 q 599 798 599 763 q 616 855 599 825 q 665 911 633 884 q 654 914 659 914 q 631 903 641 914 q 577 834 608 882 q 524 732 547 785 q 635 681 595 718 q 675 581 675 643 q 634 456 675 517 q 517 354 593 396 q 341 303 441 312 q 227 229 227 263 q 238 211 227 218 q 275 195 250 204 l 401 147 q 559 -16 559 88 q 490 -154 559 -98 q 320 -235 420 -209 q 127 -261 220 -261 q -21 -248 41 -261 q -116 -209 -83 -234 q -149 -151 -149 -184 q -124 -95 -149 -117 q -62 -62 -99 -74 q 37 -37 -26 -51 q 153 -6 119 -20 l 98 11 q 35 48 60 24 q 9 107 9 73 q 44 178 9 146 q 133 237 78 210 q 281 301 189 264 q 114 342 177 302 q 52 461 52 382 q 99 593 52 529 q 234 698 146 657 q 436 739 321 739 q 498 736 465 739 q 559 852 530 806 q 623 926 589 899 q 710 958 662 958 m 318 326 q 380 370 352 326 q 424 484 408 414 q 440 628 439 553 q 433 693 440 672 q 404 714 426 714 q 346 671 374 714 q 300 557 317 627 q 283 408 283 486 q 291 344 283 361 q 318 326 299 326 m 174 -13 q 116 -115 134 -67 q 98 -197 98 -163 q 110 -228 98 -219 q 144 -237 121 -237 q 246 -221 193 -237 q 333 -176 298 -205 q 368 -110 368 -147 q 357 -80 368 -92 q 332 -64 347 -69 q 288 -49 318 -58 l 174 -13 z "},"ǵ":{"ha":676,"x_min":-149,"x_max":812,"o":"m 0 0 m 710 958 q 785 933 757 958 q 812 863 812 909 q 795 793 812 827 q 748 739 778 760 q 682 718 718 718 q 622 741 644 718 q 599 798 599 763 q 616 855 599 825 q 665 911 633 884 q 654 914 659 914 q 631 903 641 914 q 577 834 608 882 q 524 732 547 785 q 635 681 595 718 q 675 581 675 643 q 634 456 675 517 q 517 354 593 396 q 341 303 441 312 q 227 229 227 263 q 238 211 227 218 q 275 195 250 204 l 401 147 q 559 -16 559 88 q 490 -154 559 -98 q 320 -235 420 -209 q 127 -261 220 -261 q -21 -248 41 -261 q -116 -209 -83 -234 q -149 -151 -149 -184 q -124 -95 -149 -117 q -62 -62 -99 -74 q 37 -37 -26 -51 q 153 -6 119 -20 l 98 11 q 35 48 60 24 q 9 107 9 73 q 44 178 9 146 q 133 237 78 210 q 281 301 189 264 q 114 342 177 302 q 52 461 52 382 q 99 593 52 529 q 234 698 146 657 q 436 739 321 739 q 498 736 465 739 q 559 852 530 806 q 623 926 589 899 q 710 958 662 958 m 318 326 q 380 370 352 326 q 424 484 408 414 q 440 628 439 553 q 433 693 440 672 q 404 714 426 714 q 346 671 374 714 q 300 557 317 627 q 283 408 283 486 q 291 344 283 361 q 318 326 299 326 m 174 -13 q 116 -115 134 -67 q 98 -197 98 -163 q 110 -228 98 -219 q 144 -237 121 -237 q 246 -221 193 -237 q 333 -176 298 -205 q 368 -110 368 -147 q 357 -80 368 -92 q 332 -64 347 -69 q 288 -49 318 -58 l 174 -13 m 371 846 q 461 1010 406 901 q 506 1095 488 1065 q 549 1150 524 1126 q 590 1179 566 1168 q 637 1190 614 1190 q 702 1162 675 1190 q 725 1110 725 1139 q 680 1022 725 1069 q 629 982 658 1000 q 549 933 601 963 q 385 832 444 873 l 371 846 z "},"ğ":{"ha":676,"x_min":-149,"x_max":812,"o":"m 710 958 q 785 933 757 958 q 812 863 812 909 q 795 793 812 827 q 748 739 778 760 q 682 718 718 718 q 622 741 644 718 q 599 798 599 763 q 616 855 599 825 q 665 911 633 884 q 654 914 659 914 q 631 903 641 914 q 577 834 608 882 q 524 732 547 785 q 635 681 595 718 q 675 581 675 643 q 634 456 675 517 q 517 354 593 396 q 341 303 441 312 q 227 229 227 263 q 238 211 227 218 q 275 195 250 204 l 401 147 q 559 -16 559 88 q 490 -154 559 -98 q 320 -235 420 -209 q 127 -261 220 -261 q -21 -248 41 -261 q -116 -209 -83 -234 q -149 -151 -149 -184 q -124 -95 -149 -117 q -62 -62 -99 -74 q 37 -37 -26 -51 q 153 -6 119 -20 l 98 11 q 35 48 60 24 q 9 107 9 73 q 44 178 9 146 q 133 237 78 210 q 281 301 189 264 q 114 342 177 302 q 52 461 52 382 q 99 593 52 529 q 234 698 146 657 q 436 739 321 739 q 498 736 465 739 q 583 886 545 838 q 449 851 516 851 q 333 913 376 851 q 277 1078 290 976 l 298 1089 q 372 1034 332 1050 q 482 1017 412 1017 q 760 1095 642 1017 l 777 1082 q 680 955 739 1010 q 710 958 692 958 m 318 326 q 380 370 352 326 q 424 484 408 414 q 440 628 439 553 q 433 693 440 672 q 404 714 426 714 q 346 671 374 714 q 300 557 317 627 q 283 408 283 486 q 291 344 283 361 q 318 326 299 326 m 174 -13 q 116 -115 134 -67 q 98 -197 98 -163 q 110 -228 98 -219 q 144 -237 121 -237 q 246 -221 193 -237 q 333 -176 298 -205 q 368 -110 368 -147 q 357 -80 368 -92 q 332 -64 347 -69 q 288 -49 318 -58 l 174 -13 z "},"ĝ":{"ha":676,"x_min":-149,"x_max":812,"o":"m 710 958 q 785 933 757 958 q 812 863 812 909 q 795 793 812 827 q 748 739 778 760 q 682 718 718 718 q 622 741 644 718 q 599 798 599 763 q 618 859 599 829 l 597 863 q 524 732 555 804 q 635 681 595 718 q 675 581 675 643 q 634 456 675 517 q 517 354 593 396 q 341 303 441 312 q 227 229 227 263 q 238 211 227 218 q 275 195 250 204 l 401 147 q 559 -16 559 88 q 490 -154 559 -98 q 320 -235 420 -209 q 127 -261 220 -261 q -21 -248 41 -261 q -116 -209 -83 -234 q -149 -151 -149 -184 q -124 -95 -149 -117 q -62 -62 -99 -74 q 37 -37 -26 -51 q 153 -6 119 -20 l 98 11 q 35 48 60 24 q 9 107 9 73 q 44 178 9 146 q 133 237 78 210 q 281 301 189 264 q 114 342 177 302 q 52 461 52 382 q 99 593 52 529 q 234 698 146 657 q 436 739 321 739 q 498 736 465 739 q 571 870 538 823 q 429 917 502 887 q 173 842 325 873 l 165 861 q 367 987 273 908 q 520 1156 461 1067 l 545 1156 q 635 935 575 1014 q 710 958 668 958 m 665 911 q 652 914 659 914 l 660 906 l 665 911 m 318 326 q 380 370 352 326 q 424 484 408 414 q 440 628 439 553 q 433 693 440 672 q 404 714 426 714 q 346 671 374 714 q 300 557 317 627 q 283 408 283 486 q 291 344 283 361 q 318 326 299 326 m 174 -13 q 116 -115 134 -67 q 98 -197 98 -163 q 110 -228 98 -219 q 144 -237 121 -237 q 246 -221 193 -237 q 333 -176 298 -205 q 368 -110 368 -147 q 357 -80 368 -92 q 332 -64 347 -69 q 288 -49 318 -58 l 174 -13 z "},"ģ":{"ha":676,"x_min":-149,"x_max":812,"o":"m 710 958 q 785 933 757 958 q 812 863 812 909 q 795 793 812 827 q 748 739 778 760 q 682 718 718 718 q 622 741 644 718 q 599 798 599 763 q 616 855 599 825 q 665 911 633 884 q 654 914 659 914 q 631 903 641 914 q 577 834 608 882 q 524 732 547 785 q 635 681 595 718 q 675 581 675 643 q 634 456 675 517 q 517 354 593 396 q 341 303 441 312 q 227 229 227 263 q 238 211 227 218 q 275 195 250 204 l 401 147 q 559 -16 559 88 q 490 -154 559 -98 q 320 -235 420 -209 q 127 -261 220 -261 q -21 -248 41 -261 q -116 -209 -83 -234 q -149 -151 -149 -184 q -124 -95 -149 -117 q -62 -62 -99 -74 q 37 -37 -26 -51 q 153 -6 119 -20 l 98 11 q 35 48 60 24 q 9 107 9 73 q 44 178 9 146 q 133 237 78 210 q 281 301 189 264 q 114 342 177 302 q 52 461 52 382 q 99 593 52 529 q 234 698 146 657 q 436 739 321 739 q 498 736 465 739 q 524 790 513 768 q 445 772 489 772 q 370 794 401 772 q 338 861 338 817 q 367 958 338 916 q 448 1024 396 1000 q 566 1049 500 1048 l 566 1020 q 457 999 500 1019 q 403 945 414 979 q 496 970 443 970 q 593 898 591 970 q 623 926 608 915 q 710 958 662 958 m 318 326 q 380 370 352 326 q 424 484 408 414 q 440 628 439 553 q 433 693 440 672 q 404 714 426 714 q 346 671 374 714 q 300 557 317 627 q 283 408 283 486 q 291 344 283 361 q 318 326 299 326 m 174 -13 q 116 -115 134 -67 q 98 -197 98 -163 q 110 -228 98 -219 q 144 -237 121 -237 q 246 -221 193 -237 q 333 -176 298 -205 q 368 -110 368 -147 q 357 -80 368 -92 q 332 -64 347 -69 q 288 -49 318 -58 l 174 -13 z "},"ġ":{"ha":676,"x_min":-149,"x_max":812,"o":"m 0 0 m 710 958 q 785 933 757 958 q 812 863 812 909 q 795 793 812 827 q 748 739 778 760 q 682 718 718 718 q 622 741 644 718 q 599 798 599 763 q 616 855 599 825 q 665 911 633 884 q 654 914 659 914 q 631 903 641 914 q 577 834 608 882 q 524 732 547 785 q 635 681 595 718 q 675 581 675 643 q 634 456 675 517 q 517 354 593 396 q 341 303 441 312 q 227 229 227 263 q 238 211 227 218 q 275 195 250 204 l 401 147 q 559 -16 559 88 q 490 -154 559 -98 q 320 -235 420 -209 q 127 -261 220 -261 q -21 -248 41 -261 q -116 -209 -83 -234 q -149 -151 -149 -184 q -124 -95 -149 -117 q -62 -62 -99 -74 q 37 -37 -26 -51 q 153 -6 119 -20 l 98 11 q 35 48 60 24 q 9 107 9 73 q 44 178 9 146 q 133 237 78 210 q 281 301 189 264 q 114 342 177 302 q 52 461 52 382 q 99 593 52 529 q 234 698 146 657 q 436 739 321 739 q 498 736 465 739 q 559 852 530 806 q 623 926 589 899 q 710 958 662 958 m 318 326 q 380 370 352 326 q 424 484 408 414 q 440 628 439 553 q 433 693 440 672 q 404 714 426 714 q 346 671 374 714 q 300 557 317 627 q 283 408 283 486 q 291 344 283 361 q 318 326 299 326 m 174 -13 q 116 -115 134 -67 q 98 -197 98 -163 q 110 -228 98 -219 q 144 -237 121 -237 q 246 -221 193 -237 q 333 -176 298 -205 q 368 -110 368 -147 q 357 -80 368 -92 q 332 -64 347 -69 q 288 -49 318 -58 l 174 -13 m 335 939 q 381 1049 335 1011 q 505 1086 428 1086 q 596 1062 565 1086 q 628 991 628 1038 q 605 916 628 949 q 544 865 583 883 q 457 847 505 847 q 366 870 397 847 q 335 939 335 894 z "},"h":{"ha":822,"x_min":-33,"x_max":775,"o":"m 765 225 l 730 123 q 532 -20 682 -20 q 421 16 456 -20 q 386 113 386 51 q 406 220 386 162 l 525 579 q 537 633 537 614 q 522 654 537 654 q 445 583 492 654 q 347 393 397 511 q 254 142 296 275 l 215 9 l 214 4 l 214 5 l 212 0 l -33 0 l 241 926 q 248 965 248 951 q 227 1005 248 993 q 154 1018 205 1018 l 164 1047 q 362 1062 274 1048 q 536 1104 451 1076 l 357 491 q 446 644 402 589 q 535 719 490 698 q 639 741 581 741 q 775 625 775 741 q 757 530 775 585 l 619 118 q 612 85 612 98 q 636 60 612 60 q 710 147 677 60 l 739 225 l 765 225 z "},"ħ":{"ha":822,"x_min":-33,"x_max":775,"o":"m 765 225 l 730 123 q 532 -20 682 -20 q 421 16 456 -20 q 386 113 386 51 q 406 220 386 162 l 525 579 q 537 633 537 614 q 522 654 537 654 q 445 583 492 654 q 347 393 397 511 q 254 142 296 275 l 215 9 l 214 4 l 214 5 l 212 0 l -33 0 l 217 844 l 104 844 l 113 872 l 225 872 l 241 926 q 248 965 248 951 q 227 1005 248 993 q 154 1018 205 1018 l 164 1047 q 362 1062 274 1048 q 536 1104 451 1076 l 469 872 l 673 872 l 665 844 l 460 844 l 357 491 q 446 644 402 589 q 535 719 490 698 q 639 741 581 741 q 775 625 775 741 q 757 530 775 585 l 619 118 q 612 85 612 98 q 636 60 612 60 q 710 147 677 60 l 739 225 l 765 225 z "},"ĥ":{"ha":822,"x_min":-33,"x_max":867,"o":"m 0 0 m 765 225 l 730 123 q 532 -20 682 -20 q 421 16 456 -20 q 386 113 386 51 q 406 220 386 162 l 525 579 q 537 633 537 614 q 522 654 537 654 q 445 583 492 654 q 347 393 397 511 q 254 142 296 275 l 215 9 l 214 4 l 214 5 l 212 0 l -33 0 l 241 926 q 248 965 248 951 q 227 1005 248 993 q 154 1018 205 1018 l 164 1047 q 362 1062 274 1048 q 536 1104 451 1076 l 357 491 q 446 644 402 589 q 535 719 490 698 q 639 741 581 741 q 775 625 775 741 q 757 530 775 585 l 619 118 q 612 85 612 98 q 636 60 612 60 q 710 147 677 60 l 739 225 l 765 225 m 586 1251 q 330 1175 481 1206 l 322 1195 q 524 1321 429 1242 q 677 1489 618 1400 l 701 1489 q 761 1315 724 1383 q 867 1195 799 1246 l 861 1175 q 586 1251 697 1204 z "},"i":{"ha":467,"x_min":28,"x_max":528,"o":"m 235 939 q 281 1049 235 1011 q 404 1086 328 1086 q 496 1062 465 1086 q 528 991 528 1038 q 505 916 528 949 q 444 865 483 883 q 357 847 405 847 q 266 870 297 847 q 235 939 235 894 m 176 603 q 184 637 184 623 q 164 661 184 661 q 124 642 142 661 q 87 574 106 622 l 56 489 l 29 489 l 68 597 q 275 741 120 741 q 385 705 350 741 q 420 612 420 669 q 408 546 420 579 l 264 118 q 257 84 257 98 q 281 60 257 60 q 354 147 321 60 l 383 225 l 410 225 l 375 123 q 176 -20 326 -20 q 67 14 106 -20 q 28 112 28 47 q 49 220 28 158 l 176 603 z "},"ı":{"ha":465,"x_min":27,"x_max":418,"o":"m 175 603 q 182 637 182 623 q 163 661 182 661 q 123 642 141 661 q 86 574 104 622 l 54 489 l 28 489 l 66 597 q 273 741 119 741 q 383 705 348 741 q 418 612 418 669 q 407 546 418 579 l 262 118 q 256 84 256 98 q 279 60 256 60 q 353 147 320 60 l 382 225 l 408 225 l 374 123 q 175 -20 325 -20 q 66 14 104 -20 q 27 112 27 47 q 47 220 27 158 l 175 603 z "},"í":{"ha":465,"x_min":27,"x_max":589,"o":"m 27 0 m 175 603 q 182 637 182 623 q 163 661 182 661 q 123 642 141 661 q 86 574 104 622 l 54 489 l 28 489 l 66 597 q 273 741 119 741 q 383 705 348 741 q 418 612 418 669 q 407 546 418 579 l 262 118 q 256 84 256 98 q 279 60 256 60 q 353 147 320 60 l 382 225 l 408 225 l 374 123 q 175 -20 325 -20 q 66 14 104 -20 q 27 112 27 47 q 47 220 27 158 l 175 603 m 235 846 q 325 1010 270 901 q 370 1095 351 1065 q 412 1150 388 1126 q 454 1179 430 1168 q 501 1190 477 1190 q 566 1162 538 1190 q 589 1110 589 1139 q 543 1022 589 1069 q 493 982 522 1000 q 412 933 465 963 q 249 832 307 873 l 235 846 z "},"ĭ":{"ha":465,"x_min":27,"x_max":640,"o":"m 27 0 m 175 603 q 182 637 182 623 q 163 661 182 661 q 123 642 141 661 q 86 574 104 622 l 54 489 l 28 489 l 66 597 q 273 741 119 741 q 383 705 348 741 q 418 612 418 669 q 407 546 418 579 l 262 118 q 256 84 256 98 q 279 60 256 60 q 353 147 320 60 l 382 225 l 408 225 l 374 123 q 175 -20 325 -20 q 66 14 104 -20 q 27 112 27 47 q 47 220 27 158 l 175 603 m 346 1017 q 624 1095 505 1017 l 640 1082 q 556 967 607 1020 q 441 883 505 915 q 313 851 378 851 q 197 913 239 851 q 140 1078 154 976 l 161 1089 q 236 1034 195 1050 q 346 1017 276 1017 z "},"î":{"ha":465,"x_min":27,"x_max":574,"o":"m 27 0 m 175 603 q 182 637 182 623 q 163 661 182 661 q 123 642 141 661 q 86 574 104 622 l 54 489 l 28 489 l 66 597 q 273 741 119 741 q 383 705 348 741 q 418 612 418 669 q 407 546 418 579 l 262 118 q 256 84 256 98 q 279 60 256 60 q 353 147 320 60 l 382 225 l 408 225 l 374 123 q 175 -20 325 -20 q 66 14 104 -20 q 27 112 27 47 q 47 220 27 158 l 175 603 m 293 917 q 37 842 189 873 l 29 861 q 231 987 136 908 q 384 1156 325 1067 l 408 1156 q 468 981 431 1050 q 574 861 506 913 l 568 842 q 293 917 404 871 z "},"ï":{"ha":465,"x_min":27,"x_max":632,"o":"m 27 0 m 175 603 q 182 637 182 623 q 163 661 182 661 q 123 642 141 661 q 86 574 104 622 l 54 489 l 28 489 l 66 597 q 273 741 119 741 q 383 705 348 741 q 418 612 418 669 q 407 546 418 579 l 262 118 q 256 84 256 98 q 279 60 256 60 q 353 147 320 60 l 382 225 l 408 225 l 374 123 q 175 -20 325 -20 q 66 14 104 -20 q 27 112 27 47 q 47 220 27 158 l 175 603 m 60 936 q 79 1013 60 982 q 129 1058 98 1043 q 197 1072 160 1072 q 276 1043 251 1072 q 302 964 302 1015 q 282 888 302 918 q 231 845 262 859 q 163 831 199 831 q 85 859 110 831 q 60 936 60 886 m 391 936 q 430 1038 391 1004 q 528 1072 470 1072 q 607 1043 581 1072 q 632 964 632 1015 q 612 888 632 918 q 561 845 593 859 q 493 831 530 831 q 415 859 440 831 q 391 936 391 886 z "},"ì":{"ha":465,"x_min":27,"x_max":418,"o":"m 27 0 m 175 603 q 182 637 182 623 q 163 661 182 661 q 123 642 141 661 q 86 574 104 622 l 54 489 l 28 489 l 66 597 q 273 741 119 741 q 383 705 348 741 q 418 612 418 669 q 407 546 418 579 l 262 118 q 256 84 256 98 q 279 60 256 60 q 353 147 320 60 l 382 225 l 408 225 l 374 123 q 175 -20 325 -20 q 66 14 104 -20 q 27 112 27 47 q 47 220 27 158 l 175 603 m 317 832 q 180 965 255 902 q 132 1010 149 993 q 102 1047 115 1027 q 87 1100 87 1073 q 97 1141 87 1122 q 126 1173 107 1160 q 174 1186 147 1186 q 224 1173 200 1186 q 260 1140 248 1160 q 280 1095 274 1118 q 292 1027 286 1072 q 333 842 306 925 l 317 832 z "},"ĳ":{"ha":890,"x_min":28,"x_max":968,"o":"m 225 939 q 272 1049 225 1011 q 395 1086 318 1086 q 487 1062 455 1086 q 518 991 518 1038 q 495 916 518 949 q 434 865 473 883 q 347 847 395 847 q 256 870 287 847 q 225 939 225 894 m 675 939 q 722 1049 675 1011 q 845 1086 768 1086 q 937 1062 905 1086 q 968 991 968 1038 q 946 916 968 949 q 884 865 923 883 q 798 847 845 847 q 706 870 737 847 q 675 939 675 894 m 393 127 q 426 230 414 175 q 450 370 437 285 q 471 500 460 448 q 498 597 481 552 q 588 706 528 672 q 722 741 648 741 q 827 706 795 741 q 859 617 859 672 q 848 546 859 585 l 743 160 q 693 5 718 66 q 641 -96 669 -56 q 575 -168 613 -136 q 300 -261 463 -261 q 123 -161 123 -261 q 140 -104 123 -130 q 184 -63 156 -78 q 245 -49 212 -49 q 301 -62 277 -49 q 338 -96 326 -75 q 351 -142 351 -117 q 335 -196 351 -169 q 289 -240 319 -223 q 373 -200 342 -234 q 427 -90 405 -167 l 621 603 q 625 631 625 618 q 619 653 625 646 q 603 661 613 661 q 514 561 552 661 q 477 375 495 505 q 451 221 465 284 q 412 103 438 159 q 328 7 380 33 q 204 -20 276 -20 q 28 115 28 -20 q 47 220 28 161 l 175 603 q 182 637 182 623 q 163 661 182 661 q 123 642 141 661 q 86 574 104 622 l 54 489 l 28 489 l 66 597 q 273 741 119 741 q 383 705 348 741 q 418 612 418 669 q 407 546 418 579 l 262 118 q 256 83 256 99 q 293 46 256 46 q 349 68 321 46 q 393 127 376 90 z "},"ī":{"ha":465,"x_min":27,"x_max":547,"o":"m 27 0 m 175 603 q 182 637 182 623 q 163 661 182 661 q 123 642 141 661 q 86 574 104 622 l 54 489 l 28 489 l 66 597 q 273 741 119 741 q 383 705 348 741 q 418 612 418 669 q 407 546 418 579 l 262 118 q 256 84 256 98 q 279 60 256 60 q 353 147 320 60 l 382 225 l 408 225 l 374 123 q 175 -20 325 -20 q 66 14 104 -20 q 27 112 27 47 q 47 220 27 158 l 175 603 m 124 954 l 131 989 l 546 989 l 539 954 l 124 954 z "},"į":{"ha":467,"x_min":-46,"x_max":528,"o":"m 404 1086 q 496 1062 465 1086 q 528 991 528 1038 q 505 916 528 949 q 444 865 483 883 q 357 847 405 847 q 266 870 297 847 q 235 939 235 894 q 281 1049 235 1011 q 404 1086 328 1086 m 264 118 q 257 84 257 98 q 281 60 257 60 q 354 147 321 60 l 383 225 l 410 225 l 375 123 q 252 -8 340 20 q 172 -77 200 -36 q 144 -157 144 -118 q 176 -191 144 -191 q 217 -179 195 -191 q 258 -149 239 -167 l 279 -167 q 80 -261 200 -261 q -12 -239 22 -261 q -46 -176 -46 -216 q 11 -88 -46 -128 q 162 -19 68 -48 q 63 17 98 -16 q 28 112 28 50 q 49 220 28 158 l 176 603 q 184 637 184 623 q 164 661 184 661 q 124 642 142 661 q 87 574 106 622 l 56 489 l 29 489 l 68 597 q 275 741 120 741 q 385 705 350 741 q 420 612 420 669 q 408 546 420 579 l 264 118 z "},"ĩ":{"ha":465,"x_min":27,"x_max":632,"o":"m 27 0 m 175 603 q 182 637 182 623 q 163 661 182 661 q 123 642 141 661 q 86 574 104 622 l 54 489 l 28 489 l 66 597 q 273 741 119 741 q 383 705 348 741 q 418 612 418 669 q 407 546 418 579 l 262 118 q 256 84 256 98 q 279 60 256 60 q 353 147 320 60 l 382 225 l 408 225 l 374 123 q 175 -20 325 -20 q 66 14 104 -20 q 27 112 27 47 q 47 220 27 158 l 175 603 m 297 1108 q 347 1100 325 1108 q 385 1081 369 1092 q 421 1051 400 1069 q 464 1018 446 1028 q 507 1007 482 1007 q 559 1026 535 1007 q 607 1088 583 1045 l 632 1080 q 530 910 593 966 q 395 854 466 854 q 346 863 368 854 q 309 882 324 871 q 272 911 293 893 q 229 945 247 934 q 186 956 210 956 q 134 937 157 956 q 86 875 110 918 l 61 882 q 163 1052 100 996 q 297 1108 227 1108 z "},"j":{"ha":441,"x_min":-325,"x_max":522,"o":"m 229 939 q 276 1049 229 1011 q 399 1086 322 1086 q 491 1062 459 1086 q 522 991 522 1038 q 499 916 522 949 q 438 865 477 883 q 351 847 399 847 q 260 870 291 847 q 229 939 229 894 m -160 -240 q -75 -201 -106 -234 q -22 -90 -44 -168 l 172 603 q 178 639 178 627 q 158 661 178 661 q 83 574 117 661 l 52 489 l 25 489 l 64 597 q 148 706 92 672 q 273 741 205 741 q 378 706 347 741 q 410 616 410 672 q 400 546 410 585 l 294 160 q 244 5 269 65 q 193 -96 220 -56 q 126 -168 165 -136 q -149 -261 14 -261 q -325 -161 -325 -261 q -309 -104 -325 -130 q -264 -63 -292 -78 q -203 -49 -236 -49 q -148 -62 -172 -49 q -110 -97 -123 -75 q -97 -142 -97 -118 q -113 -196 -97 -169 q -160 -240 -130 -223 z "},"ȷ":{"ha":441,"x_min":-325,"x_max":410,"o":"m -160 -240 q -75 -201 -106 -234 q -22 -90 -44 -168 l 172 603 q 178 639 178 627 q 158 661 178 661 q 83 574 117 661 l 52 489 l 25 489 l 64 597 q 148 706 92 672 q 273 741 205 741 q 378 706 347 741 q 410 616 410 672 q 400 546 410 585 l 294 160 q 244 5 269 65 q 193 -96 220 -56 q 126 -168 165 -136 q -149 -261 14 -261 q -325 -161 -325 -261 q -309 -104 -325 -130 q -264 -63 -292 -78 q -203 -49 -236 -49 q -148 -62 -172 -49 q -110 -97 -123 -75 q -97 -142 -97 -118 q -113 -196 -97 -169 q -160 -240 -130 -223 z "},"ĵ":{"ha":441,"x_min":-325,"x_max":600,"o":"m 0 0 m -160 -240 q -75 -201 -106 -234 q -22 -90 -44 -168 l 172 603 q 178 639 178 627 q 158 661 178 661 q 83 574 117 661 l 52 489 l 25 489 l 64 597 q 148 706 92 672 q 273 741 205 741 q 378 706 347 741 q 410 616 410 672 q 400 546 410 585 l 294 160 q 244 5 269 65 q 193 -96 220 -56 q 126 -168 165 -136 q -149 -261 14 -261 q -325 -161 -325 -261 q -309 -104 -325 -130 q -264 -63 -292 -78 q -203 -49 -236 -49 q -148 -62 -172 -49 q -110 -97 -123 -75 q -97 -142 -97 -118 q -113 -196 -97 -169 q -160 -240 -130 -223 m 319 917 q 63 842 215 873 l 56 861 q 257 987 163 908 q 410 1156 351 1067 l 435 1156 q 495 981 457 1050 q 600 861 532 913 l 595 842 q 319 917 431 871 z "},"k":{"ha":802,"x_min":-33,"x_max":790,"o":"m 538 538 q 573 632 538 591 q 661 696 608 673 q 646 709 656 704 q 627 714 636 714 q 562 692 590 714 q 532 651 545 677 q 505 582 520 625 q 473 502 488 533 q 433 443 458 470 q 368 406 407 416 q 622 248 622 404 q 616 199 622 222 l 600 118 q 596 86 596 98 q 616 60 596 60 q 690 147 658 60 l 720 225 l 746 225 l 711 123 q 489 -20 658 -20 q 355 103 355 -20 q 361 160 355 130 l 385 258 q 395 317 395 293 q 378 366 395 348 q 327 391 362 383 l 212 0 l -33 0 l 241 926 q 248 965 248 951 q 227 1005 248 993 q 154 1018 205 1018 l 164 1047 q 362 1062 274 1048 q 536 1104 451 1076 l 335 418 q 406 454 378 428 q 448 510 433 479 q 479 591 463 541 q 509 664 496 638 q 542 708 521 690 q 586 732 562 724 q 631 741 610 741 q 718 719 682 741 q 772 662 754 698 q 790 582 790 625 q 771 506 790 538 q 721 458 753 475 q 650 441 689 441 q 568 469 597 441 q 538 538 538 496 z "},"ķ":{"ha":802,"x_min":-33,"x_max":790,"o":"m 0 0 m 538 538 q 573 632 538 591 q 661 696 608 673 q 646 709 656 704 q 627 714 636 714 q 562 692 590 714 q 532 651 545 677 q 505 582 520 625 q 473 502 488 533 q 433 443 458 470 q 368 406 407 416 q 622 248 622 404 q 616 199 622 222 l 600 118 q 596 86 596 98 q 616 60 596 60 q 690 147 658 60 l 720 225 l 746 225 l 711 123 q 489 -20 658 -20 q 355 103 355 -20 q 361 160 355 130 l 385 258 q 395 317 395 293 q 378 366 395 348 q 327 391 362 383 l 212 0 l -33 0 l 241 926 q 248 965 248 951 q 227 1005 248 993 q 154 1018 205 1018 l 164 1047 q 362 1062 274 1048 q 536 1104 451 1076 l 335 418 q 406 454 378 428 q 448 510 433 479 q 479 591 463 541 q 509 664 496 638 q 542 708 521 690 q 586 732 562 724 q 631 741 610 741 q 718 719 682 741 q 772 662 754 698 q 790 582 790 625 q 771 506 790 538 q 721 458 753 475 q 650 441 689 441 q 568 469 597 441 q 538 538 538 496 m 283 -58 q 358 -80 326 -58 q 390 -147 390 -102 q 361 -244 390 -202 q 280 -310 332 -286 q 162 -335 228 -334 l 162 -306 q 271 -285 227 -305 q 325 -231 314 -264 q 231 -256 285 -256 q 134 -182 134 -256 q 154 -117 134 -145 q 208 -74 174 -90 q 283 -58 242 -58 z "},"ĸ":{"ha":854,"x_min":4,"x_max":828,"o":"m 575 538 q 610 632 575 591 q 699 696 646 673 q 684 709 694 704 q 664 714 673 714 q 600 692 627 714 q 570 650 582 677 q 540 570 557 623 q 505 478 521 515 q 461 411 488 442 q 394 368 434 380 q 648 203 648 367 q 644 161 648 186 l 637 118 q 634 86 634 96 q 639 65 634 71 q 654 60 644 60 q 728 147 695 60 l 757 225 l 783 225 l 749 123 q 526 -20 695 -20 q 391 99 391 -20 q 399 160 391 130 l 412 221 q 420 279 420 255 q 402 331 420 313 q 344 356 385 349 l 250 0 l 4 0 l 174 603 q 182 643 182 633 q 161 661 182 661 q 121 642 140 661 q 85 574 103 622 l 53 489 l 26 489 l 65 597 q 138 706 91 671 q 256 741 184 741 q 368 704 334 741 q 402 610 402 667 q 393 546 402 580 l 349 378 q 429 416 398 387 q 477 482 460 446 q 514 578 494 519 q 545 661 532 631 q 579 708 558 690 q 623 732 599 724 q 668 741 647 741 q 756 719 720 741 q 810 662 792 698 q 828 582 828 625 q 809 506 828 538 q 759 458 791 475 q 688 441 727 441 q 605 469 635 441 q 575 538 575 496 z "},"l":{"ha":439,"x_min":5,"x_max":528,"o":"m 235 118 q 231 92 231 103 q 238 67 231 75 q 257 60 246 60 q 289 77 271 60 q 328 147 308 94 l 357 225 l 383 225 l 349 123 q 267 12 321 43 q 151 -20 212 -20 q 43 16 82 -20 q 5 121 5 52 q 21 220 5 164 l 233 926 q 240 965 240 951 q 218 1005 240 993 q 146 1018 197 1018 l 155 1047 q 354 1062 266 1048 q 528 1104 442 1076 l 235 118 z "},"ĺ":{"ha":439,"x_min":5,"x_max":698,"o":"m 5 0 m 235 118 q 231 92 231 103 q 238 67 231 75 q 257 60 246 60 q 289 77 271 60 q 328 147 308 94 l 357 225 l 383 225 l 349 123 q 267 12 321 43 q 151 -20 212 -20 q 43 16 82 -20 q 5 121 5 52 q 21 220 5 164 l 233 926 q 240 965 240 951 q 218 1005 240 993 q 146 1018 197 1018 l 155 1047 q 354 1062 266 1048 q 528 1104 442 1076 l 235 118 m 279 1153 q 412 1284 339 1205 q 482 1355 457 1332 q 538 1394 507 1378 q 602 1411 567 1411 q 688 1362 661 1411 q 698 1325 698 1343 q 625 1233 698 1274 q 566 1209 599 1219 q 475 1186 532 1199 q 289 1136 360 1159 l 279 1153 z "},"ľ":{"ha":439,"x_min":5,"x_max":757,"o":"m 5 0 m 235 118 q 231 92 231 103 q 238 67 231 75 q 257 60 246 60 q 289 77 271 60 q 328 147 308 94 l 357 225 l 383 225 l 349 123 q 267 12 321 43 q 151 -20 212 -20 q 43 16 82 -20 q 5 121 5 52 q 21 220 5 164 l 233 926 q 240 965 240 951 q 218 1005 240 993 q 146 1018 197 1018 l 155 1047 q 354 1062 266 1048 q 528 1104 442 1076 l 235 118 m 485 750 q 549 915 528 843 q 570 1018 570 987 q 551 1044 570 1044 l 556 1074 l 580 1073 q 600 1072 587 1072 q 755 1089 681 1072 q 757 1072 757 1086 q 689 932 757 1021 q 505 745 621 844 l 485 750 z "},"ļ":{"ha":439,"x_min":-16,"x_max":528,"o":"m 0 0 m 235 118 q 231 92 231 103 q 238 67 231 75 q 257 60 246 60 q 289 77 271 60 q 328 147 308 94 l 357 225 l 383 225 l 349 123 q 267 12 321 43 q 151 -20 212 -20 q 43 16 82 -20 q 5 121 5 52 q 21 220 5 164 l 233 926 q 240 965 240 951 q 218 1005 240 993 q 146 1018 197 1018 l 155 1047 q 354 1062 266 1048 q 528 1104 442 1076 l 235 118 m 133 -58 q 208 -80 176 -58 q 240 -147 240 -102 q 211 -244 240 -202 q 130 -310 182 -286 q 12 -335 78 -334 l 12 -306 q 121 -285 77 -305 q 175 -231 164 -264 q 81 -256 135 -256 q -16 -182 -16 -256 q 4 -117 -16 -145 q 58 -74 24 -90 q 133 -58 92 -58 z "},"ŀ":{"ha":682,"x_min":5,"x_max":669,"o":"m 5 0 m 235 118 q 231 92 231 103 q 238 67 231 75 q 257 60 246 60 q 289 77 271 60 q 328 147 308 94 l 357 225 l 383 225 l 349 123 q 267 12 321 43 q 151 -20 212 -20 q 43 16 82 -20 q 5 121 5 52 q 21 220 5 164 l 233 926 q 240 965 240 951 q 218 1005 240 993 q 146 1018 197 1018 l 155 1047 q 354 1062 266 1048 q 528 1104 442 1076 l 235 118 m 404 379 q 425 455 404 422 q 480 508 445 489 q 559 527 515 527 q 641 503 613 527 q 669 432 669 479 q 648 362 669 395 q 591 308 627 329 q 513 288 555 288 q 432 311 459 288 q 404 379 404 334 z "},"ł":{"ha":456,"x_min":-20,"x_max":534,"o":"m 534 696 l 529 654 l 369 548 l 241 118 q 237 92 237 103 q 245 67 237 75 q 264 60 253 60 q 296 77 277 60 q 334 147 315 94 l 363 225 l 390 225 l 355 123 q 273 12 328 43 q 158 -20 219 -20 q 50 16 89 -20 q 12 121 12 52 q 28 220 12 164 l 85 410 l -20 340 l -14 382 l 100 458 l 240 926 q 247 965 247 951 q 225 1005 247 993 q 153 1018 203 1018 l 162 1047 q 361 1062 273 1048 q 534 1104 449 1076 l 383 595 l 534 696 z "},"m":{"ha":1232,"x_min":4,"x_max":1185,"o":"m 1174 225 l 1139 123 q 940 -20 1090 -20 q 811 39 847 -20 q 793 112 793 70 q 814 220 793 159 l 933 579 q 943 624 943 609 q 932 640 943 640 q 868 598 905 640 q 783 457 830 557 q 685 197 735 358 l 628 0 l 380 0 l 547 579 q 558 627 558 616 q 545 640 558 640 q 434 528 495 640 q 306 215 372 416 l 250 0 l 4 0 l 174 603 q 180 637 180 625 q 158 661 180 661 q 85 574 118 661 l 53 489 l 26 489 l 65 597 q 145 706 92 671 q 265 741 197 741 q 369 706 337 741 q 401 614 401 671 q 392 546 401 583 l 376 485 q 459 632 416 576 q 556 714 503 688 q 675 741 608 741 q 797 630 797 741 q 781 530 797 587 l 773 505 q 861 647 815 595 q 954 720 906 699 q 1060 741 1002 741 q 1185 631 1185 741 q 1165 530 1185 588 l 1028 118 q 1021 85 1021 98 q 1044 60 1021 60 q 1118 147 1086 60 l 1147 225 l 1174 225 z "},"n":{"ha":860,"x_min":4,"x_max":812,"o":"m 803 225 l 768 123 q 570 -20 718 -20 q 444 31 480 -20 q 421 109 421 62 q 443 220 421 153 l 562 579 q 574 633 574 614 q 559 654 574 654 q 466 557 524 654 q 350 308 409 460 q 252 4 292 157 l 252 7 l 250 0 l 4 0 l 174 603 q 182 643 182 633 q 161 661 182 661 q 121 642 140 661 q 85 574 103 622 l 53 489 l 26 489 l 65 597 q 138 706 91 671 q 256 741 184 741 q 368 704 334 741 q 402 610 402 667 q 393 546 402 580 l 355 401 q 459 611 410 537 q 560 712 509 684 q 676 741 611 741 q 812 625 812 741 q 794 530 812 585 l 657 118 q 650 85 650 98 q 673 60 650 60 q 747 147 715 60 l 777 225 l 803 225 z "},"ń":{"ha":860,"x_min":4,"x_max":812,"o":"m 4 0 m 803 225 l 768 123 q 570 -20 718 -20 q 444 31 480 -20 q 421 109 421 62 q 443 220 421 153 l 562 579 q 574 633 574 614 q 559 654 574 654 q 466 557 524 654 q 350 308 409 460 q 252 4 292 157 l 252 7 l 250 0 l 4 0 l 174 603 q 182 643 182 633 q 161 661 182 661 q 121 642 140 661 q 85 574 103 622 l 53 489 l 26 489 l 65 597 q 138 706 91 671 q 256 741 184 741 q 368 704 334 741 q 402 610 402 667 q 393 546 402 580 l 355 401 q 459 611 410 537 q 560 712 509 684 q 676 741 611 741 q 812 625 812 741 q 794 530 812 585 l 657 118 q 650 85 650 98 q 673 60 650 60 q 747 147 715 60 l 777 225 l 803 225 m 436 846 q 526 1010 471 901 q 571 1095 553 1065 q 614 1150 589 1126 q 655 1179 631 1168 q 703 1190 679 1190 q 767 1162 740 1190 q 790 1110 790 1139 q 745 1022 790 1069 q 694 982 723 1000 q 614 933 666 963 q 450 832 509 873 l 436 846 z "},"ŉ":{"ha":860,"x_min":-7,"x_max":812,"o":"m 0 0 m 803 225 l 768 123 q 570 -20 718 -20 q 444 31 480 -20 q 421 109 421 62 q 443 220 421 153 l 562 579 q 574 633 574 614 q 559 654 574 654 q 466 557 524 654 q 350 308 409 460 q 252 4 292 157 l 252 7 l 250 0 l 4 0 l 174 603 q 182 643 182 633 q 161 661 182 661 q 121 642 140 661 q 85 574 103 622 l 53 489 l 26 489 l 65 597 q 138 706 91 671 q 256 741 184 741 q 368 704 334 741 q 402 610 402 667 q 393 546 402 580 l 355 401 q 459 611 410 537 q 560 712 509 684 q 676 741 611 741 q 812 625 812 741 q 794 530 812 585 l 657 118 q 650 85 650 98 q 673 60 650 60 q 747 147 715 60 l 777 225 l 803 225 m 261 1004 q 205 828 261 907 q 53 707 150 749 l 46 732 q 151 808 107 758 q 199 922 195 859 q 102 879 157 879 q 21 902 50 879 q -7 970 -7 926 q 14 1047 -7 1013 q 69 1099 34 1080 q 149 1118 104 1118 q 261 1004 261 1118 z "},"ň":{"ha":860,"x_min":4,"x_max":874,"o":"m 4 0 m 803 225 l 768 123 q 570 -20 718 -20 q 444 31 480 -20 q 421 109 421 62 q 443 220 421 153 l 562 579 q 574 633 574 614 q 559 654 574 654 q 466 557 524 654 q 350 308 409 460 q 252 4 292 157 l 252 7 l 250 0 l 4 0 l 174 603 q 182 643 182 633 q 161 661 182 661 q 121 642 140 661 q 85 574 103 622 l 53 489 l 26 489 l 65 597 q 138 706 91 671 q 256 741 184 741 q 368 704 334 741 q 402 610 402 667 q 393 546 402 580 l 355 401 q 459 611 410 537 q 560 712 509 684 q 676 741 611 741 q 812 625 812 741 q 794 530 812 585 l 657 118 q 650 85 650 98 q 673 60 650 60 q 747 147 715 60 l 777 225 l 803 225 m 610 1080 q 867 1156 715 1124 l 874 1136 q 673 1010 767 1089 q 519 842 578 930 l 495 842 q 435 1016 473 947 q 330 1136 397 1084 l 335 1156 q 610 1080 499 1126 z "},"ņ":{"ha":860,"x_min":4,"x_max":812,"o":"m 4 0 m 803 225 l 768 123 q 570 -20 718 -20 q 444 31 480 -20 q 421 109 421 62 q 443 220 421 153 l 562 579 q 574 633 574 614 q 559 654 574 654 q 466 557 524 654 q 350 308 409 460 q 252 4 292 157 l 252 7 l 250 0 l 4 0 l 174 603 q 182 643 182 633 q 161 661 182 661 q 121 642 140 661 q 85 574 103 622 l 53 489 l 26 489 l 65 597 q 138 706 91 671 q 256 741 184 741 q 368 704 334 741 q 402 610 402 667 q 393 546 402 580 l 355 401 q 459 611 410 537 q 560 712 509 684 q 676 741 611 741 q 812 625 812 741 q 794 530 812 585 l 657 118 q 650 85 650 98 q 673 60 650 60 q 747 147 715 60 l 777 225 l 803 225 m 300 -58 q 375 -80 343 -58 q 407 -147 407 -102 q 378 -244 407 -202 q 297 -310 349 -286 q 179 -335 245 -334 l 179 -306 q 288 -285 244 -305 q 342 -231 331 -264 q 248 -256 302 -256 q 151 -182 151 -256 q 171 -117 151 -145 q 225 -74 191 -90 q 300 -58 259 -58 z "},"ŋ":{"ha":836,"x_min":4,"x_max":812,"o":"m 676 741 q 812 625 812 741 q 794 530 812 585 l 688 160 q 601 -61 642 16 q 503 -182 559 -138 q 378 -243 448 -224 q 244 -261 309 -261 q 68 -161 68 -261 q 84 -104 68 -130 q 129 -63 100 -78 q 191 -49 157 -49 q 246 -62 222 -49 q 283 -96 270 -75 q 296 -142 296 -117 q 280 -196 296 -169 q 233 -240 264 -223 q 293 -220 269 -236 q 336 -174 317 -205 q 371 -90 355 -142 l 562 579 q 574 634 574 617 q 559 654 574 654 q 466 557 524 654 q 350 308 409 460 q 252 4 292 157 l 252 7 l 250 0 l 4 0 l 174 603 q 182 643 182 633 q 161 661 182 661 q 121 642 140 661 q 85 574 103 622 l 53 489 l 26 489 l 65 597 q 138 706 91 671 q 256 741 184 741 q 368 704 334 741 q 402 610 402 667 q 393 546 402 580 l 355 401 q 459 611 410 537 q 560 712 509 684 q 676 741 611 741 z "},"ñ":{"ha":860,"x_min":4,"x_max":833,"o":"m 4 0 m 803 225 l 768 123 q 570 -20 718 -20 q 444 31 480 -20 q 421 109 421 62 q 443 220 421 153 l 562 579 q 574 633 574 614 q 559 654 574 654 q 466 557 524 654 q 350 308 409 460 q 252 4 292 157 l 252 7 l 250 0 l 4 0 l 174 603 q 182 643 182 633 q 161 661 182 661 q 121 642 140 661 q 85 574 103 622 l 53 489 l 26 489 l 65 597 q 138 706 91 671 q 256 741 184 741 q 368 704 334 741 q 402 610 402 667 q 393 546 402 580 l 355 401 q 459 611 410 537 q 560 712 509 684 q 676 741 611 741 q 812 625 812 741 q 794 530 812 585 l 657 118 q 650 85 650 98 q 673 60 650 60 q 747 147 715 60 l 777 225 l 803 225 m 498 1108 q 548 1100 526 1108 q 586 1081 570 1092 q 623 1051 602 1069 q 666 1018 648 1028 q 708 1007 684 1007 q 761 1026 736 1007 q 808 1088 785 1045 l 833 1080 q 731 910 795 966 q 597 854 667 854 q 547 863 569 854 q 510 882 526 871 q 473 911 494 893 q 430 945 448 934 q 387 956 412 956 q 335 937 359 956 q 288 875 311 918 l 262 882 q 365 1052 301 996 q 498 1108 428 1108 z "},"o":{"ha":774,"x_min":8,"x_max":739,"o":"m 8 216 q 62 456 8 334 q 226 659 117 577 q 492 741 335 741 q 676 680 612 741 q 739 504 739 618 q 685 265 739 387 q 521 62 631 144 q 256 -20 412 -20 q 72 41 135 -20 q 8 216 8 102 m 485 713 q 386 608 446 713 q 283 356 327 504 q 239 86 239 208 q 245 26 239 43 q 265 8 252 8 q 361 109 302 8 q 465 355 420 209 q 509 632 509 501 q 502 696 509 680 q 485 713 496 713 z "},"ó":{"ha":774,"x_min":8,"x_max":790,"o":"m 8 0 m 8 216 q 62 456 8 334 q 226 659 117 577 q 492 741 335 741 q 676 680 612 741 q 739 504 739 618 q 685 265 739 387 q 521 62 631 144 q 256 -20 412 -20 q 72 41 135 -20 q 8 216 8 102 m 485 713 q 386 608 446 713 q 283 356 327 504 q 239 86 239 208 q 245 26 239 43 q 265 8 252 8 q 361 109 302 8 q 465 355 420 209 q 509 632 509 501 q 502 696 509 680 q 485 713 496 713 m 436 846 q 526 1010 471 901 q 571 1095 553 1065 q 614 1150 589 1126 q 655 1179 631 1168 q 703 1190 679 1190 q 767 1162 740 1190 q 790 1110 790 1139 q 745 1022 790 1069 q 694 982 723 1000 q 614 933 666 963 q 450 832 509 873 l 436 846 z "},"ŏ":{"ha":774,"x_min":8,"x_max":842,"o":"m 8 0 m 8 216 q 62 456 8 334 q 226 659 117 577 q 492 741 335 741 q 676 680 612 741 q 739 504 739 618 q 685 265 739 387 q 521 62 631 144 q 256 -20 412 -20 q 72 41 135 -20 q 8 216 8 102 m 485 713 q 386 608 446 713 q 283 356 327 504 q 239 86 239 208 q 245 26 239 43 q 265 8 252 8 q 361 109 302 8 q 465 355 420 209 q 509 632 509 501 q 502 696 509 680 q 485 713 496 713 m 547 1017 q 825 1095 707 1017 l 842 1082 q 757 967 808 1020 q 643 883 706 915 q 514 851 579 851 q 398 913 441 851 q 342 1078 355 976 l 363 1089 q 437 1034 397 1050 q 547 1017 477 1017 z "},"ô":{"ha":774,"x_min":8,"x_max":775,"o":"m 8 0 m 8 216 q 62 456 8 334 q 226 659 117 577 q 492 741 335 741 q 676 680 612 741 q 739 504 739 618 q 685 265 739 387 q 521 62 631 144 q 256 -20 412 -20 q 72 41 135 -20 q 8 216 8 102 m 485 713 q 386 608 446 713 q 283 356 327 504 q 239 86 239 208 q 245 26 239 43 q 265 8 252 8 q 361 109 302 8 q 465 355 420 209 q 509 632 509 501 q 502 696 509 680 q 485 713 496 713 m 494 917 q 238 842 390 873 l 231 861 q 432 987 338 908 q 585 1156 526 1067 l 610 1156 q 670 981 632 1050 q 775 861 707 913 l 770 842 q 494 917 606 871 z "},"ö":{"ha":774,"x_min":8,"x_max":833,"o":"m 8 0 m 8 216 q 62 456 8 334 q 226 659 117 577 q 492 741 335 741 q 676 680 612 741 q 739 504 739 618 q 685 265 739 387 q 521 62 631 144 q 256 -20 412 -20 q 72 41 135 -20 q 8 216 8 102 m 485 713 q 386 608 446 713 q 283 356 327 504 q 239 86 239 208 q 245 26 239 43 q 265 8 252 8 q 361 109 302 8 q 465 355 420 209 q 509 632 509 501 q 502 696 509 680 q 485 713 496 713 m 261 936 q 280 1013 261 982 q 330 1058 299 1043 q 399 1072 361 1072 q 478 1043 452 1072 q 503 964 503 1015 q 484 888 503 918 q 432 845 464 859 q 364 831 400 831 q 286 859 311 831 q 261 936 261 886 m 592 936 q 632 1038 592 1004 q 730 1072 671 1072 q 808 1043 783 1072 q 833 964 833 1015 q 814 888 833 918 q 763 845 794 859 q 694 831 731 831 q 617 859 642 831 q 592 936 592 886 z "},"ò":{"ha":774,"x_min":8,"x_max":739,"o":"m 8 0 m 8 216 q 62 456 8 334 q 226 659 117 577 q 492 741 335 741 q 676 680 612 741 q 739 504 739 618 q 685 265 739 387 q 521 62 631 144 q 256 -20 412 -20 q 72 41 135 -20 q 8 216 8 102 m 485 713 q 386 608 446 713 q 283 356 327 504 q 239 86 239 208 q 245 26 239 43 q 265 8 252 8 q 361 109 302 8 q 465 355 420 209 q 509 632 509 501 q 502 696 509 680 q 485 713 496 713 m 518 832 q 382 965 456 902 q 333 1010 350 993 q 304 1047 316 1027 q 289 1100 289 1073 q 299 1141 289 1122 q 328 1173 309 1160 q 375 1186 349 1186 q 425 1173 401 1186 q 461 1140 449 1160 q 481 1095 475 1118 q 494 1027 488 1072 q 534 842 507 925 l 518 832 z "},"ő":{"ha":774,"x_min":8,"x_max":842,"o":"m 8 0 m 8 216 q 62 456 8 334 q 226 659 117 577 q 492 741 335 741 q 676 680 612 741 q 739 504 739 618 q 685 265 739 387 q 521 62 631 144 q 256 -20 412 -20 q 72 41 135 -20 q 8 216 8 102 m 485 713 q 386 608 446 713 q 283 356 327 504 q 239 86 239 208 q 245 26 239 43 q 265 8 252 8 q 361 109 302 8 q 465 355 420 209 q 509 632 509 501 q 502 696 509 680 q 485 713 496 713 m 338 840 q 388 998 364 908 q 407 1063 400 1042 q 427 1101 414 1084 q 459 1128 439 1118 q 500 1137 479 1137 q 563 1116 535 1137 q 594 1050 594 1088 q 570 989 594 1017 q 536 957 556 972 q 481 920 517 942 q 354 831 406 872 l 338 840 m 586 840 q 636 997 612 905 q 655 1063 648 1042 q 675 1101 663 1084 q 708 1128 688 1118 q 749 1137 728 1137 q 811 1116 783 1137 q 842 1050 842 1088 q 818 989 842 1017 q 785 957 804 972 q 729 920 765 942 q 603 831 659 874 l 586 840 z "},"ō":{"ha":774,"x_min":8,"x_max":793,"o":"m 8 0 m 8 216 q 62 456 8 334 q 226 659 117 577 q 492 741 335 741 q 676 680 612 741 q 739 504 739 618 q 685 265 739 387 q 521 62 631 144 q 256 -20 412 -20 q 72 41 135 -20 q 8 216 8 102 m 485 713 q 386 608 446 713 q 283 356 327 504 q 239 86 239 208 q 245 26 239 43 q 265 8 252 8 q 361 109 302 8 q 465 355 420 209 q 509 632 509 501 q 502 696 509 680 q 485 713 496 713 m 296 954 l 304 989 l 793 989 l 785 954 l 296 954 z "},"ø":{"ha":772,"x_min":8,"x_max":739,"o":"m 594 726 q 702 647 665 704 q 739 504 739 591 q 685 265 739 387 q 521 62 631 144 q 256 -20 412 -20 q 168 -9 207 -20 l 94 -125 l 72 -113 l 142 -2 q 42 78 77 22 q 8 216 8 134 q 62 456 8 334 q 226 659 117 577 q 492 741 335 741 q 569 733 532 741 l 639 844 l 663 833 l 594 726 m 485 713 q 394 622 448 713 q 295 396 339 530 q 241 141 250 262 l 508 656 q 500 701 507 690 q 485 713 494 713 m 265 8 q 358 103 301 8 q 460 339 416 199 q 508 609 504 480 l 239 86 q 245 26 239 43 q 265 8 252 8 z "},"õ":{"ha":774,"x_min":8,"x_max":833,"o":"m 8 0 m 8 216 q 62 456 8 334 q 226 659 117 577 q 492 741 335 741 q 676 680 612 741 q 739 504 739 618 q 685 265 739 387 q 521 62 631 144 q 256 -20 412 -20 q 72 41 135 -20 q 8 216 8 102 m 485 713 q 386 608 446 713 q 283 356 327 504 q 239 86 239 208 q 245 26 239 43 q 265 8 252 8 q 361 109 302 8 q 465 355 420 209 q 509 632 509 501 q 502 696 509 680 q 485 713 496 713 m 498 1108 q 548 1100 526 1108 q 586 1081 570 1092 q 623 1051 602 1069 q 666 1018 648 1028 q 708 1007 684 1007 q 761 1026 736 1007 q 808 1088 785 1045 l 833 1080 q 731 910 795 966 q 597 854 667 854 q 547 863 569 854 q 510 882 526 871 q 473 911 494 893 q 430 945 448 934 q 387 956 412 956 q 335 937 359 956 q 288 875 311 918 l 262 882 q 365 1052 301 996 q 498 1108 428 1108 z "},"œ":{"ha":1132,"x_min":0,"x_max":1141,"o":"m 1141 618 q 1078 472 1141 538 q 916 359 1015 406 q 703 286 816 312 q 699 215 699 243 q 728 110 699 139 q 814 81 757 81 q 903 104 848 81 q 1008 178 958 128 l 1031 167 q 887 34 977 87 q 679 -20 796 -20 q 545 8 604 -20 q 459 90 486 37 q 363 9 420 37 q 240 -20 306 -20 q 62 42 125 -20 q 0 216 0 103 q 66 453 0 330 q 253 658 133 576 q 525 741 373 741 q 620 715 578 741 q 677 641 662 690 q 970 741 810 741 q 1094 709 1047 741 q 1141 618 1141 678 m 939 714 q 851 654 899 714 q 763 499 803 593 q 707 309 722 404 q 848 407 795 352 q 931 532 901 461 q 961 679 961 602 q 939 714 961 714 m 439 176 q 465 341 439 258 q 541 497 492 424 q 658 626 591 571 q 566 672 632 672 q 423 606 495 672 q 305 431 351 539 q 258 207 258 323 q 349 78 258 78 q 450 111 408 78 q 439 176 439 142 z "},"p":{"ha":840,"x_min":-146,"x_max":806,"o":"m 615 741 q 758 682 711 741 q 806 514 806 624 q 754 274 806 399 q 607 65 703 149 q 385 -20 511 -20 q 252 9 307 -20 l 224 -93 q 213 -154 213 -133 q 240 -207 213 -193 q 328 -222 267 -221 l 319 -252 l 273 -250 q 78 -245 153 -245 q -108 -250 6 -245 q -146 -252 -138 -252 l -138 -222 q -83 -215 -104 -222 q -51 -189 -63 -207 q -29 -136 -39 -170 l 218 757 q 134 603 182 671 q 20 463 86 535 l 4 481 q 102 599 64 548 q 181 724 141 650 q 260 905 220 798 q 519 958 396 918 l 414 583 q 505 702 456 664 q 615 741 554 741 m 294 26 q 414 105 355 26 q 510 302 473 183 q 547 534 547 422 q 543 606 547 582 q 532 639 539 631 q 514 647 525 647 q 449 600 484 647 q 383 474 414 553 l 259 32 q 294 26 277 26 z "},"þ":{"ha":842,"x_min":-144,"x_max":807,"o":"m 616 741 q 760 682 712 741 q 807 514 807 624 q 755 274 807 399 q 608 65 704 149 q 386 -20 512 -20 q 254 9 309 -20 l 225 -93 q 214 -154 214 -133 q 241 -207 214 -193 q 329 -222 269 -221 l 321 -252 l 274 -250 q 79 -245 154 -245 q -106 -250 7 -245 q -144 -252 -136 -252 l -136 -222 q -82 -215 -102 -222 q -50 -189 -62 -207 q -28 -136 -37 -170 l 220 753 q 136 603 183 670 q 21 463 88 536 l 5 481 q 104 598 65 547 q 182 722 142 648 q 260 899 221 795 l 302 1051 q 562 1104 439 1063 l 416 584 q 506 703 457 665 q 616 741 555 741 m 296 26 q 415 105 356 26 q 511 302 474 183 q 549 534 549 422 q 545 606 549 582 q 533 639 541 631 q 515 647 526 647 q 450 600 485 647 q 385 476 416 553 l 260 32 q 296 26 278 26 z "},"q":{"ha":807,"x_min":3,"x_max":815,"o":"m 579 -119 q 573 -159 573 -143 q 595 -204 573 -190 q 664 -222 616 -219 l 656 -252 q 613 -250 647 -252 q 421 -245 494 -245 q 225 -250 345 -245 q 183 -252 191 -252 l 192 -222 q 264 -209 237 -221 q 308 -175 292 -197 q 334 -118 324 -153 l 418 195 q 316 31 370 82 q 193 -20 263 -20 q 50 39 98 -20 q 3 207 3 97 q 63 444 3 318 q 227 655 123 570 q 452 741 330 741 q 517 731 486 741 q 568 706 548 721 q 616 701 589 701 q 794 741 690 701 l 815 730 q 785 648 798 694 l 579 -119 m 294 87 q 356 129 323 87 q 419 239 389 170 q 469 390 450 309 l 463 359 l 553 688 q 514 694 534 694 q 396 603 455 694 q 299 382 337 511 q 261 153 261 252 q 269 101 261 115 q 294 87 277 87 z "},"r":{"ha":693,"x_min":4,"x_max":733,"o":"m 599 741 q 671 723 641 741 q 717 674 701 705 q 733 606 733 644 q 713 519 733 559 q 657 456 692 479 q 576 432 621 432 q 499 458 526 432 q 472 536 472 485 q 493 613 472 576 q 548 675 513 650 q 624 708 583 701 q 604 713 610 713 q 524 695 560 713 q 445 606 488 677 q 353 390 401 535 l 250 0 l 4 0 l 174 603 q 180 639 180 625 q 161 661 180 661 q 121 642 140 661 q 85 574 103 622 l 53 489 l 26 489 l 65 597 q 272 741 117 741 q 371 704 340 741 q 401 608 401 667 q 399 583 401 600 q 456 676 427 642 q 520 726 486 711 q 599 741 554 741 z "},"ŕ":{"ha":693,"x_min":4,"x_max":733,"o":"m 4 0 m 599 741 q 671 723 641 741 q 717 674 701 705 q 733 606 733 644 q 713 519 733 559 q 657 456 692 479 q 576 432 621 432 q 499 458 526 432 q 472 536 472 485 q 493 613 472 576 q 548 675 513 650 q 624 708 583 701 q 604 713 610 713 q 524 695 560 713 q 445 606 488 677 q 353 390 401 535 l 250 0 l 4 0 l 174 603 q 180 639 180 625 q 161 661 180 661 q 121 642 140 661 q 85 574 103 622 l 53 489 l 26 489 l 65 597 q 272 741 117 741 q 371 704 340 741 q 401 608 401 667 q 399 583 401 600 q 456 676 427 642 q 520 726 486 711 q 599 741 554 741 m 366 846 q 456 1010 401 901 q 500 1095 482 1065 q 543 1150 519 1126 q 585 1179 561 1168 q 632 1190 608 1190 q 696 1162 669 1190 q 720 1110 720 1139 q 674 1022 720 1069 q 624 982 652 1000 q 543 933 595 963 q 380 832 438 873 l 366 846 z "},"ř":{"ha":693,"x_min":4,"x_max":804,"o":"m 4 0 m 599 741 q 671 723 641 741 q 717 674 701 705 q 733 606 733 644 q 713 519 733 559 q 657 456 692 479 q 576 432 621 432 q 499 458 526 432 q 472 536 472 485 q 493 613 472 576 q 548 675 513 650 q 624 708 583 701 q 604 713 610 713 q 524 695 560 713 q 445 606 488 677 q 353 390 401 535 l 250 0 l 4 0 l 174 603 q 180 639 180 625 q 161 661 180 661 q 121 642 140 661 q 85 574 103 622 l 53 489 l 26 489 l 65 597 q 272 741 117 741 q 371 704 340 741 q 401 608 401 667 q 399 583 401 600 q 456 676 427 642 q 520 726 486 711 q 599 741 554 741 m 540 1080 q 796 1156 644 1124 l 804 1136 q 602 1010 696 1089 q 449 842 508 930 l 425 842 q 365 1016 402 947 q 259 1136 327 1084 l 264 1156 q 540 1080 429 1126 z "},"ŗ":{"ha":693,"x_min":-47,"x_max":733,"o":"m 0 0 m 599 741 q 671 723 641 741 q 717 674 701 705 q 733 606 733 644 q 713 519 733 559 q 657 456 692 479 q 576 432 621 432 q 499 458 526 432 q 472 536 472 485 q 493 613 472 576 q 548 675 513 650 q 624 708 583 701 q 604 713 610 713 q 524 695 560 713 q 445 606 488 677 q 353 390 401 535 l 250 0 l 4 0 l 174 603 q 180 639 180 625 q 161 661 180 661 q 121 642 140 661 q 85 574 103 622 l 53 489 l 26 489 l 65 597 q 272 741 117 741 q 371 704 340 741 q 401 608 401 667 q 399 583 401 600 q 456 676 427 642 q 520 726 486 711 q 599 741 554 741 m 101 -58 q 176 -80 144 -58 q 208 -147 208 -102 q 179 -244 208 -202 q 98 -310 150 -286 q -20 -335 46 -334 l -20 -306 q 89 -285 45 -305 q 143 -231 132 -264 q 50 -256 103 -256 q -47 -182 -47 -256 q -27 -117 -47 -145 q 26 -74 -7 -90 q 101 -58 60 -58 z "},"s":{"ha":619,"x_min":-29,"x_max":616,"o":"m 117 20 q 165 9 138 9 q 237 38 209 9 q 265 115 265 67 q 244 209 265 159 q 184 322 224 258 l 176 335 q 135 406 150 379 q 111 465 121 433 q 102 530 102 496 q 133 638 102 591 q 225 713 163 686 q 378 741 288 741 q 548 704 480 741 q 616 581 616 667 q 605 522 616 551 q 571 475 593 494 q 518 457 549 457 q 453 489 477 457 q 429 574 429 522 q 443 650 429 614 q 473 704 456 686 q 439 710 461 710 q 365 682 390 710 q 340 599 340 653 q 356 531 340 564 q 403 445 371 498 l 422 412 q 487 285 469 334 q 505 189 505 236 q 473 83 505 131 q 379 8 441 36 q 228 -20 316 -20 q 43 22 116 -20 q -29 158 -29 63 q -3 247 -29 211 q 65 282 22 282 q 131 249 106 282 q 155 160 155 215 q 149 107 155 133 q 133 58 142 81 q 117 20 124 35 z "},"ś":{"ha":619,"x_min":-29,"x_max":701,"o":"m 0 0 m 117 20 q 165 9 138 9 q 237 38 209 9 q 265 115 265 67 q 244 209 265 159 q 184 322 224 258 l 176 335 q 135 406 150 379 q 111 465 121 433 q 102 530 102 496 q 133 638 102 591 q 225 713 163 686 q 378 741 288 741 q 548 704 480 741 q 616 581 616 667 q 605 522 616 551 q 571 475 593 494 q 518 457 549 457 q 453 489 477 457 q 429 574 429 522 q 443 650 429 614 q 473 704 456 686 q 439 710 461 710 q 365 682 390 710 q 340 599 340 653 q 356 531 340 564 q 403 445 371 498 l 422 412 q 487 285 469 334 q 505 189 505 236 q 473 83 505 131 q 379 8 441 36 q 228 -20 316 -20 q 43 22 116 -20 q -29 158 -29 63 q -3 247 -29 211 q 65 282 22 282 q 131 249 106 282 q 155 160 155 215 q 149 107 155 133 q 133 58 142 81 q 117 20 124 35 m 347 846 q 437 1010 382 901 q 482 1095 464 1065 q 525 1150 500 1126 q 566 1179 543 1168 q 614 1190 590 1190 q 678 1162 651 1190 q 701 1110 701 1139 q 656 1022 701 1069 q 606 982 634 1000 q 525 933 577 963 q 361 832 420 873 l 347 846 z "},"š":{"ha":619,"x_min":-29,"x_max":785,"o":"m 0 0 m 117 20 q 165 9 138 9 q 237 38 209 9 q 265 115 265 67 q 244 209 265 159 q 184 322 224 258 l 176 335 q 135 406 150 379 q 111 465 121 433 q 102 530 102 496 q 133 638 102 591 q 225 713 163 686 q 378 741 288 741 q 548 704 480 741 q 616 581 616 667 q 605 522 616 551 q 571 475 593 494 q 518 457 549 457 q 453 489 477 457 q 429 574 429 522 q 443 650 429 614 q 473 704 456 686 q 439 710 461 710 q 365 682 390 710 q 340 599 340 653 q 356 531 340 564 q 403 445 371 498 l 422 412 q 487 285 469 334 q 505 189 505 236 q 473 83 505 131 q 379 8 441 36 q 228 -20 316 -20 q 43 22 116 -20 q -29 158 -29 63 q -3 247 -29 211 q 65 282 22 282 q 131 249 106 282 q 155 160 155 215 q 149 107 155 133 q 133 58 142 81 q 117 20 124 35 m 522 1080 q 778 1156 626 1124 l 785 1136 q 584 1010 678 1089 q 431 842 490 930 l 406 842 q 346 1016 384 947 q 241 1136 309 1084 l 246 1156 q 522 1080 410 1126 z "},"ş":{"ha":619,"x_min":-61,"x_max":616,"o":"m 378 741 q 548 704 480 741 q 616 581 616 667 q 605 522 616 551 q 571 475 593 494 q 518 457 549 457 q 453 489 477 457 q 429 574 429 522 q 443 650 429 614 q 473 704 456 686 q 439 710 461 710 q 365 682 390 710 q 340 599 340 653 q 356 531 340 564 q 403 445 371 498 l 422 412 q 487 285 469 334 q 505 189 505 236 q 473 83 505 131 q 379 8 441 36 q 228 -20 316 -20 l 207 -19 l 152 -93 q 238 -77 202 -77 q 310 -92 282 -77 q 338 -136 338 -106 q 300 -208 338 -180 q 201 -248 262 -235 q 73 -261 141 -261 q -61 -236 -2 -261 l -52 -214 q 33 -228 -12 -228 q 110 -216 73 -228 q 146 -170 146 -203 q 136 -146 146 -155 q 107 -138 125 -138 q 64 -147 83 -138 l 168 -16 q 25 35 79 -7 q -29 158 -29 77 q -3 247 -29 211 q 65 282 22 282 q 131 249 106 282 q 155 160 155 215 q 149 107 155 133 q 133 58 142 81 q 117 20 124 35 q 165 9 138 9 q 237 38 209 9 q 265 115 265 67 q 244 209 265 159 q 184 322 224 258 l 176 335 q 135 406 150 379 q 111 465 121 433 q 102 530 102 496 q 133 638 102 591 q 225 713 163 686 q 378 741 288 741 z "},"ŝ":{"ha":619,"x_min":-29,"x_max":686,"o":"m 0 0 m 117 20 q 165 9 138 9 q 237 38 209 9 q 265 115 265 67 q 244 209 265 159 q 184 322 224 258 l 176 335 q 135 406 150 379 q 111 465 121 433 q 102 530 102 496 q 133 638 102 591 q 225 713 163 686 q 378 741 288 741 q 548 704 480 741 q 616 581 616 667 q 605 522 616 551 q 571 475 593 494 q 518 457 549 457 q 453 489 477 457 q 429 574 429 522 q 443 650 429 614 q 473 704 456 686 q 439 710 461 710 q 365 682 390 710 q 340 599 340 653 q 356 531 340 564 q 403 445 371 498 l 422 412 q 487 285 469 334 q 505 189 505 236 q 473 83 505 131 q 379 8 441 36 q 228 -20 316 -20 q 43 22 116 -20 q -29 158 -29 63 q -3 247 -29 211 q 65 282 22 282 q 131 249 106 282 q 155 160 155 215 q 149 107 155 133 q 133 58 142 81 q 117 20 124 35 m 406 917 q 149 842 301 873 l 142 861 q 343 987 249 908 q 496 1156 437 1067 l 521 1156 q 581 981 543 1050 q 686 861 618 913 l 681 842 q 406 917 517 871 z "},"ș":{"ha":619,"x_min":-29,"x_max":616,"o":"m 0 0 m 117 20 q 165 9 138 9 q 237 38 209 9 q 265 115 265 67 q 244 209 265 159 q 184 322 224 258 l 176 335 q 135 406 150 379 q 111 465 121 433 q 102 530 102 496 q 133 638 102 591 q 225 713 163 686 q 378 741 288 741 q 548 704 480 741 q 616 581 616 667 q 605 522 616 551 q 571 475 593 494 q 518 457 549 457 q 453 489 477 457 q 429 574 429 522 q 443 650 429 614 q 473 704 456 686 q 439 710 461 710 q 365 682 390 710 q 340 599 340 653 q 356 531 340 564 q 403 445 371 498 l 422 412 q 487 285 469 334 q 505 189 505 236 q 473 83 505 131 q 379 8 441 36 q 228 -20 316 -20 q 43 22 116 -20 q -29 158 -29 63 q -3 247 -29 211 q 65 282 22 282 q 131 249 106 282 q 155 160 155 215 q 149 107 155 133 q 133 58 142 81 q 117 20 124 35 m 180 -58 q 256 -80 224 -58 q 288 -147 288 -102 q 258 -244 288 -202 q 177 -310 229 -286 q 60 -335 125 -334 l 60 -306 q 168 -285 125 -305 q 222 -231 212 -264 q 129 -256 182 -256 q 32 -182 32 -256 q 52 -117 32 -145 q 106 -74 72 -90 q 180 -58 140 -58 z "},"ß":{"ha":900,"x_min":-92,"x_max":917,"o":"m 583 1065 q 509 1020 539 1065 q 454 884 478 975 l 158 -241 q -92 -261 14 -243 l 167 715 q 255 927 201 846 q 396 1047 310 1008 q 612 1086 483 1086 q 786 1067 718 1086 q 886 1017 854 1048 q 917 950 917 986 q 899 890 917 916 q 852 842 881 863 q 766 783 823 821 q 624 686 684 732 q 568 637 586 656 q 545 608 549 618 q 541 586 541 597 q 557 533 541 559 q 599 484 574 507 q 664 428 623 461 l 693 404 l 710 390 q 779 329 755 353 q 818 276 803 305 q 832 208 832 246 q 787 81 832 133 q 670 5 743 30 q 511 -20 597 -20 q 400 2 446 -20 q 332 62 355 24 q 309 149 309 100 q 321 211 309 182 q 355 258 333 240 q 407 275 378 275 q 456 258 435 275 q 490 210 478 241 q 503 142 503 180 q 490 69 503 106 q 454 11 477 32 q 473 8 463 8 q 512 25 494 8 q 539 71 529 41 q 549 138 549 101 q 543 204 549 175 q 522 284 536 234 q 519 295 521 289 q 515 307 517 300 q 510 324 513 316 q 505 340 507 332 q 479 433 488 395 q 469 504 469 471 q 479 561 469 536 q 506 606 490 586 q 556 659 523 626 l 593 696 q 676 942 676 782 q 650 1036 676 1006 q 583 1065 623 1065 z "},"t":{"ha":507,"x_min":41,"x_max":581,"o":"m 268 118 q 264 92 264 103 q 293 60 264 60 q 348 90 320 60 q 393 165 376 120 l 415 225 l 441 225 l 415 149 q 331 24 388 68 q 195 -20 274 -20 q 79 21 117 -20 q 41 131 41 62 q 54 220 41 172 l 189 686 l 61 686 l 68 714 l 197 714 l 257 925 q 510 945 405 927 l 442 714 l 581 714 l 576 686 l 434 686 l 268 118 z "},"ŧ":{"ha":514,"x_min":31,"x_max":586,"o":"m 410 585 l 549 585 l 545 557 l 401 557 l 273 118 q 269 92 269 103 q 298 60 269 60 q 354 90 326 60 q 399 165 382 120 l 420 225 l 447 225 l 420 149 q 336 24 393 68 q 200 -20 279 -20 q 84 21 123 -20 q 46 131 46 62 q 60 220 46 172 l 157 557 l 31 557 l 37 585 l 165 585 l 194 686 l 66 686 l 73 714 l 202 714 l 262 925 q 515 945 410 927 l 448 714 l 586 714 l 582 686 l 439 686 l 410 585 z "},"ť":{"ha":507,"x_min":41,"x_max":840,"o":"m 839 1089 q 840 1072 840 1086 q 772 932 840 1021 q 588 745 705 844 l 568 750 q 632 915 611 843 q 653 1018 653 987 q 635 1044 653 1044 l 640 1074 l 663 1073 q 684 1072 671 1072 q 839 1089 764 1072 m 581 714 l 576 686 l 434 686 l 268 118 q 264 92 264 103 q 293 60 264 60 q 348 90 320 60 q 393 165 376 120 l 415 225 l 441 225 l 415 149 q 331 24 388 68 q 195 -20 274 -20 q 79 21 117 -20 q 41 131 41 62 q 54 220 41 172 l 189 686 l 61 686 l 68 714 l 197 714 l 257 925 q 510 945 405 927 l 442 714 l 581 714 z "},"ţ":{"ha":507,"x_min":-97,"x_max":581,"o":"m 268 118 q 264 92 264 102 q 293 60 264 60 q 348 90 320 60 q 393 165 376 120 l 415 225 l 441 225 l 415 149 q 331 24 388 68 q 195 -20 274 -20 q 172 -18 186 -20 l 116 -93 q 202 -77 166 -77 q 274 -92 246 -77 q 302 -136 302 -106 q 264 -208 302 -180 q 165 -248 226 -235 q 37 -261 105 -261 q -97 -236 -38 -261 l -88 -214 q -3 -228 -47 -228 q 74 -216 37 -228 q 111 -170 111 -203 q 100 -146 111 -155 q 71 -138 89 -138 q 28 -147 47 -138 l 136 -12 q 64 39 88 2 q 41 131 41 77 q 54 220 41 172 l 189 686 l 61 686 l 68 714 l 197 714 l 257 925 q 510 945 405 927 l 442 714 l 581 714 l 576 686 l 434 686 l 268 118 z "},"ț":{"ha":507,"x_min":-4,"x_max":581,"o":"m 0 0 m 268 118 q 264 92 264 103 q 293 60 264 60 q 348 90 320 60 q 393 165 376 120 l 415 225 l 441 225 l 415 149 q 331 24 388 68 q 195 -20 274 -20 q 79 21 117 -20 q 41 131 41 62 q 54 220 41 172 l 189 686 l 61 686 l 68 714 l 197 714 l 257 925 q 510 945 405 927 l 442 714 l 581 714 l 576 686 l 434 686 l 268 118 m 144 -58 q 220 -80 188 -58 q 252 -147 252 -102 q 222 -244 252 -202 q 141 -310 193 -286 q 24 -335 90 -334 l 24 -306 q 132 -285 89 -305 q 186 -231 176 -264 q 93 -256 146 -256 q -4 -182 -4 -256 q 16 -117 -4 -145 q 70 -74 36 -90 q 144 -58 104 -58 z "},"u":{"ha":857,"x_min":22,"x_max":833,"o":"m 806 232 l 766 123 q 688 15 740 50 q 568 -20 635 -20 q 444 35 476 -20 q 428 102 428 62 q 439 175 428 135 l 470 294 q 368 99 417 168 q 269 6 319 31 q 153 -20 218 -20 q 56 10 90 -20 q 22 96 22 39 q 40 191 22 136 l 175 603 q 182 636 182 623 q 158 661 182 661 q 85 574 117 661 l 56 496 l 29 496 l 64 597 q 262 741 114 741 q 371 708 332 741 q 409 610 409 675 q 389 501 409 562 l 269 142 q 258 87 258 105 q 272 66 258 66 q 358 151 306 66 q 466 371 410 235 q 564 650 522 506 l 582 721 q 833 741 735 723 l 659 118 q 650 78 650 90 q 671 60 650 60 q 711 79 692 60 q 747 147 729 99 l 779 232 l 806 232 z "},"ú":{"ha":857,"x_min":22,"x_max":833,"o":"m 22 0 m 806 232 l 766 123 q 688 15 740 50 q 568 -20 635 -20 q 444 35 476 -20 q 428 102 428 62 q 439 175 428 135 l 470 294 q 368 99 417 168 q 269 6 319 31 q 153 -20 218 -20 q 56 10 90 -20 q 22 96 22 39 q 40 191 22 136 l 175 603 q 182 636 182 623 q 158 661 182 661 q 85 574 117 661 l 56 496 l 29 496 l 64 597 q 262 741 114 741 q 371 708 332 741 q 409 610 409 675 q 389 501 409 562 l 269 142 q 258 87 258 105 q 272 66 258 66 q 358 151 306 66 q 466 371 410 235 q 564 650 522 506 l 582 721 q 833 741 735 723 l 659 118 q 650 78 650 90 q 671 60 650 60 q 711 79 692 60 q 747 147 729 99 l 779 232 l 806 232 m 427 846 q 517 1010 462 901 q 562 1095 543 1065 q 604 1150 580 1126 q 646 1179 622 1168 q 693 1190 669 1190 q 758 1162 730 1190 q 781 1110 781 1139 q 735 1022 781 1069 q 685 982 713 1000 q 604 933 656 963 q 441 832 499 873 l 427 846 z "},"ŭ":{"ha":857,"x_min":22,"x_max":833,"o":"m 22 0 m 806 232 l 766 123 q 688 15 740 50 q 568 -20 635 -20 q 444 35 476 -20 q 428 102 428 62 q 439 175 428 135 l 470 294 q 368 99 417 168 q 269 6 319 31 q 153 -20 218 -20 q 56 10 90 -20 q 22 96 22 39 q 40 191 22 136 l 175 603 q 182 636 182 623 q 158 661 182 661 q 85 574 117 661 l 56 496 l 29 496 l 64 597 q 262 741 114 741 q 371 708 332 741 q 409 610 409 675 q 389 501 409 562 l 269 142 q 258 87 258 105 q 272 66 258 66 q 358 151 306 66 q 466 371 410 235 q 564 650 522 506 l 582 721 q 833 741 735 723 l 659 118 q 650 78 650 90 q 671 60 650 60 q 711 79 692 60 q 747 147 729 99 l 779 232 l 806 232 m 538 1017 q 816 1095 697 1017 l 832 1082 q 748 967 799 1020 q 633 883 696 915 q 505 851 570 851 q 389 913 431 851 q 332 1078 346 976 l 353 1089 q 428 1034 387 1050 q 538 1017 468 1017 z "},"û":{"ha":857,"x_min":22,"x_max":833,"o":"m 22 0 m 806 232 l 766 123 q 688 15 740 50 q 568 -20 635 -20 q 444 35 476 -20 q 428 102 428 62 q 439 175 428 135 l 470 294 q 368 99 417 168 q 269 6 319 31 q 153 -20 218 -20 q 56 10 90 -20 q 22 96 22 39 q 40 191 22 136 l 175 603 q 182 636 182 623 q 158 661 182 661 q 85 574 117 661 l 56 496 l 29 496 l 64 597 q 262 741 114 741 q 371 708 332 741 q 409 610 409 675 q 389 501 409 562 l 269 142 q 258 87 258 105 q 272 66 258 66 q 358 151 306 66 q 466 371 410 235 q 564 650 522 506 l 582 721 q 833 741 735 723 l 659 118 q 650 78 650 90 q 671 60 650 60 q 711 79 692 60 q 747 147 729 99 l 779 232 l 806 232 m 485 917 q 229 842 380 873 l 221 861 q 422 987 328 908 q 576 1156 517 1067 l 600 1156 q 660 981 623 1050 q 766 861 698 913 l 760 842 q 485 917 596 871 z "}}}
